<svg xmlns="http://www.w3.org/2000/svg" width="24" height="24" fill="none"><path fill="#A1AAB3" d="M17.9997 15.4999c-.1316.0008-.2621-.0244-.3839-.0742-.1218-.0498-.2327-.1231-.3261-.2158l-4.58-4.59c-.093-.0937-.2036-.1681-.3254-.2189-.1219-.0507-.2526-.0769-.3846-.0769s-.2627.0262-.3846.0769c-.1218.0508-.2324.1252-.3254.2189l-4.58 4.59c-.18831.1883-.4437.2941-.71.2941s-.5217-.1058-.71-.2941c-.18831-.1883-.29409-.4437-.29409-.71 0-.1318.02597-.2624.07643-.3842.05046-.1218.12442-.2325.21766-.3258l4.59-4.57996c.5699-.54757 1.3296-.85337 2.12-.85337.7904 0 1.5501.3058 2.12.85337l4.59 4.57996c.0937.093.1681.2036.2189.3255.0508.1218.0769.2525.0769.3845s-.0261.2627-.0769.3846c-.0508.1219-.1252.2325-.2189.3254-.0934.0927-.2043.166-.3261.2158-.1218.0498-.2523.075-.3839.0742Z"/></svg>