<svg aria-hidden="true" style="position: absolute; width: 0; height: 0; overflow: hidden;" version="1.1" xmlns="http://www.w3.org/2000/svg" xmlns:xlink="http://www.w3.org/1999/xlink">
<defs>
<symbol id="icon-Brain" viewBox="0 0 32 32">
<path d="M28 15c0-1.568-0.752-3.040-2-3.979v-0.021c-0.001-0.904-0.308-1.782-0.872-2.49s-1.349-1.204-2.23-1.408c-0.204-0.881-0.701-1.667-1.409-2.23s-1.585-0.87-2.489-0.872c-0.568-0-1.129 0.121-1.646 0.355s-0.979 0.576-1.354 1.002c-0.375-0.427-0.836-0.768-1.353-1.002s-1.079-0.355-1.647-0.355c-0.904 0.001-1.782 0.308-2.49 0.872s-1.204 1.349-1.408 2.23c-0.881 0.204-1.667 0.701-2.23 1.409s-0.87 1.585-0.872 2.489v0.021c-0.619 0.463-1.121 1.063-1.468 1.754s-0.529 1.452-0.532 2.225c0 0.886 0.235 1.737 0.686 2.5-0.449 0.756-0.686 1.62-0.686 2.5 0 1.686 0.858 3.244 2.267 4.166 0.349 1.114 1.045 2.087 1.986 2.777s2.079 1.060 3.247 1.057c0.883-0 1.753-0.213 2.536-0.621s1.457-0.998 1.964-1.721c0.507 0.723 1.18 1.313 1.964 1.721s1.653 0.621 2.536 0.621c1.167 0.004 2.305-0.367 3.247-1.057s1.638-1.663 1.986-2.777c0.694-0.451 1.265-1.068 1.661-1.796s0.604-1.542 0.606-2.37c0.001-0.88-0.236-1.744-0.686-2.5 0.449-0.756 0.686-1.62 0.686-2.5zM11.5 26c-0.791 0.002-1.559-0.265-2.177-0.759s-1.050-1.182-1.224-1.953c-0.032-0.139-0.094-0.269-0.18-0.382s-0.196-0.206-0.322-0.274c-0.48-0.253-0.881-0.631-1.163-1.094s-0.431-0.995-0.434-1.537c0-0.675 0.234-1.322 0.679-1.872 0.144-0.178 0.222-0.4 0.222-0.628s-0.078-0.451-0.222-0.629c-0.436-0.527-0.676-1.188-0.679-1.872 0-1.070 0.591-2.067 1.543-2.603 0.181-0.101 0.325-0.257 0.413-0.444s0.117-0.397 0.081-0.601c-0.023-0.116-0.035-0.234-0.037-0.352 0-1.103 0.897-2 2-2 0.265 0 0.52-0.105 0.707-0.293s0.293-0.442 0.293-0.707c0-1.103 0.897-2 2-2s2 0.897 2 2v4h-2.268c-0.22-0.382-0.559-0.681-0.966-0.85s-0.858-0.199-1.284-0.085c-0.426 0.114-0.802 0.366-1.070 0.715s-0.413 0.778-0.412 1.219c0 0.44 0.145 0.868 0.413 1.217s0.644 0.6 1.069 0.714c0.425 0.114 0.876 0.084 1.283-0.084s0.747-0.467 0.967-0.848h2.268v5h-2.268c-0.22-0.382-0.559-0.681-0.966-0.85s-0.858-0.199-1.284-0.085c-0.426 0.114-0.802 0.366-1.070 0.715s-0.413 0.778-0.412 1.219c0 0.44 0.145 0.868 0.413 1.217s0.644 0.6 1.069 0.714c0.425 0.114 0.876 0.084 1.283-0.084s0.747-0.467 0.967-0.848h2.268v1.5c0 1.93-1.57 3.5-3.5 3.5zM25.321 18.128c0.444 0.549 0.679 1.196 0.679 1.872-0.002 0.542-0.152 1.073-0.434 1.537s-0.683 0.842-1.163 1.094c-0.125 0.067-0.235 0.161-0.322 0.274s-0.148 0.243-0.18 0.382c-0.174 0.771-0.606 1.46-1.224 1.953s-1.386 0.761-2.177 0.759c-1.93 0-3.5-1.57-3.5-3.5v-4.5h2c1.654 0 3-1.346 3-3v-0.268c0.382-0.22 0.681-0.559 0.85-0.966s0.199-0.858 0.085-1.284-0.366-0.802-0.715-1.070c-0.35-0.268-0.778-0.413-1.219-0.412s-0.868 0.145-1.217 0.413c-0.349 0.268-0.6 0.644-0.714 1.069s-0.084 0.876 0.084 1.283c0.169 0.407 0.467 0.747 0.848 0.967v0.268c0 0.551-0.448 1-1 1h-2v-7.999c0-1.103 0.897-2 2-2s2 0.897 2 2c0 0.265 0.105 0.52 0.293 0.707s0.442 0.293 0.707 0.293c1.103 0 2 0.897 2 2 0 0.121-0.018 0.237-0.037 0.352-0.036 0.204-0.008 0.414 0.081 0.601s0.233 0.342 0.413 0.444c0.465 0.258 0.853 0.635 1.124 1.093s0.416 0.979 0.419 1.51c0 0.675-0.234 1.322-0.679 1.872-0.144 0.178-0.222 0.4-0.222 0.629s0.078 0.45 0.222 0.627z"></path>
</symbol>
<symbol id="icon-Cup" viewBox="0 0 32 32">
<path fill="none" stroke-linejoin="round" stroke-linecap="round" stroke-miterlimit="4" stroke-width="1" d="M16.2 22v2.8"></path>
<path fill="none" stroke-linejoin="miter" stroke-linecap="butt" stroke-miterlimit="10" stroke-width="1" d="M9.533 29.333h13.333v-1.333c0-1.467-1.2-2.667-2.667-2.667h-8c-1.467 0-2.667 1.2-2.667 2.667v1.333z"></path>
<path fill="none" stroke-linejoin="round" stroke-linecap="round" stroke-miterlimit="4" stroke-width="1" d="M8.2 29.333h16M16 21.333c-5.16 0-9.333-4.173-9.333-9.333v-4c0-2.947 2.387-5.333 5.333-5.333h8c2.947 0 5.333 2.387 5.333 5.333v4c0 5.16-4.173 9.333-9.333 9.333z"></path>
<path fill="none" stroke-linejoin="round" stroke-linecap="round" stroke-miterlimit="4" stroke-width="1" d="M7.293 15.533c-1-0.32-1.88-0.907-2.573-1.6-1.2-1.333-2-2.933-2-4.8s1.467-3.333 3.333-3.333h0.867c-0.267 0.613-0.4 1.293-0.4 2v4c0 1.333 0.28 2.587 0.773 3.733zM24.706 15.533c1-0.32 1.88-0.907 2.573-1.6 1.2-1.333 2-2.933 2-4.8s-1.467-3.333-3.333-3.333h-0.867c0.267 0.613 0.4 1.293 0.4 2v4c0 1.333-0.28 2.587-0.773 3.733z"></path>
</symbol>
<symbol id="icon-Phone" viewBox="0 0 32 32">
<path d="M17.333 1.333c0-0.354 0.14-0.693 0.391-0.943s0.589-0.391 0.943-0.391c3.535 0.004 6.924 1.41 9.424 3.91s3.906 5.889 3.91 9.424c0 0.354-0.14 0.693-0.391 0.943s-0.589 0.391-0.943 0.391c-0.354 0-0.693-0.14-0.943-0.391s-0.39-0.589-0.39-0.943c-0.003-2.828-1.128-5.539-3.128-7.539s-4.711-3.125-7.539-3.128c-0.354 0-0.693-0.14-0.943-0.391s-0.391-0.589-0.391-0.943zM18.666 8c1.415 0 2.771 0.562 3.771 1.562s1.562 2.357 1.562 3.771c0 0.354 0.14 0.693 0.391 0.943s0.589 0.391 0.943 0.391 0.693-0.14 0.943-0.391 0.39-0.589 0.39-0.943c-0.002-2.121-0.846-4.155-2.345-5.655s-3.533-2.343-5.654-2.345c-0.354 0-0.693 0.14-0.943 0.391s-0.391 0.589-0.391 0.943c0 0.354 0.14 0.693 0.391 0.943s0.589 0.391 0.943 0.391zM30.79 22.319c0.773 0.775 1.207 1.824 1.207 2.919s-0.434 2.144-1.207 2.919l-1.213 1.399c-10.92 10.455-37.493-16.112-27.2-27.067l1.533-1.333c0.776-0.751 1.816-1.167 2.896-1.157s2.112 0.445 2.874 1.21c0.041 0.041 2.512 3.251 2.512 3.251 0.733 0.77 1.141 1.793 1.139 2.857s-0.413 2.085-1.149 2.853l-1.544 1.941c0.854 2.076 2.111 3.963 3.697 5.552s3.47 2.849 5.545 3.708l1.953-1.553c0.768-0.735 1.789-1.146 2.852-1.148s2.086 0.407 2.856 1.139c0 0 3.208 2.469 3.249 2.511zM28.956 24.258s-3.191-2.455-3.232-2.496c-0.275-0.272-0.646-0.425-1.033-0.425s-0.758 0.153-1.033 0.425c-0.036 0.037-2.725 2.18-2.725 2.18-0.181 0.144-0.397 0.239-0.626 0.274s-0.463 0.011-0.68-0.072c-2.687-1.001-5.128-2.567-7.158-4.593s-3.599-4.465-4.604-7.151c-0.089-0.219-0.118-0.459-0.084-0.693s0.13-0.455 0.277-0.64c0 0 2.143-2.691 2.179-2.725 0.272-0.275 0.425-0.646 0.425-1.033s-0.153-0.758-0.425-1.033c-0.041-0.040-2.496-3.233-2.496-3.233-0.279-0.25-0.643-0.384-1.017-0.374s-0.731 0.162-0.996 0.426l-1.533 1.333c-7.523 9.045 15.505 30.796 23.432 23.305l1.215-1.4c0.285-0.264 0.456-0.628 0.477-1.015s-0.109-0.768-0.363-1.061z"></path>
</symbol>
<symbol id="icon-Medal" viewBox="0 0 32 32">
<path fill="none" stroke-linejoin="round" stroke-linecap="round" stroke-miterlimit="4" stroke-width="1" d="M16 4.606v4M10.667 4.606v8M21.333 4.606v8M16 22.606l-4 2 0.667-4.667-2.667-2.667 4-0.667 2-4 2 4 4 0.667-2.667 2.667 0.667 4.667-4-2z"></path>
</symbol>
<symbol id="icon-Muscle" viewBox="0 0 32 32">
<path d="M24 12c-2.866 0-5.22 2.815-5.62 3.322-0.562-0.19-1.184-0.322-1.88-0.322-1.345 0-2.586 0.477-3.618 1.079 0.2-1.297 0.171-2.498 0.14-3.489-0.020-0.61-0.038-1.197 0.010-1.64l2.988-0.95v-1.034l1.98-0.788v-0.679c0-1.721-1.496-3.5-4-3.5-1.825 0-3.223 1.187-3.323 1.278-6.782 5.219-6.714 12.424-6.681 15.887l0.004 0.938c0.162 0.231 4.051 5.922 12 5.922s11.839-3.544 12-3.683v-11.597c-0.115-0.064-1.712-0.744-4-0.744zM26 23.381c-1.032 0.711-4.355 2.643-10 2.643-5.914 0-9.219-3.605-10.002-4.578-0.032-3.38-0.095-9.972 5.946-14.621 0.009-0.008 0.967-0.824 2.056-0.824 0.998 0 1.567 0.432 1.827 0.891l-1.808 0.719v0.929l-2.617 0.832-0.165 0.469c-0.279 0.788-0.249 1.728-0.215 2.815 0.051 1.625-0.022 3.846-1.053 5.848l1.535 1.282c0.023-0.027 2.369-2.784 4.995-2.784 2.065 0 3.381 1.683 3.394 1.7l1.597-1.204c-0.037-0.050-0.493-0.637-1.295-1.229 0.743-0.847 2.303-2.267 3.805-2.267 0.935 0 1.592 0.109 2 0.209v9.17z"></path>
</symbol>
<symbol id="icon-People" viewBox="0 0 32 32">
<path fill="none" stroke="#848996" style="stroke: var(--color1, #848996)" stroke-linejoin="round" stroke-linecap="round" stroke-miterlimit="4" stroke-width="2" d="M6.667 9.333c0 1.415 0.562 2.771 1.562 3.771s2.357 1.562 3.771 1.562c1.415 0 2.771-0.562 3.771-1.562s1.562-2.357 1.562-3.771-0.562-2.771-1.562-3.771c-1-1-2.357-1.562-3.771-1.562s-2.771 0.562-3.771 1.562-1.562 2.357-1.562 3.771zM4 28v-2.667c0-1.415 0.562-2.771 1.562-3.771s2.357-1.562 3.771-1.562h5.333c1.415 0 2.771 0.562 3.771 1.562s1.562 2.357 1.562 3.771v2.667M21.333 4.173c1.147 0.294 2.164 0.961 2.89 1.896s1.12 2.086 1.12 3.27c0 1.184-0.394 2.335-1.12 3.27s-1.743 1.603-2.89 1.896M28 28v-2.667c-0.007-1.177-0.403-2.319-1.126-3.247s-1.734-1.592-2.874-1.886"></path>
</symbol>
<symbol id="icon-Shield" viewBox="0 0 32 32">
<path d="M15.931 32.012l-0.472-0.209c-0.525-0.231-12.792-5.771-12.792-15.803v-8.699c0-0.837 0.265-1.653 0.756-2.331s1.183-1.184 1.979-1.445l10.599-3.513 10.599 3.513c0.795 0.262 1.488 0.767 1.979 1.445s0.755 1.494 0.756 2.331v8.699c0 11.436-12.384 15.673-12.912 15.849l-0.491 0.163zM16 2.808l-9.755 3.235c-0.265 0.087-0.497 0.255-0.66 0.481s-0.252 0.498-0.252 0.777v8.699c0 7.325 8.587 12.077 10.729 13.148 2.139-0.86 10.604-4.797 10.604-13.148v-8.699c0-0.279-0.088-0.551-0.252-0.777s-0.395-0.395-0.66-0.481l-9.755-3.235z"></path>
<path d="M14.814 19.389h-0.044c-0.338-0.005-0.67-0.079-0.979-0.216s-0.585-0.336-0.815-0.584l-3.075-3.2 1.921-1.843 2.992 3.12 6.908-6.908 1.885 1.885-7.015 7.015c-0.234 0.233-0.511 0.418-0.817 0.544s-0.633 0.189-0.963 0.187z"></path>
</symbol>
<symbol id="icon-Telegram" viewBox="0 0 32 32">
<path fill="none" stroke-linejoin="round" stroke-linecap="round" stroke-miterlimit="4" stroke-width="1.6" d="M15.98 20.544l4.323 4.915c1.6 1.82 2.401 2.731 3.24 2.508 0.837-0.221 1.125-1.419 1.7-3.815l3.187-13.291c0.887-3.691 1.329-5.535 0.345-6.445s-2.689-0.233-6.1 1.12l-15.821 6.284c-2.728 1.084-4.092 1.625-4.179 2.556-0.010 0.095-0.010 0.191 0 0.285 0.084 0.932 1.445 1.477 4.171 2.569 1.233 0.495 1.851 0.743 2.293 1.216 0.050 0.053 0.098 0.109 0.144 0.165 0.408 0.507 0.581 1.173 0.929 2.501l0.652 2.489c0.337 1.293 0.507 1.941 0.951 2.029s0.829-0.448 1.601-1.521l2.564-3.567zM15.98 20.544l-0.423-0.44c-0.483-0.504-0.724-0.755-0.724-1.067s0.24-0.564 0.724-1.067l4.764-4.965"></path>
</symbol>
<symbol id="icon-Tennis" viewBox="0 0 32 32">
<path d="M25.254 6.761c-1.716-1.658-3.977-2.635-6.361-2.75s-4.729 0.641-6.596 2.126c-0.405-0.65-0.97-1.185-1.641-1.555s-1.425-0.562-2.192-0.558c-0.766 0.004-1.519 0.204-2.186 0.581s-1.226 0.918-1.624 1.573c-0.398 0.654-0.622 1.399-0.651 2.164s0.14 1.525 0.489 2.207c0.349 0.682 0.866 1.263 1.503 1.688s1.373 0.68 2.137 0.741c-0.315 1.929-0.021 3.908 0.842 5.662 0.047 0.090 0.065 0.192 0.053 0.293s-0.055 0.195-0.123 0.271l-2.905 1.748c-0.739 0.389-1.327 1.014-1.67 1.775s-0.42 1.615-0.221 2.426c0.2 0.811 0.665 1.531 1.322 2.047s1.468 0.797 2.303 0.799c0.153 0 0.305-0.009 0.457-0.027 0.556-0.065 1.089-0.254 1.561-0.554s0.869-0.703 1.163-1.179l2.067-3.124c0.075-0.073 0.17-0.121 0.273-0.137s0.209 0.001 0.302 0.048c1.866 0.903 3.974 1.182 6.011 0.796s3.896-1.417 5.301-2.94c1.913-1.883 3.031-4.428 3.124-7.109 0.052-1.294-0.165-2.585-0.636-3.792s-1.187-2.303-2.102-3.22zM5.999 8.521c0-0.494 0.147-0.977 0.421-1.387s0.665-0.731 1.122-0.92c0.457-0.189 0.959-0.238 1.444-0.142s0.93 0.334 1.28 0.683c0.35 0.349 0.588 0.794 0.684 1.279s0.047 0.987-0.142 1.443c-0.189 0.456-0.509 0.846-0.921 1.121s-0.894 0.421-1.389 0.421c-0.663 0-1.299-0.263-1.767-0.731s-0.732-1.104-0.732-1.766zM14.436 21.233c-0.501-0.248-1.070-0.32-1.617-0.206s-1.040 0.409-1.399 0.837c-0.024 0.029-0.046 0.059-0.067 0.090l-2.126 3.215c-0.21 0.343-0.531 0.602-0.91 0.735s-0.793 0.13-1.17-0.007-0.696-0.4-0.902-0.745c-0.206-0.345-0.285-0.75-0.226-1.147 0.043-0.28 0.153-0.545 0.32-0.773s0.387-0.413 0.641-0.538l3.040-1.829c0.044-0.027 0.086-0.057 0.126-0.090 0.427-0.36 0.72-0.852 0.833-1.399s0.039-1.115-0.211-1.614c-0.653-1.317-0.894-2.799-0.693-4.255l8.431 8.424c-1.396 0.163-2.809-0.079-4.070-0.698zM23.455 19.47c-0.785 0.787-1.712 1.419-2.731 1.863-0.009-0.010-0.012-0.023-0.022-0.033l-9.344-9.338c0.51-0.417 0.922-0.942 1.205-1.537s0.432-1.245 0.434-1.904c0-0.119-0.026-0.231-0.035-0.347 1.48-1.369 3.423-2.129 5.439-2.129s3.959 0.76 5.439 2.129c0.722 0.725 1.286 1.592 1.656 2.546s0.539 1.973 0.496 2.995c-0.078 2.172-0.987 4.232-2.538 5.755z"></path>
</symbol>
<symbol id="icon-Arrow" viewBox="0 0 32 32">
<path d="M24 20.667c-0.175 0.001-0.349-0.033-0.512-0.099s-0.31-0.164-0.435-0.288l-6.107-6.12c-0.124-0.125-0.271-0.224-0.434-0.292s-0.337-0.103-0.513-0.103-0.35 0.035-0.513 0.103c-0.162 0.068-0.31 0.167-0.434 0.292l-6.107 6.12c-0.251 0.251-0.592 0.392-0.947 0.392s-0.696-0.141-0.947-0.392c-0.251-0.251-0.392-0.592-0.392-0.947 0-0.176 0.035-0.35 0.102-0.512s0.166-0.31 0.29-0.434l6.12-6.107c0.76-0.73 1.773-1.138 2.827-1.138s2.067 0.408 2.827 1.138l6.12 6.107c0.125 0.124 0.224 0.271 0.292 0.434s0.103 0.337 0.103 0.513-0.035 0.35-0.103 0.513c-0.068 0.163-0.167 0.31-0.292 0.434s-0.272 0.221-0.435 0.288-0.336 0.1-0.512 0.099z"></path>
</symbol>
<symbol id="icon-Viber" viewBox="0 0 32 32">
<path d="M10.62 8.269c-0.248-0.036-0.501 0.014-0.716 0.141h-0.019c-0.5 0.293-0.951 0.663-1.335 1.097-0.32 0.369-0.493 0.743-0.539 1.103-0.027 0.213-0.008 0.429 0.055 0.633l0.024 0.013c0.36 1.057 0.829 2.075 1.403 3.032 0.74 1.344 1.649 2.588 2.707 3.7l0.032 0.045 0.051 0.037 0.031 0.036 0.037 0.032c1.116 1.060 2.362 1.974 3.709 2.72 1.54 0.839 2.475 1.235 3.036 1.4v0.008c0.164 0.051 0.313 0.073 0.464 0.073 0.478-0.034 0.931-0.229 1.285-0.552 0.433-0.384 0.8-0.836 1.085-1.339v-0.009c0.268-0.507 0.177-0.984-0.209-1.308-0.776-0.679-1.616-1.282-2.508-1.8-0.597-0.324-1.204-0.128-1.449 0.2l-0.524 0.661c-0.269 0.328-0.757 0.283-0.757 0.283l-0.013 0.008c-3.641-0.929-4.613-4.616-4.613-4.616s-0.045-0.501 0.292-0.757l0.656-0.528c0.315-0.256 0.533-0.861 0.196-1.459-0.517-0.891-1.118-1.731-1.796-2.507-0.148-0.182-0.356-0.306-0.587-0.351zM16.773 6.667c-0.177 0-0.346 0.070-0.471 0.195s-0.195 0.295-0.195 0.471 0.070 0.346 0.195 0.471c0.125 0.125 0.295 0.195 0.471 0.195 1.685 0 3.085 0.551 4.193 1.607 0.569 0.577 1.013 1.261 1.304 2.011 0.292 0.751 0.425 1.552 0.391 2.355-0.007 0.177 0.056 0.349 0.175 0.48s0.286 0.208 0.463 0.215c0.177 0.007 0.349-0.056 0.48-0.175s0.208-0.286 0.215-0.463c0.040-0.987-0.124-1.972-0.481-2.893-0.359-0.926-0.905-1.768-1.605-2.472l-0.013-0.013c-1.375-1.313-3.113-1.983-5.121-1.983z"></path>
<path d="M16.727 8.859c-0.177 0-0.346 0.070-0.471 0.195s-0.195 0.295-0.195 0.471 0.070 0.346 0.195 0.471c0.125 0.125 0.295 0.195 0.471 0.195h0.023c1.216 0.087 2.101 0.492 2.721 1.157 0.636 0.685 0.965 1.537 0.94 2.591-0.004 0.177 0.062 0.348 0.184 0.476s0.29 0.202 0.467 0.206c0.177 0.004 0.348-0.062 0.476-0.184s0.202-0.29 0.206-0.467c0.032-1.383-0.413-2.576-1.296-3.528v-0.003c-0.903-0.968-2.141-1.48-3.632-1.58l-0.023-0.003-0.067 0.001z"></path>
<path d="M16.701 11.092c-0.089-0.008-0.179 0.002-0.264 0.030s-0.164 0.072-0.232 0.131-0.123 0.13-0.162 0.211c-0.039 0.081-0.062 0.168-0.067 0.258s0.009 0.179 0.039 0.263 0.078 0.161 0.139 0.227c0.061 0.065 0.135 0.118 0.217 0.154s0.17 0.056 0.26 0.057c0.557 0.029 0.913 0.197 1.137 0.423 0.225 0.227 0.393 0.591 0.424 1.16 0.002 0.089 0.021 0.178 0.058 0.259s0.089 0.155 0.155 0.216c0.066 0.061 0.143 0.108 0.227 0.139s0.173 0.044 0.263 0.039c0.089-0.005 0.177-0.027 0.257-0.067s0.152-0.094 0.211-0.162 0.103-0.146 0.131-0.231c0.028-0.085 0.038-0.175 0.030-0.264-0.043-0.8-0.293-1.507-0.807-2.027-0.516-0.52-1.219-0.773-2.016-0.816z"></path>
<path d="M9.423 3.179c4.243-0.948 8.643-0.948 12.885 0l0.452 0.1c1.24 0.278 2.379 0.894 3.29 1.78s1.559 2.006 1.873 3.238c1.078 4.244 1.078 8.69 0 12.933-0.313 1.231-0.961 2.352-1.873 3.238s-2.050 1.502-3.29 1.78l-0.453 0.1c-2.657 0.593-5.384 0.817-8.103 0.665l-3.537 3.165c-0.133 0.119-0.296 0.201-0.472 0.236s-0.357 0.022-0.526-0.037c-0.169-0.059-0.319-0.163-0.434-0.3s-0.192-0.302-0.221-0.479l-0.585-3.496c-1.122-0.35-2.136-0.981-2.945-1.834s-1.386-1.899-1.675-3.038c-1.078-4.244-1.078-8.69 0-12.933 0.313-1.232 0.961-2.352 1.873-3.238s2.050-1.502 3.29-1.78l0.452-0.1zM21.872 5.129c-3.956-0.884-8.058-0.884-12.013 0l-0.453 0.101c-0.879 0.198-1.686 0.634-2.331 1.262s-1.105 1.422-1.327 2.295c-0.996 3.921-0.996 8.028 0 11.949 0.222 0.873 0.682 1.667 1.328 2.295s1.453 1.065 2.332 1.262l0.12 0.027c0.194 0.043 0.371 0.144 0.508 0.288s0.227 0.326 0.26 0.523l0.392 2.344 2.496-2.233c0.1-0.089 0.216-0.158 0.343-0.202s0.261-0.061 0.394-0.052c2.665 0.188 5.344-0.012 7.952-0.593l0.452-0.101c0.879-0.197 1.686-0.634 2.332-1.262s1.106-1.422 1.328-2.295c0.995-3.92 0.995-8.028 0-11.949-0.222-0.873-0.682-1.667-1.328-2.295s-1.453-1.065-2.332-1.262l-0.452-0.101z"></path>
</symbol>
<symbol id="icon-Menu" viewBox="0 0 32 32">
<path fill="#384654" style="fill: var(--color1, #384654)" d="M30.667 14.666h-29.333c-0.736 0-1.333 0.597-1.333 1.333s0.597 1.333 1.333 1.333h29.333c0.736 0 1.333-0.597 1.333-1.333s-0.597-1.333-1.333-1.333zM30.667 5.334h-29.333c-0.736 0-1.333 0.597-1.333 1.333s0.597 1.333 1.333 1.333h29.333c0.736 0 1.333-0.597 1.333-1.333s-0.597-1.333-1.333-1.333zM30.667 24h-29.333c-0.736 0-1.333 0.597-1.333 1.333s0.597 1.333 1.333 1.333h29.333c0.736 0 1.333-0.597 1.333-1.333s-0.597-1.333-1.333-1.333z"></path>
</symbol>
<symbol id="icon-Close" viewBox="0 0 32 32">
<path fill="#384654" style="fill: var(--color1, #384654)" d="M24 8c-0.25-0.25-0.589-0.39-0.943-0.39s-0.693 0.14-0.943 0.39l-6.115 6.115-6.115-6.115c-0.25-0.25-0.589-0.39-0.943-0.39s-0.693 0.14-0.943 0.39c-0.25 0.25-0.39 0.589-0.39 0.943s0.14 0.693 0.39 0.943l6.115 6.115-6.115 6.115c-0.25 0.25-0.39 0.589-0.39 0.943s0.14 0.693 0.39 0.943c0.25 0.25 0.589 0.39 0.943 0.39s0.693-0.14 0.943-0.39l6.115-6.115 6.115 6.115c0.25 0.25 0.589 0.39 0.943 0.39s0.693-0.14 0.943-0.39 0.39-0.589 0.39-0.943c0-0.354-0.14-0.693-0.39-0.943l-6.115-6.115 6.115-6.115c0.25-0.25 0.39-0.589 0.39-0.943s-0.14-0.693-0.39-0.943z"></path>
</symbol>
</defs>
</svg>
