<svg aria-hidden="true" style="position: absolute; width: 0; height: 0; overflow: hidden;" version="1.1" xmlns="http://www.w3.org/2000/svg" xmlns:xlink="http://www.w3.org/1999/xlink">
<defs>
<symbol id="icon-Brain" viewBox="0 0 32 32">
<path fill="#848996" style="fill: var(--color1, #848996)" d="M28 15c0-1.568-0.752-3.040-2-3.979v-0.021c-0.001-0.904-0.308-1.782-0.872-2.49s-1.349-1.204-2.23-1.408c-0.204-0.881-0.701-1.667-1.409-2.23s-1.585-0.87-2.489-0.872c-0.568-0-1.129 0.121-1.646 0.355s-0.979 0.576-1.354 1.002c-0.375-0.427-0.836-0.768-1.353-1.002s-1.079-0.355-1.647-0.355c-0.904 0.001-1.782 0.308-2.49 0.872s-1.204 1.349-1.408 2.23c-0.881 0.204-1.667 0.701-2.23 1.409s-0.87 1.585-0.872 2.489v0.021c-0.619 0.463-1.121 1.063-1.468 1.754s-0.529 1.452-0.532 2.225c0 0.886 0.235 1.737 0.686 2.5-0.449 0.756-0.686 1.62-0.686 2.5 0 1.686 0.858 3.244 2.267 4.166 0.349 1.114 1.045 2.087 1.986 2.777s2.079 1.060 3.247 1.057c0.883-0 1.753-0.213 2.536-0.621s1.457-0.998 1.964-1.721c0.507 0.723 1.18 1.313 1.964 1.721s1.653 0.621 2.536 0.621c1.167 0.004 2.305-0.367 3.247-1.057s1.638-1.663 1.986-2.777c0.694-0.451 1.265-1.068 1.661-1.796s0.604-1.542 0.606-2.37c0.001-0.88-0.236-1.744-0.686-2.5 0.449-0.756 0.686-1.62 0.686-2.5zM11.5 26c-0.791 0.002-1.559-0.265-2.177-0.759s-1.050-1.182-1.224-1.953c-0.032-0.139-0.094-0.269-0.18-0.382s-0.196-0.206-0.322-0.274c-0.48-0.253-0.881-0.631-1.163-1.094s-0.431-0.995-0.434-1.537c0-0.675 0.234-1.322 0.679-1.872 0.144-0.178 0.222-0.4 0.222-0.628s-0.078-0.451-0.222-0.629c-0.436-0.527-0.676-1.188-0.679-1.872 0-1.070 0.591-2.067 1.543-2.603 0.181-0.101 0.325-0.257 0.413-0.444s0.117-0.397 0.081-0.601c-0.023-0.116-0.035-0.234-0.037-0.352 0-1.103 0.897-2 2-2 0.265 0 0.52-0.105 0.707-0.293s0.293-0.442 0.293-0.707c0-1.103 0.897-2 2-2s2 0.897 2 2v4h-2.268c-0.22-0.382-0.559-0.681-0.966-0.85s-0.858-0.199-1.284-0.085c-0.426 0.114-0.802 0.366-1.070 0.715s-0.413 0.778-0.412 1.219c0 0.44 0.145 0.868 0.413 1.217s0.644 0.6 1.069 0.714c0.425 0.114 0.876 0.084 1.283-0.084s0.747-0.467 0.967-0.848h2.268v5h-2.268c-0.22-0.382-0.559-0.681-0.966-0.85s-0.858-0.199-1.284-0.085c-0.426 0.114-0.802 0.366-1.070 0.715s-0.413 0.778-0.412 1.219c0 0.44 0.145 0.868 0.413 1.217s0.644 0.6 1.069 0.714c0.425 0.114 0.876 0.084 1.283-0.084s0.747-0.467 0.967-0.848h2.268v1.5c0 1.93-1.57 3.5-3.5 3.5zM25.321 18.128c0.444 0.549 0.679 1.196 0.679 1.872-0.002 0.542-0.152 1.073-0.434 1.537s-0.683 0.842-1.163 1.094c-0.125 0.067-0.235 0.161-0.322 0.274s-0.148 0.243-0.18 0.382c-0.174 0.771-0.606 1.46-1.224 1.953s-1.386 0.761-2.177 0.759c-1.93 0-3.5-1.57-3.5-3.5v-4.5h2c1.654 0 3-1.346 3-3v-0.268c0.382-0.22 0.681-0.559 0.85-0.966s0.199-0.858 0.085-1.284-0.366-0.802-0.715-1.070c-0.35-0.268-0.778-0.413-1.219-0.412s-0.868 0.145-1.217 0.413c-0.349 0.268-0.6 0.644-0.714 1.069s-0.084 0.876 0.084 1.283c0.169 0.407 0.467 0.747 0.848 0.967v0.268c0 0.551-0.448 1-1 1h-2v-7.999c0-1.103 0.897-2 2-2s2 0.897 2 2c0 0.265 0.105 0.52 0.293 0.707s0.442 0.293 0.707 0.293c1.103 0 2 0.897 2 2 0 0.121-0.018 0.237-0.037 0.352-0.036 0.204-0.008 0.414 0.081 0.601s0.233 0.342 0.413 0.444c0.465 0.258 0.853 0.635 1.124 1.093s0.416 0.979 0.419 1.51c0 0.675-0.234 1.322-0.679 1.872-0.144 0.178-0.222 0.4-0.222 0.629s0.078 0.45 0.222 0.627z"></path>
</symbol>
<symbol id="icon-Cup" viewBox="0 0 32 32">
<path fill="none" stroke="#848996" style="stroke: var(--color1, #848996)" stroke-linejoin="round" stroke-linecap="round" stroke-miterlimit="4" stroke-width="2" d="M16.2 22v2.8"></path>
<path fill="none" stroke="#848996" style="stroke: var(--color1, #848996)" stroke-linejoin="miter" stroke-linecap="butt" stroke-miterlimit="10" stroke-width="2" d="M9.533 29.333h13.333v-1.333c0-1.467-1.2-2.667-2.667-2.667h-8c-1.467 0-2.667 1.2-2.667 2.667v1.333z"></path>
<path fill="none" stroke="#848996" style="stroke: var(--color1, #848996)" stroke-linejoin="round" stroke-linecap="round" stroke-miterlimit="4" stroke-width="2" d="M8.2 29.333h16M16 21.333c-5.16 0-9.333-4.173-9.333-9.333v-4c0-2.947 2.387-5.333 5.333-5.333h8c2.947 0 5.333 2.387 5.333 5.333v4c0 5.16-4.173 9.333-9.333 9.333z"></path>
<path fill="none" stroke="#848996" style="stroke: var(--color1, #848996)" stroke-linejoin="round" stroke-linecap="round" stroke-miterlimit="4" stroke-width="2" d="M7.293 15.533c-1-0.32-1.88-0.907-2.573-1.6-1.2-1.333-2-2.933-2-4.8s1.467-3.333 3.333-3.333h0.867c-0.267 0.613-0.4 1.293-0.4 2v4c0 1.333 0.28 2.587 0.773 3.733zM24.706 15.533c1-0.32 1.88-0.907 2.573-1.6 1.2-1.333 2-2.933 2-4.8s-1.467-3.333-3.333-3.333h-0.867c0.267 0.613 0.4 1.293 0.4 2v4c0 1.333-0.28 2.587-0.773 3.733z"></path>
</symbol>
<symbol id="icon-Phone" viewBox="0 0 32 32">
<path d="M17.333 1.333c0-0.354 0.14-0.693 0.391-0.943s0.589-0.391 0.943-0.391c3.535 0.004 6.924 1.41 9.424 3.91s3.906 5.889 3.91 9.424c0 0.354-0.14 0.693-0.391 0.943s-0.589 0.391-0.943 0.391c-0.354 0-0.693-0.14-0.943-0.391s-0.39-0.589-0.39-0.943c-0.003-2.828-1.128-5.539-3.128-7.539s-4.711-3.125-7.539-3.128c-0.354 0-0.693-0.14-0.943-0.391s-0.391-0.589-0.391-0.943zM18.666 8c1.415 0 2.771 0.562 3.771 1.562s1.562 2.357 1.562 3.771c0 0.354 0.14 0.693 0.391 0.943s0.589 0.391 0.943 0.391 0.693-0.14 0.943-0.391 0.39-0.589 0.39-0.943c-0.002-2.121-0.846-4.155-2.345-5.655s-3.533-2.343-5.654-2.345c-0.354 0-0.693 0.14-0.943 0.391s-0.391 0.589-0.391 0.943c0 0.354 0.14 0.693 0.391 0.943s0.589 0.391 0.943 0.391zM30.79 22.319c0.773 0.775 1.207 1.824 1.207 2.919s-0.434 2.144-1.207 2.919l-1.213 1.399c-10.92 10.455-37.493-16.112-27.2-27.067l1.533-1.333c0.776-0.751 1.816-1.167 2.896-1.157s2.112 0.445 2.874 1.21c0.041 0.041 2.512 3.251 2.512 3.251 0.733 0.77 1.141 1.793 1.139 2.857s-0.413 2.085-1.149 2.853l-1.544 1.941c0.854 2.076 2.111 3.963 3.697 5.552s3.47 2.849 5.545 3.708l1.953-1.553c0.768-0.735 1.789-1.146 2.852-1.148s2.086 0.407 2.856 1.139c0 0 3.208 2.469 3.249 2.511zM28.956 24.258s-3.191-2.455-3.232-2.496c-0.275-0.272-0.646-0.425-1.033-0.425s-0.758 0.153-1.033 0.425c-0.036 0.037-2.725 2.18-2.725 2.18-0.181 0.144-0.397 0.239-0.626 0.274s-0.463 0.011-0.68-0.072c-2.687-1.001-5.128-2.567-7.158-4.593s-3.599-4.465-4.604-7.151c-0.089-0.219-0.118-0.459-0.084-0.693s0.13-0.455 0.277-0.64c0 0 2.143-2.691 2.179-2.725 0.272-0.275 0.425-0.646 0.425-1.033s-0.153-0.758-0.425-1.033c-0.041-0.040-2.496-3.233-2.496-3.233-0.279-0.25-0.643-0.384-1.017-0.374s-0.731 0.162-0.996 0.426l-1.533 1.333c-7.523 9.045 15.505 30.796 23.432 23.305l1.215-1.4c0.285-0.264 0.456-0.628 0.477-1.015s-0.109-0.768-0.363-1.061z"></path>
</symbol>
<symbol id="icon-Medal" viewBox="0 0 32 32">
<path fill="none" stroke="#848996" style="stroke: var(--color1, #848996)" stroke-linejoin="round" stroke-linecap="round" stroke-miterlimit="4" stroke-width="2" d="M16 4.606v4M10.667 4.606v8M21.333 4.606v8M16 22.606l-4 2 0.667-4.667-2.667-2.667 4-0.667 2-4 2 4 4 0.667-2.667 2.667 0.667 4.667-4-2z"></path>
</symbol>
<symbol id="icon-Muscle" viewBox="0 0 32 32">
<path fill="#848996" style="fill: var(--color1, #848996)" d="M24 12c-2.866 0-5.22 2.815-5.62 3.322-0.562-0.19-1.184-0.322-1.88-0.322-1.345 0-2.586 0.477-3.618 1.079 0.2-1.297 0.171-2.498 0.14-3.489-0.020-0.61-0.038-1.197 0.010-1.64l2.988-0.95v-1.034l1.98-0.788v-0.679c0-1.721-1.496-3.5-4-3.5-1.825 0-3.223 1.187-3.323 1.278-6.782 5.219-6.714 12.424-6.681 15.887l0.004 0.938c0.162 0.231 4.051 5.922 12 5.922s11.839-3.544 12-3.683v-11.597c-0.115-0.064-1.712-0.744-4-0.744zM26 23.381c-1.032 0.711-4.355 2.643-10 2.643-5.914 0-9.219-3.605-10.002-4.578-0.032-3.38-0.095-9.972 5.946-14.621 0.009-0.008 0.967-0.824 2.056-0.824 0.998 0 1.567 0.432 1.827 0.891l-1.808 0.719v0.929l-2.617 0.832-0.165 0.469c-0.279 0.788-0.249 1.728-0.215 2.815 0.051 1.625-0.022 3.846-1.053 5.848l1.535 1.282c0.023-0.027 2.369-2.784 4.995-2.784 2.065 0 3.381 1.683 3.394 1.7l1.597-1.204c-0.037-0.050-0.493-0.637-1.295-1.229 0.743-0.847 2.303-2.267 3.805-2.267 0.935 0 1.592 0.109 2 0.209v9.17z"></path>
</symbol>
<symbol id="icon-People" viewBox="0 0 32 32">
<path fill="none" stroke="#848996" style="stroke: var(--color1, #848996)" stroke-linejoin="round" stroke-linecap="round" stroke-miterlimit="4" stroke-width="2" d="M6.667 9.333c0 1.415 0.562 2.771 1.562 3.771s2.357 1.562 3.771 1.562c1.415 0 2.771-0.562 3.771-1.562s1.562-2.357 1.562-3.771-0.562-2.771-1.562-3.771c-1-1-2.357-1.562-3.771-1.562s-2.771 0.562-3.771 1.562-1.562 2.357-1.562 3.771zM4 28v-2.667c0-1.415 0.562-2.771 1.562-3.771s2.357-1.562 3.771-1.562h5.333c1.415 0 2.771 0.562 3.771 1.562s1.562 2.357 1.562 3.771v2.667M21.333 4.173c1.147 0.294 2.164 0.961 2.89 1.896s1.12 2.086 1.12 3.27c0 1.184-0.394 2.335-1.12 3.27s-1.743 1.603-2.89 1.896M28 28v-2.667c-0.007-1.177-0.403-2.319-1.126-3.247s-1.734-1.592-2.874-1.886"></path>
</symbol>
<symbol id="icon-Shield" viewBox="0 0 32 32">
<path fill="#848996" style="fill: var(--color1, #848996)" d="M15.931 32.012l-0.472-0.209c-0.525-0.231-12.792-5.771-12.792-15.803v-8.699c0-0.837 0.265-1.653 0.756-2.331s1.183-1.184 1.979-1.445l10.599-3.513 10.599 3.513c0.795 0.262 1.488 0.767 1.979 1.445s0.755 1.494 0.756 2.331v8.699c0 11.436-12.384 15.673-12.912 15.849l-0.491 0.163zM16 2.808l-9.755 3.235c-0.265 0.087-0.497 0.255-0.66 0.481s-0.252 0.498-0.252 0.777v8.699c0 7.325 8.587 12.077 10.729 13.148 2.139-0.86 10.604-4.797 10.604-13.148v-8.699c0-0.279-0.088-0.551-0.252-0.777s-0.395-0.395-0.66-0.481l-9.755-3.235z"></path>
<path fill="#848996" style="fill: var(--color1, #848996)" d="M14.814 19.389h-0.044c-0.338-0.005-0.67-0.079-0.979-0.216s-0.585-0.336-0.815-0.584l-3.075-3.2 1.921-1.843 2.992 3.12 6.908-6.908 1.885 1.885-7.015 7.015c-0.234 0.233-0.511 0.418-0.817 0.544s-0.633 0.189-0.963 0.187z"></path>
</symbol>
<symbol id="icon-Telegram" viewBox="0 0 32 32">
<path fill="none" stroke-linejoin="round" stroke-linecap="round" stroke-miterlimit="4" stroke-width="1.6" d="M15.98 20.544l4.323 4.915c1.6 1.82 2.401 2.731 3.24 2.508 0.837-0.221 1.125-1.419 1.7-3.815l3.187-13.291c0.887-3.691 1.329-5.535 0.345-6.445s-2.689-0.233-6.1 1.12l-15.821 6.284c-2.728 1.084-4.092 1.625-4.179 2.556-0.010 0.095-0.010 0.191 0 0.285 0.084 0.932 1.445 1.477 4.171 2.569 1.233 0.495 1.851 0.743 2.293 1.216 0.050 0.053 0.098 0.109 0.144 0.165 0.408 0.507 0.581 1.173 0.929 2.501l0.652 2.489c0.337 1.293 0.507 1.941 0.951 2.029s0.829-0.448 1.601-1.521l2.564-3.567zM15.98 20.544l-0.423-0.44c-0.483-0.504-0.724-0.755-0.724-1.067s0.24-0.564 0.724-1.067l4.764-4.965"></path>
</symbol>
<symbol id="icon-Tennis" viewBox="0 0 32 32">
<path fill="#848996" style="fill: var(--color1, #848996)" d="M25.254 6.761c-1.716-1.658-3.977-2.635-6.361-2.75s-4.729 0.641-6.596 2.126c-0.405-0.65-0.97-1.185-1.641-1.555s-1.425-0.562-2.192-0.558c-0.766 0.004-1.519 0.204-2.186 0.581s-1.226 0.918-1.624 1.573c-0.398 0.654-0.622 1.399-0.651 2.164s0.14 1.525 0.489 2.207c0.349 0.682 0.866 1.263 1.503 1.688s1.373 0.68 2.137 0.741c-0.315 1.929-0.021 3.908 0.842 5.662 0.047 0.090 0.065 0.192 0.053 0.293s-0.055 0.195-0.123 0.271l-2.905 1.748c-0.739 0.389-1.327 1.014-1.67 1.775s-0.42 1.615-0.221 2.426c0.2 0.811 0.665 1.531 1.322 2.047s1.468 0.797 2.303 0.799c0.153 0 0.305-0.009 0.457-0.027 0.556-0.065 1.089-0.254 1.561-0.554s0.869-0.703 1.163-1.179l2.067-3.124c0.075-0.073 0.17-0.121 0.273-0.137s0.209 0.001 0.302 0.048c1.866 0.903 3.974 1.182 6.011 0.796s3.896-1.417 5.301-2.94c1.913-1.883 3.031-4.428 3.124-7.109 0.052-1.294-0.165-2.585-0.636-3.792s-1.187-2.303-2.102-3.22zM5.999 8.521c0-0.494 0.147-0.977 0.421-1.387s0.665-0.731 1.122-0.92c0.457-0.189 0.959-0.238 1.444-0.142s0.93 0.334 1.28 0.683c0.35 0.349 0.588 0.794 0.684 1.279s0.047 0.987-0.142 1.443c-0.189 0.456-0.509 0.846-0.921 1.121s-0.894 0.421-1.389 0.421c-0.663 0-1.299-0.263-1.767-0.731s-0.732-1.104-0.732-1.766zM14.436 21.233c-0.501-0.248-1.070-0.32-1.617-0.206s-1.040 0.409-1.399 0.837c-0.024 0.029-0.046 0.059-0.067 0.090l-2.126 3.215c-0.21 0.343-0.531 0.602-0.91 0.735s-0.793 0.13-1.17-0.007-0.696-0.4-0.902-0.745c-0.206-0.345-0.285-0.75-0.226-1.147 0.043-0.28 0.153-0.545 0.32-0.773s0.387-0.413 0.641-0.538l3.040-1.829c0.044-0.027 0.086-0.057 0.126-0.090 0.427-0.36 0.72-0.852 0.833-1.399s0.039-1.115-0.211-1.614c-0.653-1.317-0.894-2.799-0.693-4.255l8.431 8.424c-1.396 0.163-2.809-0.079-4.070-0.698zM23.455 19.47c-0.785 0.787-1.712 1.419-2.731 1.863-0.009-0.010-0.012-0.023-0.022-0.033l-9.344-9.338c0.51-0.417 0.922-0.942 1.205-1.537s0.432-1.245 0.434-1.904c0-0.119-0.026-0.231-0.035-0.347 1.48-1.369 3.423-2.129 5.439-2.129s3.959 0.76 5.439 2.129c0.722 0.725 1.286 1.592 1.656 2.546s0.539 1.973 0.496 2.995c-0.078 2.172-0.987 4.232-2.538 5.755z"></path>
</symbol>
<symbol id="icon-Viber" viewBox="0 0 32 32">
<path d="M10.62 8.269c-0.248-0.036-0.501 0.014-0.716 0.141h-0.019c-0.5 0.293-0.951 0.663-1.335 1.097-0.32 0.369-0.493 0.743-0.539 1.103-0.027 0.213-0.008 0.429 0.055 0.633l0.024 0.013c0.36 1.057 0.829 2.075 1.403 3.032 0.74 1.344 1.649 2.588 2.707 3.7l0.032 0.045 0.051 0.037 0.031 0.036 0.037 0.032c1.116 1.060 2.362 1.974 3.709 2.72 1.54 0.839 2.475 1.235 3.036 1.4v0.008c0.164 0.051 0.313 0.073 0.464 0.073 0.478-0.034 0.931-0.229 1.285-0.552 0.433-0.384 0.8-0.836 1.085-1.339v-0.009c0.268-0.507 0.177-0.984-0.209-1.308-0.776-0.679-1.616-1.282-2.508-1.8-0.597-0.324-1.204-0.128-1.449 0.2l-0.524 0.661c-0.269 0.328-0.757 0.283-0.757 0.283l-0.013 0.008c-3.641-0.929-4.613-4.616-4.613-4.616s-0.045-0.501 0.292-0.757l0.656-0.528c0.315-0.256 0.533-0.861 0.196-1.459-0.517-0.891-1.118-1.731-1.796-2.507-0.148-0.182-0.356-0.306-0.587-0.351zM16.773 6.667c-0.177 0-0.346 0.070-0.471 0.195s-0.195 0.295-0.195 0.471 0.070 0.346 0.195 0.471c0.125 0.125 0.295 0.195 0.471 0.195 1.685 0 3.085 0.551 4.193 1.607 0.569 0.577 1.013 1.261 1.304 2.011 0.292 0.751 0.425 1.552 0.391 2.355-0.007 0.177 0.056 0.349 0.175 0.48s0.286 0.208 0.463 0.215c0.177 0.007 0.349-0.056 0.48-0.175s0.208-0.286 0.215-0.463c0.040-0.987-0.124-1.972-0.481-2.893-0.359-0.926-0.905-1.768-1.605-2.472l-0.013-0.013c-1.375-1.313-3.113-1.983-5.121-1.983z"></path>
<path d="M9.904 8.411v1.333h0.366l0.314-0.186-0.68-1.147zM9.885 8.411v-1.333h-0.362l-0.312 0.183 0.675 1.15zM8.551 9.508l-0.999-0.883-0.008 0.010 1.008 0.873zM8.012 10.611v0zM8.067 11.244l-1.275 0.392 0.158 0.513 0.469 0.261 0.648-1.166zM8.091 11.257l1.262-0.43-0.166-0.486-0.449-0.249-0.648 1.166zM9.493 14.289l1.168-0.643-0.012-0.021-0.013-0.021-1.144 0.685zM12.2 17.989l1.089-0.769-0.056-0.079-0.067-0.071-0.966 0.919zM12.232 18.035l-1.089 0.769 0.125 0.176 0.174 0.128 0.791-1.073zM12.283 18.072l1.015-0.865-0.1-0.117-0.124-0.091-0.791 1.073zM12.313 18.108l-1.015 0.865 0.068 0.080 0.079 0.068 0.868-1.012zM12.351 18.14l0.918-0.967-0.025-0.024-0.026-0.022-0.868 1.012zM16.060 20.86l-0.646 1.167 0.008 0.004 0.638-1.171zM19.096 22.26h1.333v-0.997l-0.957-0.282-0.377 1.279zM19.096 22.268h-1.333v0.984l0.94 0.29 0.394-1.274zM19.56 22.341v1.333h0.048l0.048-0.003-0.095-1.33zM20.845 21.789l-0.884-0.998-0.007 0.006-0.007 0.007 0.899 0.985zM21.931 20.451l1.16 0.658 0.174-0.306v-0.352h-1.333zM21.931 20.441l-1.179-0.623-0.155 0.293v0.331h1.333zM21.721 19.133l-0.878 1.003 0.011 0.009 0.011 0.009 0.856-1.022zM19.213 17.333l0.669-1.153-0.017-0.010-0.017-0.009-0.636 1.172zM17.764 17.533l1.045 0.828 0.011-0.015 0.011-0.015-1.068-0.799zM17.24 18.195l1.030 0.846 0.007-0.009 0.007-0.009-1.045-0.828zM16.483 18.477l0.123-1.328-0.435-0.040-0.374 0.225 0.686 1.143zM16.469 18.485l-0.33 1.292 0.539 0.138 0.477-0.286-0.686-1.143zM11.856 13.869l-1.328 0.12 0.010 0.111 0.029 0.108 1.289-0.34zM12.148 13.112l0.806 1.062 0.015-0.011 0.015-0.012-0.836-1.039zM12.804 12.584l0.836 1.039 0.005-0.004-0.841-1.034zM13 11.125l1.161-0.656-0.007-0.013-1.154 0.668zM11.204 8.619l-1.034 0.842 0.015 0.018 0.015 0.018 1.004-0.877zM20.967 9.607l0.949-0.936-0.015-0.015-0.015-0.014-0.92 0.965zM22.271 11.617l-1.243 0.482 0 0.001 1.243-0.483zM22.661 13.972l-1.332-0.057v0.001l1.332 0.056zM23.995 14.028l1.332 0.056 0-0.002-1.332-0.054zM23.513 11.135v0zM21.908 8.663l0.946-0.94-0.003-0.003-0.943 0.943zM21.895 8.649l0.943-0.943-0.011-0.011-0.011-0.011-0.921 0.964zM10.813 6.95c-0.55-0.081-1.111 0.030-1.589 0.314l1.36 2.294c-0.047 0.028-0.103 0.039-0.157 0.031l0.386-2.639zM9.904 7.077h-0.019v2.667h0.019v-2.667zM9.211 7.261c-0.62 0.364-1.18 0.823-1.659 1.365l1.998 1.766c0.289-0.327 0.63-0.607 1.010-0.83l-1.349-2.3zM7.543 8.635c-0.454 0.525-0.769 1.135-0.854 1.809l2.646 0.333c0.006-0.046 0.038-0.182 0.223-0.396l-2.015-1.746zM6.689 10.445c-0.050 0.399-0.015 0.805 0.103 1.19l2.549-0.783c-0.007-0.023-0.010-0.049-0.006-0.076l-2.646-0.331zM7.419 12.41l0.024 0.013 1.295-2.331-0.024-0.013-1.295 2.331zM6.829 11.687c0.39 1.145 0.899 2.248 1.521 3.287l2.288-1.37c-0.524-0.875-0.954-1.807-1.284-2.777l-2.524 0.86zM8.325 14.932c0.795 1.445 1.772 2.781 2.909 3.976l1.932-1.838c-0.978-1.029-1.82-2.18-2.505-3.424l-2.336 1.285zM11.111 18.758l0.032 0.045 2.179-1.538-0.032-0.045-2.179 1.538zM11.441 19.108l0.051 0.037 1.582-2.147-0.051-0.037-1.582 2.147zM11.268 18.937l0.031 0.036 2.030-1.729-0.031-0.036-2.030 1.729zM11.446 19.12l0.037 0.032 1.735-2.025-0.037-0.032-1.735 2.025zM11.432 19.107c1.198 1.138 2.536 2.12 3.982 2.92l1.291-2.333c-1.248-0.691-2.403-1.538-3.437-2.52l-1.837 1.933zM15.422 22.031c1.565 0.852 2.598 1.302 3.297 1.508l0.753-2.558c-0.424-0.125-1.26-0.467-2.775-1.292l-1.275 2.342zM17.763 22.26v0.008h2.667v-0.008h-2.667zM18.703 23.542c0.282 0.087 0.564 0.133 0.858 0.133v-2.667c-0.007 0-0.013-0-0.021-0.002s-0.024-0.004-0.050-0.012l-0.787 2.548zM19.655 23.671c0.777-0.056 1.513-0.372 2.089-0.897l-1.797-1.97c-0.133 0.121-0.303 0.194-0.482 0.207l0.191 2.66zM21.73 22.787c0.543-0.481 1.003-1.047 1.361-1.678l-2.319-1.317c-0.213 0.375-0.486 0.712-0.81 0.999l1.769 1.996zM23.264 20.451v-0.009h-2.667v0.009h2.667zM23.109 21.065c0.244-0.462 0.372-1.004 0.277-1.567-0.096-0.57-0.4-1.044-0.809-1.387l-1.713 2.044c-0.008-0.006-0.030-0.028-0.055-0.068s-0.044-0.092-0.054-0.147c-0.020-0.117 0.019-0.166-0.005-0.122l2.357 1.247zM22.6 18.13c-0.841-0.736-1.751-1.389-2.717-1.95l-1.339 2.306c0.818 0.475 1.588 1.027 2.299 1.65l1.757-2.006zM19.849 16.161c-1.126-0.611-2.476-0.332-3.153 0.573l2.135 1.597c-0.057 0.075-0.111 0.115-0.144 0.134-0.034 0.020-0.061 0.028-0.079 0.032-0.042 0.008-0.055-0.006-0.031 0.007l1.271-2.344zM16.719 16.705l-0.524 0.661 2.090 1.656 0.524-0.661-2.090-1.656zM16.21 17.349c0.141-0.171 0.296-0.198 0.301-0.199 0.013-0.002 0.022-0.003 0.029-0.003 0.005 0 0.012 0 0.022 0 0.005 0 0.011 0.001 0.019 0.001 0.004 0 0.008 0.001 0.012 0.001 0.002 0 0.004 0 0.007 0.001 0.001 0 0.002 0 0.004 0s0.001 0 0.002 0h0.001c0 0 0.001 0-0.122 1.328s-0.123 1.328-0.122 1.328h0.001c0.001 0 0.001 0 0.002 0s0.003 0 0.004 0 0.006 0.001 0.009 0.001 0.013 0.001 0.020 0.001 0.031 0.002 0.051 0.003c0.038 0.002 0.085 0.003 0.14 0.002 0.107-0.002 0.255-0.011 0.424-0.044 0.316-0.060 0.85-0.229 1.26-0.728l-2.061-1.692zM15.797 17.334l-0.013 0.008 1.372 2.287 0.013-0.008-1.372-2.287zM16.799 17.193c-1.411-0.36-2.319-1.251-2.896-2.109-0.288-0.429-0.484-0.835-0.605-1.132-0.060-0.147-0.102-0.264-0.126-0.339-0.012-0.038-0.020-0.064-0.025-0.079-0.002-0.007-0.003-0.012-0.004-0.013s-0-0 0 0.001c0 0.001 0 0.001 0.001 0.002s0 0.001 0 0.002 0 0.001 0 0.001 0 0.001-1.289 0.341-1.289 0.341-1.289 0.341 0 0.001 0 0.001 0 0.002 0.001 0.003 0.001 0.004 0.002 0.006 0.003 0.010 0.005 0.017 0.008 0.030 0.014 0.050c0.012 0.040 0.028 0.093 0.049 0.158 0.043 0.13 0.106 0.308 0.193 0.521 0.174 0.424 0.45 0.997 0.859 1.606 0.819 1.218 2.218 2.635 4.449 3.204l0.659-2.584zM11.856 13.869c1.328-0.12 1.328-0.12 1.328-0.119s0 0.001 0 0.001 0 0.001 0 0.002 0 0.002 0 0.003 0 0.005 0.001 0.007 0.001 0.008 0.001 0.012 0.001 0.013 0.001 0.018 0 0.017 0 0.021c-0 0.006-0.001 0.015-0.003 0.029-0.001 0.004-0.032 0.181-0.23 0.331l-1.612-2.124c-0.535 0.406-0.713 0.962-0.775 1.28-0.034 0.172-0.044 0.322-0.046 0.43-0.001 0.055-0 0.103 0.001 0.141 0.001 0.019 0.002 0.036 0.003 0.051 0.001 0.007 0.001 0.014 0.001 0.020 0 0.003 0.001 0.006 0.001 0.009 0 0.001 0 0.003 0 0.004s0 0.001 0 0.002 0 0.001 0 0.001 0 0.001 1.328-0.119zM12.984 14.151l0.656-0.528-1.672-2.077-0.656 0.528 1.672 2.077zM13.646 13.618c0.798-0.649 1.185-1.962 0.515-3.149l-2.322 1.311c0.005 0.010 0.001 0.005-0.001-0.011-0.002-0.015-0.002-0.032 0.002-0.050 0.003-0.016 0.010-0.036 0.023-0.059 0.013-0.022 0.041-0.063 0.1-0.111l1.683 2.069zM14.154 10.457c-0.56-0.966-1.211-1.875-1.946-2.716l-2.008 1.755c0.621 0.711 1.173 1.481 1.646 2.298l2.307-1.337zM12.238 7.777c-0.346-0.425-0.831-0.715-1.369-0.818l-0.504 2.619c-0.077-0.015-0.146-0.056-0.196-0.117l2.068-1.684zM16.773 5.333c-0.53 0-1.039 0.211-1.414 0.586l1.886 1.886c-0.125 0.125-0.295 0.195-0.471 0.195v-2.667zM15.359 5.919c-0.375 0.375-0.586 0.884-0.586 1.414h2.667c0 0.177-0.070 0.346-0.195 0.471l-1.886-1.886zM14.773 7.333c0 0.53 0.211 1.039 0.586 1.414l1.886-1.886c0.125 0.125 0.195 0.295 0.195 0.471h-2.667zM15.359 8.748c0.375 0.375 0.884 0.586 1.414 0.586v-2.667c0.177 0 0.346 0.070 0.471 0.195l-1.886 1.886zM16.773 9.333c1.367 0 2.431 0.435 3.273 1.239l1.84-1.93c-1.373-1.309-3.11-1.975-5.113-1.975v2.667zM20.017 10.543c0.443 0.449 0.786 0.979 1.010 1.557l2.486-0.964c-0.357-0.921-0.902-1.759-1.598-2.465l-1.899 1.872zM21.028 12.101c0.225 0.58 0.328 1.197 0.301 1.814l2.664 0.115c0.043-0.988-0.122-1.974-0.48-2.896l-2.485 0.967zM21.329 13.916c-0.022 0.53 0.167 1.047 0.526 1.438l1.963-1.805c0.12 0.13 0.183 0.302 0.175 0.479l-2.664-0.112zM21.855 15.354c0.359 0.391 0.859 0.623 1.389 0.645l0.112-2.664c0.176 0.007 0.343 0.085 0.462 0.215l-1.963 1.805zM23.244 15.999c0.53 0.022 1.047-0.167 1.438-0.526l-1.805-1.963c0.13-0.119 0.302-0.182 0.479-0.175l-0.112 2.664zM24.682 15.473c0.391-0.359 0.623-0.859 0.645-1.389l-2.664-0.112c0.007-0.176 0.085-0.343 0.215-0.462l1.805 1.963zM25.327 14.082c0.047-1.17-0.147-2.337-0.571-3.429l-2.486 0.964c0.291 0.751 0.425 1.553 0.392 2.357l2.665 0.107zM24.757 10.653c-0.425-1.097-1.073-2.095-1.903-2.93l-1.892 1.879c0.57 0.574 1.016 1.26 1.308 2.014l2.486-0.964zM22.851 7.72l-0.013-0.013-1.886 1.886 0.013 0.013 1.886-1.886zM22.816 7.685c-1.64-1.567-3.715-2.352-6.042-2.352v2.667c1.689 0 3.091 0.553 4.2 1.613l1.842-1.928z"></path>
<path stroke-linejoin="miter" stroke-linecap="butt" stroke-miterlimit="4" stroke-width="1.3333" d="M16.749 9.525h-0.016l0.031-0.001 0.007 0c1.315 0.088 2.355 0.521 3.113 1.29l0.052 0.056c-0.756-0.799-1.806-1.25-3.14-1.345l-0.024-0.002h-0.024zM21.077 13.955c0.004-0.168 0-0.332-0.012-0.492 0.012 0.16 0.016 0.324 0.012 0.492h-0zM17.769 12.845l0.473-0.47-1.541-1.283c-0.089-0.008-0.179 0.002-0.264 0.030s-0.164 0.072-0.232 0.131-0.123 0.13-0.162 0.211c-0.039 0.081-0.062 0.168-0.067 0.258s0.009 0.179 0.039 0.263 0.078 0.161 0.139 0.227c0.061 0.065 0.135 0.118 0.217 0.154s0.17 0.056 0.26 0.057c0.557 0.029 0.913 0.197 1.137 0.423zM17.769 12.845c0.225 0.227 0.393 0.591 0.424 1.16 0.002 0.089 0.021 0.178 0.058 0.259s0.089 0.155 0.155 0.216c0.066 0.061 0.143 0.108 0.227 0.139s0.173 0.044 0.263 0.039c0.089-0.005 0.177-0.027 0.257-0.067s0.152-0.094 0.211-0.162 0.103-0.146 0.131-0.231c0.028-0.085 0.038-0.175 0.030-0.264-0.043-0.8-0.293-1.507-0.807-2.027l-0.473 0.469c0.369 0.373 0.578 0.909 0.615 1.592v0.001l0.001 0.011-0.001 0-0.001-0.011v-0.001c-0.037-0.684-0.246-1.219-0.615-1.593-0.001-0.001-0.001-0.001-0.001-0.002l-0.473 0.47z"></path>
<path stroke-linejoin="miter" stroke-linecap="butt" stroke-miterlimit="4" stroke-width="1.3333" d="M9.568 3.829l-0.001 0-0.45 0.1c-0 0-0.001 0-0.001 0-1.119 0.251-2.147 0.807-2.97 1.607s-1.408 1.812-1.691 2.924l5.114-4.631zM9.568 3.829c4.147-0.927 8.447-0.927 12.594 0l0.001 0M9.568 3.829l12.596 0M22.164 3.83l0.45 0.1c0 0 0.001 0 0.001 0 1.119 0.251 2.147 0.807 2.97 1.607s1.408 1.812 1.691 2.924c1.051 4.136 1.051 8.469 0 12.605-0.283 1.112-0.868 2.124-1.691 2.924s-1.851 1.356-2.97 1.607c-0 0-0.001 0-0.001 0l-0.453 0.1M22.164 3.83l-0.003 21.866M22.161 25.696c-2.597 0.58-5.263 0.799-7.92 0.65l-0.276-0.015M22.161 25.696l-8.196 0.635M13.965 26.331l-0.206 0.184M13.965 26.331l-0.206 0.184M13.76 26.515l-3.537 3.165M13.76 26.515l-3.537 3.165M10.222 29.681c-0.044 0.040-0.099 0.067-0.157 0.079s-0.119 0.007-0.175-0.012c-0.056-0.020-0.106-0.054-0.145-0.1s-0.064-0.101-0.074-0.16v0M10.222 29.681l-0.551-0.193M9.671 29.487l-0.653-3.9M9.671 29.487l-0.653-3.9M9.018 25.587l-0.391-0.122M9.018 25.587l-0.391-0.122M8.627 25.465c-1.013-0.316-1.929-0.886-2.659-1.656M8.627 25.465l-2.659-1.656M5.967 23.809c-0.73-0.77-1.251-1.715-1.513-2.743l1.513 2.743zM22.018 4.479l-0-0c-4.051-0.906-8.253-0.906-12.304 0l-0.454 0.102c-0.999 0.225-1.916 0.721-2.65 1.435s-1.256 1.616-1.509 2.609l-0 0c-1.023 4.029-1.023 8.249 0 12.278l0 0c0.253 0.992 0.775 1.895 1.509 2.609s1.652 1.21 2.651 1.434l0.001 0 0.119 0.026c0.065 0.015 0.124 0.048 0.169 0.096s0.076 0.109 0.087 0.174l0.592 3.538 3.399-3.041c0.033-0.030 0.072-0.053 0.114-0.067s0.087-0.020 0.131-0.017c2.73 0.193 5.473-0.012 8.144-0.608l0.001-0 0.452-0.101c0.999-0.224 1.917-0.721 2.651-1.434s1.257-1.617 1.509-2.609l0-0.001c1.022-4.028 1.022-8.248 0-12.277l-0-0.001c-0.253-0.992-0.775-1.895-1.509-2.609s-1.652-1.21-2.651-1.434l-0-0-0.452-0.101zM4.454 21.065c-1.051-4.136-1.051-8.469 0-12.605v12.605z"></path>
</symbol>
<symbol id="icon-Menu" viewBox="0 0 32 32">
<path fill="#384654" style="fill: var(--color1, #384654)" d="M30.667 14.666h-29.333c-0.736 0-1.333 0.597-1.333 1.333s0.597 1.333 1.333 1.333h29.333c0.736 0 1.333-0.597 1.333-1.333s-0.597-1.333-1.333-1.333zM30.667 5.334h-29.333c-0.736 0-1.333 0.597-1.333 1.333s0.597 1.333 1.333 1.333h29.333c0.736 0 1.333-0.597 1.333-1.333s-0.597-1.333-1.333-1.333zM30.667 24h-29.333c-0.736 0-1.333 0.597-1.333 1.333s0.597 1.333 1.333 1.333h29.333c0.736 0 1.333-0.597 1.333-1.333s-0.597-1.333-1.333-1.333z"></path>
</symbol>
</defs>
</svg>
