<svg width="45" height="92" viewBox="0 0 45 92" fill="none" xmlns="http://www.w3.org/2000/svg">
<path d="M40.6989 91.6869C41.0783 91.8532 41.5206 91.6805 41.6869 91.3011L44.3967 85.1189C44.563 84.7395 44.3902 84.2972 44.0109 84.1309C43.6315 83.9646 43.1891 84.1373 43.0229 84.5167L40.6142 90.012L35.1189 87.6033C34.7395 87.437 34.2972 87.6098 34.1309 87.9891C33.9646 88.3685 34.1373 88.8109 34.5167 88.9771L40.6989 91.6869ZM6.31998 45.3478L7.02765 45.0994L6.31998 45.3478ZM2.76974 3.05935C2.54994 3.41044 2.65637 3.87323 3.00746 4.09303C3.35855 4.31282 3.82134 4.20639 4.04114 3.85531L2.76974 3.05935ZM1.99889 10.9668C2.04457 10.5551 1.74786 10.1843 1.33617 10.1387C0.92448 10.093 0.553714 10.3897 0.508039 10.8014L1.99889 10.9668ZM0.314702 18.7028C0.333054 19.1166 0.683389 19.4372 1.0972 19.4189C1.511 19.4005 1.83158 19.0502 1.81323 18.6364L0.314702 18.7028ZM2.53719 26.3262C2.48009 25.9159 2.10123 25.6296 1.69097 25.6867C1.28071 25.7438 0.994412 26.1227 1.0515 26.5329L2.53719 26.3262ZM2.43396 34.2595C2.52221 34.6642 2.92183 34.9208 3.32653 34.8325C3.73124 34.7443 3.98777 34.3447 3.89952 33.9399L2.43396 34.2595ZM5.83377 41.4286C5.71435 41.0319 5.29602 40.8072 4.89939 40.9266C4.50276 41.0461 4.27804 41.4644 4.39746 41.861L5.83377 41.4286ZM7.01142 49.0118C7.18752 49.3867 7.6342 49.5479 8.00912 49.3718C8.38404 49.1957 8.54521 48.749 8.36911 48.3741L7.01142 49.0118ZM11.9587 54.4899C11.72 54.1514 11.252 54.0705 10.9135 54.3092C10.575 54.5479 10.4941 55.0159 10.7328 55.3544L11.9587 54.4899ZM15.3258 61.0496C15.603 61.3574 16.0772 61.3822 16.385 61.1051C16.6928 60.8279 16.7177 60.3537 16.4405 60.0458L15.3258 61.0496ZM21.4298 65.2181C21.135 64.9271 20.6602 64.9302 20.3692 65.225C20.0782 65.5198 20.0813 65.9947 20.3761 66.2856L21.4298 65.2181ZM25.5532 71.3373C25.8487 71.6276 26.3235 71.6235 26.6138 71.328C26.9041 71.0325 26.9 70.5577 26.6045 70.2674L25.5532 71.3373ZM31.6775 75.4758C31.3979 75.1702 30.9235 75.1491 30.6179 75.4287C30.3123 75.7083 30.2912 76.1827 30.5708 76.4883L31.6775 75.4758ZM35.1232 81.9958C35.3675 82.3303 35.8367 82.4034 36.1712 82.1591C36.5057 81.9148 36.5788 81.4455 36.3345 81.1111L35.1232 81.9958ZM40.1935 87.3616C40.0067 86.9919 39.5556 86.8436 39.1859 87.0303C38.8162 87.2171 38.6679 87.6682 38.8546 88.0379L40.1935 87.3616ZM6.08967 0.286302C4.69757 0.735922 3.60455 1.72587 2.76974 3.05935L4.04114 3.85531C4.74118 2.73711 5.57823 2.02778 6.55069 1.7137L6.08967 0.286302ZM0.508039 10.8014C0.24309 13.1895 0.188866 15.8655 0.314702 18.7028L1.81323 18.6364C1.68991 15.8558 1.74449 13.2598 1.99889 10.9668L0.508039 10.8014ZM1.0515 26.5329C1.40703 29.0877 1.87309 31.6874 2.43396 34.2595L3.89952 33.9399C3.34652 31.4039 2.88727 28.8418 2.53719 26.3262L1.0515 26.5329ZM4.39746 41.861C4.78136 43.1361 5.18702 44.3846 5.61231 45.5962L7.02765 45.0994C6.61025 43.9103 6.21153 42.6832 5.83377 41.4286L4.39746 41.861ZM5.61231 45.5962C6.02579 46.7742 6.49444 47.9111 7.01142 49.0118L8.36911 48.3741C7.87287 47.3176 7.42366 46.2276 7.02765 45.0994L5.61231 45.5962ZM10.7328 55.3544C12.1403 57.3502 13.6914 59.2346 15.3258 61.0496L16.4405 60.0458C14.8352 58.2631 13.3237 56.4256 11.9587 54.4899L10.7328 55.3544ZM20.3761 66.2856C22.0781 67.9655 23.8519 69.6656 25.5532 71.3373L26.6045 70.2674C24.8639 68.5571 23.1513 66.9172 21.4298 65.2181L20.3761 66.2856ZM30.5708 76.4883C32.1872 78.255 33.7216 80.0769 35.1232 81.9958L36.3345 81.1111C34.8925 79.1369 33.3208 77.2719 31.6775 75.4758L30.5708 76.4883ZM38.8546 88.0379C39.3821 89.0822 39.8664 90.1589 40.3014 91.2728L41.6986 90.7272C41.2455 89.5669 40.7416 88.4466 40.1935 87.3616L38.8546 88.0379Z" fill="#E1E8FC"/>
</svg>
