<svg width="204" height="283" viewBox="0 0 204 283" fill="none" xmlns="http://www.w3.org/2000/svg">
<path d="M3.49979 173L2.82365 172.675L3.49979 173ZM72.7665 281.657C72.8533 282.062 73.252 282.32 73.657 282.233L80.2572 280.819C80.6622 280.732 80.9202 280.334 80.8334 279.928C80.7466 279.523 80.3479 279.266 79.9429 279.352L74.0761 280.609L72.8189 274.743C72.7321 274.338 72.3334 274.08 71.9284 274.166C71.5234 274.253 71.2654 274.652 71.3522 275.057L72.7665 281.657ZM200.5 80.5L201.241 80.6169L200.5 80.5ZM71.3958 2.54243C71.8089 2.57172 72.1676 2.26051 72.1969 1.84733C72.2262 1.43416 71.915 1.07547 71.5018 1.04619L71.3958 2.54243ZM79.3572 1.55012C78.9437 1.52622 78.5891 1.84207 78.5651 2.25559C78.5412 2.66911 78.8571 3.02372 79.2706 3.04762L79.3572 1.55012ZM87.1492 3.45938C87.563 3.47889 87.9142 3.15929 87.9337 2.74553C87.9532 2.33178 87.6336 1.98055 87.2199 1.96105L87.1492 3.45938ZM95.0879 2.29868C94.674 2.28247 94.3254 2.60486 94.3092 3.01876C94.2929 3.43266 94.6153 3.78133 95.0292 3.79754L95.0879 2.29868ZM102.908 4.08465C103.322 4.09884 103.669 3.77475 103.683 3.36078C103.698 2.94681 103.374 2.59972 102.96 2.58553L102.908 4.08465ZM110.833 2.84766C110.419 2.83401 110.072 3.15855 110.058 3.57254C110.045 3.98653 110.369 4.3332 110.783 4.34685L110.833 2.84766ZM118.65 4.61484C119.064 4.62972 119.412 4.30621 119.427 3.89227C119.442 3.47832 119.118 3.13069 118.704 3.11581L118.65 4.61484ZM126.573 3.42707C126.159 3.40881 125.808 3.72946 125.79 4.14327C125.772 4.55708 126.093 4.90735 126.506 4.92561L126.573 3.42707ZM134.384 5.32681C134.798 5.35119 135.153 5.03575 135.177 4.62225C135.202 4.20876 134.886 3.85379 134.473 3.82941L134.384 5.32681ZM142.36 4.38003C141.947 4.34606 141.585 4.65317 141.551 5.06599C141.517 5.47881 141.824 5.841 142.237 5.87498L142.36 4.38003ZM150.04 6.6437C150.451 6.69182 150.824 6.39732 150.872 5.98591C150.92 5.5745 150.626 5.20198 150.214 5.15385L150.04 6.6437ZM158.062 6.25834C157.654 6.18982 157.267 6.46545 157.198 6.87395C157.13 7.28246 157.405 7.66916 157.814 7.73768L158.062 6.25834ZM165.482 9.2884C165.884 9.38571 166.29 9.13821 166.387 8.73559C166.484 8.33297 166.237 7.92769 165.834 7.83038L165.482 9.2884ZM173.472 10.0657C173.081 9.92832 172.653 10.1337 172.515 10.5245C172.378 10.9153 172.583 11.3434 172.974 11.4808L173.472 10.0657ZM180.103 14.5334C180.471 14.7241 180.923 14.5807 181.114 14.213C181.305 13.8453 181.161 13.3926 180.794 13.2019L180.103 14.5334ZM187.542 17.5082C187.216 17.2528 186.745 17.3101 186.49 17.6361C186.234 17.9622 186.291 18.4336 186.617 18.6891L187.542 17.5082ZM192.134 24.0616C192.397 24.3816 192.87 24.4277 193.19 24.1647C193.51 23.9017 193.556 23.429 193.293 23.1091L192.134 24.0616ZM197.675 29.8164C197.486 29.4476 197.034 29.3016 196.666 29.4903C196.297 29.679 196.151 30.1309 196.34 30.4996L197.675 29.8164ZM199.195 37.6757C199.315 38.0724 199.733 38.2975 200.13 38.1783C200.526 38.0591 200.751 37.641 200.632 37.2443L199.195 37.6757ZM202.366 45.0439C202.303 44.6345 201.92 44.3536 201.511 44.4164C201.102 44.4793 200.821 44.8622 200.884 45.2716L202.366 45.0439ZM201.645 53.0245C201.665 53.4383 202.017 53.7573 202.431 53.7372C202.844 53.7171 203.164 53.3654 203.143 52.9517L201.645 53.0245ZM203.206 60.8604C203.218 60.4464 202.892 60.1009 202.478 60.0888C202.064 60.0767 201.718 60.4025 201.706 60.8165L203.206 60.8604ZM201.233 68.6288C201.196 69.0413 201.501 69.4057 201.913 69.4426C202.326 69.4795 202.69 69.175 202.727 68.7624L201.233 68.6288ZM201.83 76.622C201.886 76.2116 201.599 75.8334 201.189 75.7771C200.779 75.7209 200.4 76.0079 200.344 76.4183L201.83 76.622ZM198.955 84.4482C198.858 84.851 199.106 85.2558 199.509 85.3525C199.912 85.4492 200.317 85.2011 200.413 84.7983L198.955 84.4482ZM197.762 92.7293C197.929 92.3502 197.757 91.9076 197.378 91.7409C196.998 91.5741 196.556 91.7463 196.389 92.1254L197.762 92.7293ZM192.411 99.183C192.172 99.5216 192.253 99.9895 192.592 100.228C192.931 100.467 193.399 100.385 193.637 100.047L192.411 99.183ZM188.144 106.402C188.444 106.116 188.455 105.642 188.169 105.342C187.883 105.042 187.408 105.031 187.108 105.317L188.144 106.402ZM180.749 110.404C180.406 110.636 180.315 111.102 180.547 111.445C180.778 111.789 181.244 111.879 181.588 111.648L180.749 110.404ZM174.351 115.826C174.722 115.642 174.874 115.192 174.69 114.821C174.507 114.45 174.057 114.298 173.685 114.482L174.351 115.826ZM166.168 117.718C165.78 117.863 165.583 118.295 165.728 118.683C165.873 119.071 166.306 119.268 166.693 119.122L166.168 117.718ZM158.778 121.729C159.176 121.614 159.405 121.198 159.29 120.8C159.175 120.402 158.759 120.173 158.361 120.288L158.778 121.729ZM150.381 122.344C149.977 122.436 149.725 122.838 149.817 123.242C149.91 123.646 150.312 123.898 150.716 123.806L150.381 122.344ZM142.572 125.483C142.979 125.408 143.248 125.016 143.172 124.609C143.097 124.202 142.706 123.933 142.298 124.008L142.572 125.483ZM134.156 125.384C133.746 125.447 133.466 125.83 133.529 126.239C133.592 126.648 133.975 126.929 134.384 126.866L134.156 125.384ZM126.176 128.039C126.586 127.984 126.875 127.607 126.82 127.196C126.766 126.786 126.389 126.497 125.978 126.552L126.176 128.039ZM117.779 127.582C117.368 127.631 117.075 128.004 117.124 128.415C117.173 128.827 117.546 129.12 117.958 129.071L117.779 127.582ZM109.734 130.024C110.145 129.978 110.441 129.606 110.395 129.195C110.348 128.783 109.977 128.487 109.565 128.534L109.734 130.024ZM101.343 129.462C100.931 129.509 100.635 129.88 100.682 130.292C100.729 130.704 101.1 130.999 101.512 130.953L101.343 129.462ZM93.2971 131.907C93.7084 131.858 94.0018 131.484 93.9525 131.073C93.9031 130.662 93.5298 130.368 93.1185 130.418L93.2971 131.907ZM84.8991 131.452C84.4885 131.507 84.1998 131.884 84.2544 132.295C84.309 132.705 84.6861 132.994 85.0967 132.939L84.8991 131.452ZM76.9184 134.102C77.3279 134.04 77.6091 133.657 77.5465 133.248C77.4839 132.838 77.1013 132.557 76.6918 132.619L76.9184 134.102ZM68.5073 133.978C68.0997 134.052 67.829 134.442 67.9026 134.85C67.9763 135.257 68.3665 135.528 68.7741 135.455L68.5073 133.978ZM60.6814 137.062C61.0861 136.973 61.3426 136.574 61.2543 136.169C61.1659 135.764 60.7663 135.508 60.3616 135.596L60.6814 137.062ZM52.2804 137.55C51.8803 137.657 51.6427 138.068 51.7498 138.468C51.8569 138.868 52.2681 139.106 52.6682 138.999L52.2804 137.55ZM44.778 141.354C45.171 141.223 45.3837 140.799 45.253 140.406C45.1222 140.013 44.6977 139.8 44.3046 139.931L44.778 141.354ZM36.4982 142.845C36.1161 143.005 35.9359 143.444 36.0958 143.826C36.2557 144.208 36.6951 144.388 37.0772 144.229L36.4982 142.845ZM29.6643 147.733C30.0297 147.538 30.1679 147.083 29.9729 146.718C29.7778 146.352 29.3235 146.214 28.9581 146.409L29.6643 147.733ZM21.8229 150.743C21.4822 150.979 21.397 151.446 21.6326 151.787C21.8682 152.127 22.3354 152.212 22.6761 151.977L21.8229 150.743ZM16.2861 157.051C16.5918 156.772 16.6131 156.298 16.3337 155.992C16.0542 155.686 15.5798 155.665 15.2741 155.944L16.2861 157.051ZM9.53176 162.038C9.27149 162.36 9.32172 162.832 9.64395 163.092C9.96618 163.353 10.4384 163.302 10.6987 162.98L9.53176 162.038ZM6.09597 169.685C6.30319 169.327 6.18044 168.868 5.82179 168.661C5.46314 168.454 5.00441 168.576 4.79718 168.935L6.09597 169.685ZM1.26183 176.563C1.13493 176.958 1.35171 177.38 1.74601 177.507C2.14031 177.634 2.56282 177.417 2.68971 177.023L1.26183 176.563ZM1.59243 184.758C1.57324 184.344 1.22227 184.024 0.808497 184.043C0.394728 184.062 0.0748549 184.413 0.0940407 184.827L1.59243 184.758ZM2.07623 192.946C2.24554 193.324 2.68924 193.493 3.06727 193.324C3.4453 193.155 3.61451 192.711 3.4452 192.333L2.07623 192.946ZM7.66757 199.019C7.40589 198.697 6.93347 198.649 6.61238 198.911C6.2913 199.173 6.24314 199.645 6.50482 199.966L7.66757 199.019ZM12.2367 205.889C12.5453 206.166 13.0194 206.14 13.2958 205.831C13.5721 205.523 13.546 205.048 13.2374 204.772L12.2367 205.889ZM19.4885 209.83C19.1558 209.583 18.6861 209.653 18.4393 209.985C18.1925 210.318 18.2621 210.788 18.5948 211.034L19.4885 209.83ZM25.3012 215.71C25.6467 215.938 26.112 215.844 26.3405 215.498C26.5691 215.153 26.4743 214.687 26.1288 214.459L25.3012 215.71ZM32.9653 218.826C32.6135 218.607 32.151 218.715 31.9324 219.067C31.7137 219.419 31.8216 219.881 32.1734 220.1L32.9653 218.826ZM39.1108 224.356C39.4645 224.572 39.926 224.46 40.1416 224.106C40.3572 223.753 40.2453 223.291 39.8916 223.075L39.1108 224.356ZM46.8264 227.332C46.4747 227.113 46.0122 227.221 45.7934 227.573C45.5746 227.924 45.6824 228.387 46.0341 228.606L46.8264 227.332ZM52.8729 232.978C53.2183 233.207 53.6836 233.112 53.9122 232.767C54.1409 232.421 54.0462 231.956 53.7008 231.727L52.8729 232.978ZM60.3899 236.388C60.0569 236.141 59.5872 236.212 59.3408 236.545C59.0944 236.878 59.1646 237.347 59.4976 237.594L60.3899 236.388ZM65.7935 242.659C66.1034 242.934 66.5774 242.905 66.8522 242.595C67.127 242.285 67.0985 241.811 66.7885 241.536L65.7935 242.659ZM72.5728 247.397C72.3059 247.081 71.8327 247.04 71.516 247.307C71.1992 247.574 71.1588 248.047 71.4257 248.364L72.5728 247.397ZM75.8434 254.945C76.0286 255.315 76.4791 255.465 76.8496 255.28C77.2201 255.095 77.3703 254.644 77.1851 254.274L75.8434 254.945ZM79.6472 262.227C79.596 261.815 79.2212 261.524 78.8102 261.575C78.3992 261.626 78.1075 262.001 78.1587 262.412L79.6472 262.227ZM77.7222 270.2C77.6296 270.603 77.8819 271.006 78.2856 271.098C78.6894 271.191 79.0917 270.939 79.1842 270.535L77.7222 270.2ZM76.2472 278.289C76.439 277.922 76.2968 277.469 75.9297 277.277C75.5625 277.086 75.1095 277.228 74.9177 277.595L76.2472 278.289ZM67.4413 2.24771C68.7654 2.35135 70.0836 2.44944 71.3958 2.54243L71.5018 1.04619C70.1932 0.953439 68.8787 0.855629 67.5584 0.752287L67.4413 2.24771ZM79.2706 3.04762C81.9249 3.20107 84.5517 3.33694 87.1492 3.45938L87.2199 1.96105C84.6269 1.83882 82.0055 1.70322 79.3572 1.55012L79.2706 3.04762ZM95.0292 3.79754C97.6901 3.90175 100.317 3.99586 102.908 4.08465L102.96 2.58553C100.37 2.49679 97.7456 2.40277 95.0879 2.29868L95.0292 3.79754ZM110.783 4.34685C113.449 4.43473 116.072 4.52216 118.65 4.61484L118.704 3.11581C116.123 3.02304 113.499 2.93555 110.833 2.84766L110.783 4.34685ZM126.506 4.92561C129.189 5.044 131.815 5.17535 134.384 5.32681L134.473 3.82941C131.895 3.67742 129.26 3.54571 126.573 3.42707L126.506 4.92561ZM142.237 5.87498C144.913 6.09517 147.515 6.34831 150.04 6.6437L150.214 5.15385C147.669 4.85617 145.05 4.6014 142.36 4.38003L142.237 5.87498ZM157.814 7.73768C160.476 8.18408 163.033 8.69661 165.482 9.2884L165.834 7.83038C163.346 7.2291 160.754 6.70974 158.062 6.25834L157.814 7.73768ZM172.974 11.4808C175.504 12.3703 177.883 13.3815 180.103 14.5334L180.794 13.2019C178.504 12.0137 176.06 10.9755 173.472 10.0657L172.974 11.4808ZM186.617 18.6891C188.65 20.2814 190.492 22.0637 192.134 24.0616L193.293 23.1091C191.579 21.0233 189.658 19.1651 187.542 17.5082L186.617 18.6891ZM196.34 30.4996C197.459 32.6872 198.414 35.0726 199.195 37.6757L200.632 37.2443C199.826 34.5604 198.838 32.0901 197.675 29.8164L196.34 30.4996ZM200.884 45.2716C201.256 47.6996 201.512 50.2806 201.645 53.0245L203.143 52.9517C203.008 50.1607 202.748 47.5279 202.366 45.0439L200.884 45.2716ZM201.706 60.8165C201.633 63.3045 201.476 65.9068 201.233 68.6288L202.727 68.7624C202.973 66.0131 203.132 63.3808 203.206 60.8604L201.706 60.8165ZM200.344 76.4183C200.166 77.7157 199.971 79.0371 199.759 80.3831L201.241 80.6169C201.454 79.2612 201.651 77.9297 201.83 76.622L200.344 76.4183ZM199.759 80.3831C199.538 81.783 199.27 83.1374 198.955 84.4482L200.413 84.7983C200.738 83.4479 201.014 82.0546 201.241 80.6169L199.759 80.3831ZM196.389 92.1254C195.27 94.6693 193.938 97.0154 192.411 99.183L193.637 100.047C195.222 97.7978 196.603 95.3645 197.762 92.7293L196.389 92.1254ZM187.108 105.317C185.168 107.169 183.042 108.858 180.749 110.404L181.588 111.648C183.944 110.059 186.137 108.317 188.144 106.402L187.108 105.317ZM173.685 114.482C171.3 115.663 168.79 116.736 166.168 117.718L166.693 119.122C169.357 118.126 171.915 117.032 174.351 115.826L173.685 114.482ZM158.361 120.288C155.777 121.036 153.113 121.718 150.381 122.344L150.716 123.806C153.472 123.174 156.164 122.486 158.778 121.729L158.361 120.288ZM142.298 124.008C139.631 124.503 136.913 124.958 134.156 125.384L134.384 126.866C137.154 126.439 139.887 125.981 142.572 125.483L142.298 124.008ZM125.978 126.552C123.271 126.911 120.535 127.252 117.779 127.582L117.958 129.071C120.718 128.741 123.46 128.399 126.176 128.039L125.978 126.552ZM109.565 128.534C106.836 128.843 104.085 129.151 101.343 129.462L101.512 130.953C104.26 130.641 106.996 130.335 109.734 130.024L109.565 128.534ZM93.1185 130.418C90.3711 130.747 87.6286 131.09 84.8991 131.452L85.0967 132.939C87.8183 132.578 90.5544 132.236 93.2971 131.907L93.1185 130.418ZM76.6918 132.619C73.9391 133.04 71.208 133.49 68.5073 133.978L68.7741 135.455C71.4596 134.969 74.1771 134.521 76.9184 134.102L76.6918 132.619ZM60.3616 135.596C57.6227 136.194 54.9257 136.842 52.2804 137.55L52.6682 138.999C55.2885 138.297 57.9627 137.655 60.6814 137.062L60.3616 135.596ZM44.3046 139.931C41.6303 140.82 39.0242 141.788 36.4982 142.845L37.0772 144.229C39.5651 143.187 42.1357 142.233 44.778 141.354L44.3046 139.931ZM28.9581 146.409C26.4724 147.736 24.0892 149.176 21.8229 150.743L22.6761 151.977C24.8914 150.445 27.225 149.034 29.6643 147.733L28.9581 146.409ZM15.2741 155.944C13.2174 157.824 11.2983 159.851 9.53176 162.038L10.6987 162.98C12.4159 160.854 14.2828 158.882 16.2861 157.051L15.2741 155.944ZM4.79718 168.935C4.10003 170.142 3.44166 171.388 2.82365 172.675L4.17593 173.325C4.77749 172.071 5.41803 170.859 6.09597 169.685L4.79718 168.935ZM2.82365 172.675C2.19015 173.995 1.67138 175.291 1.26183 176.563L2.68971 177.023C3.07702 175.819 3.5699 174.587 4.17593 173.325L2.82365 172.675ZM0.0940407 184.827C0.225748 187.668 0.92133 190.368 2.07623 192.946L3.4452 192.333C2.35952 189.909 1.71461 187.393 1.59243 184.758L0.0940407 184.827ZM6.50482 199.966C8.16839 202.007 10.1008 203.977 12.2367 205.889L13.2374 204.772C11.1463 202.899 9.27135 200.986 7.66757 199.019L6.50482 199.966ZM18.5948 211.034C20.7296 212.618 22.9786 214.173 25.3012 215.71L26.1288 214.459C23.8225 212.933 21.5965 211.394 19.4885 209.83L18.5948 211.034ZM32.1734 220.1C34.4633 221.523 36.7877 222.94 39.1108 224.356L39.8916 223.075C37.5674 221.659 35.2487 220.245 32.9653 218.826L32.1734 220.1ZM46.0341 228.606C48.3589 230.052 50.6495 231.506 52.8729 232.978L53.7008 231.727C51.4618 230.245 49.1585 228.783 46.8264 227.332L46.0341 228.606ZM59.4976 237.594C61.7354 239.25 63.8483 240.934 65.7935 242.659L66.7885 241.536C64.8035 239.777 62.655 238.064 60.3899 236.388L59.4976 237.594ZM71.4257 248.364C73.2163 250.489 74.7097 252.677 75.8434 254.945L77.1851 254.274C75.9887 251.881 74.4244 249.595 72.5728 247.397L71.4257 248.364ZM78.1587 262.412C78.467 264.886 78.3469 267.474 77.7222 270.2L79.1842 270.535C79.8468 267.644 79.9779 264.88 79.6472 262.227L78.1587 262.412ZM74.9177 277.595C74.3211 278.737 73.6401 279.903 72.8702 281.093L74.1296 281.907C74.923 280.681 75.6277 279.476 76.2472 278.289L74.9177 277.595Z" fill="#E1E8FC"/>
</svg>
