<svg width="158" height="370" viewBox="0 0 158 370" fill="none" xmlns="http://www.w3.org/2000/svg">
<path d="M156.986 1.34602C157.177 0.978523 157.034 0.52569 156.666 0.33459C156.299 0.143489 155.846 0.286485 155.655 0.653981L156.986 1.34602ZM5.50005 48L4.77395 47.8122L5.50005 48ZM44.3095 369.725C44.7101 369.831 45.1202 369.591 45.2255 369.191L46.9409 362.662C47.0462 362.262 46.8068 361.852 46.4062 361.746C46.0056 361.641 45.5955 361.88 45.4902 362.281L43.9653 368.084L38.1623 366.559C37.7617 366.454 37.3516 366.693 37.2463 367.094C37.1411 367.495 37.3805 367.905 37.7811 368.01L44.3095 369.725ZM43.2501 365.202C43.0535 364.837 42.5986 364.701 42.234 364.897C41.8694 365.094 41.7333 365.549 41.9299 365.914L43.2501 365.202ZM38.258 358.824C38.4429 359.194 38.8933 359.345 39.264 359.16C39.6346 358.975 39.7851 358.525 39.6001 358.154L38.258 358.824ZM36.1418 350.986C35.9666 350.611 35.5203 350.449 35.145 350.624C34.7696 350.799 34.6073 351.245 34.7825 351.621L36.1418 350.986ZM31.5061 344.364C31.6718 344.743 32.1139 344.917 32.4935 344.751C32.8731 344.585 33.0465 344.143 32.8807 343.763L31.5061 344.364ZM29.7922 336.443C29.6359 336.06 29.1983 335.875 28.8147 336.032C28.4311 336.188 28.2468 336.626 28.403 337.009L29.7922 336.443ZM25.4843 329.576C25.6308 329.964 26.0636 330.159 26.451 330.013C26.8385 329.866 27.0339 329.433 26.8874 329.046L25.4843 329.576ZM24.1774 321.582C24.0412 321.191 23.6137 320.984 23.2225 321.121C22.8313 321.257 22.6246 321.684 22.7608 322.076L24.1774 321.582ZM20.2427 314.509C20.3679 314.903 20.7896 315.122 21.1844 314.997C21.5792 314.871 21.7977 314.45 21.6724 314.055L20.2427 314.509ZM19.3798 306.445C19.2662 306.047 18.8513 305.816 18.4529 305.93C18.0546 306.043 17.8237 306.458 17.9373 306.857L19.3798 306.445ZM15.8689 299.147C15.9699 299.549 16.3773 299.793 16.7791 299.692C17.1808 299.591 17.4247 299.183 17.3237 298.782L15.8689 299.147ZM15.521 291.06C15.4338 290.655 15.0348 290.397 14.6299 290.484C14.225 290.572 13.9674 290.971 14.0546 291.376L15.521 291.06ZM12.5153 283.537C12.5875 283.945 12.9767 284.217 13.3846 284.145C13.7924 284.073 14.0645 283.684 13.9923 283.276L12.5153 283.537ZM12.7649 275.44C12.7091 275.03 12.3312 274.742 11.9208 274.798C11.5103 274.854 11.2228 275.232 11.2785 275.642L12.7649 275.44ZM10.375 267.701C10.4126 268.114 10.7775 268.418 11.19 268.38C11.6025 268.342 11.9064 267.978 11.8688 267.565L10.375 267.701ZM11.3373 259.661C11.3197 259.247 10.9699 258.926 10.5561 258.944C10.1423 258.961 9.82108 259.311 9.83871 259.725L11.3373 259.661ZM9.70769 251.728C9.70327 252.142 10.0355 252.481 10.4496 252.486C10.8638 252.49 11.2032 252.158 11.2076 251.744L9.70769 251.728ZM11.5202 243.836C11.5489 243.423 11.2372 243.065 10.824 243.036C10.4107 243.008 10.0525 243.319 10.0238 243.732L11.5202 243.836ZM10.8313 235.769C10.7761 236.179 11.0641 236.557 11.4746 236.612C11.8851 236.667 12.2627 236.379 12.3179 235.969L10.8313 235.769ZM13.6441 228.177C13.7282 227.771 13.4676 227.374 13.062 227.29C12.6564 227.206 12.2595 227.467 12.1754 227.872L13.6441 228.177ZM14.098 220.093C13.9831 220.491 14.2125 220.907 14.6104 221.022C15.0084 221.137 15.4241 220.907 15.5391 220.509L14.098 220.093ZM17.9052 212.954C18.0233 212.557 17.7973 212.14 17.4003 212.022C17.0033 211.903 16.5857 212.129 16.4675 212.526L17.9052 212.954ZM18.4211 205.041C18.3306 205.445 18.5849 205.846 18.9891 205.936C19.3933 206.027 19.7944 205.772 19.8848 205.368L18.4211 205.041ZM21.3184 197.629C21.3783 197.22 21.0947 196.839 20.6849 196.779C20.275 196.719 19.8941 197.002 19.8342 197.412L21.3184 197.629ZM20.6564 189.703C20.6287 190.116 20.9413 190.474 21.3546 190.502C21.7679 190.529 22.1254 190.217 22.1531 189.803L20.6564 189.703ZM22.3679 181.95C22.363 181.536 22.0232 181.204 21.609 181.209C21.1949 181.214 20.8631 181.554 20.868 181.968L22.3679 181.95ZM20.4799 174.22C20.516 174.633 20.8797 174.938 21.2924 174.902C21.705 174.866 22.0103 174.502 21.9742 174.089L20.4799 174.22ZM21.0188 166.292C20.9548 165.883 20.5712 165.603 20.162 165.667C19.7527 165.731 19.4728 166.114 19.5367 166.524L21.0188 166.292ZM18.1124 158.888C18.1994 159.293 18.5983 159.551 19.0032 159.464C19.4082 159.377 19.6659 158.978 19.5788 158.573L18.1124 158.888ZM17.7556 150.946C17.6511 150.545 17.2414 150.305 16.8406 150.41C16.4398 150.514 16.1996 150.924 16.3041 151.325L17.7556 150.946ZM14.2213 143.819C14.3372 144.217 14.7536 144.445 15.1512 144.329C15.5489 144.213 15.7772 143.797 15.6613 143.399L14.2213 143.819ZM13.4125 135.91C13.2912 135.514 12.8719 135.291 12.4758 135.412C12.0797 135.534 11.857 135.953 11.9782 136.349L13.4125 135.91ZM9.68812 128.88C9.80871 129.276 10.2277 129.499 10.624 129.379C11.0202 129.258 11.2437 128.839 11.1232 128.443L9.68812 128.88ZM8.90483 120.967C8.7907 120.569 8.37538 120.339 7.97721 120.453C7.57903 120.567 7.34877 120.982 7.46291 121.38L8.90483 120.967ZM5.40908 113.823C5.51132 114.224 5.9196 114.467 6.321 114.365C6.72239 114.263 6.96491 113.854 6.86267 113.453L5.40908 113.823ZM5.0932 105.876C5.00786 105.47 4.61009 105.211 4.20476 105.296C3.79944 105.382 3.54004 105.779 3.62539 106.185L5.0932 105.876ZM2.20348 98.4712C2.26766 98.8804 2.65142 99.1601 3.06063 99.0959C3.46984 99.0317 3.74955 98.648 3.68537 98.2387L2.20348 98.4712ZM2.70735 90.5316C2.66772 90.1193 2.30135 89.8172 1.88903 89.8568C1.47672 89.8965 1.1746 90.2628 1.21423 90.6752L2.70735 90.5316ZM0.713412 82.8396C0.726361 83.2537 1.07248 83.5788 1.48649 83.5658C1.9005 83.5529 2.22563 83.2068 2.21268 82.7927L0.713412 82.8396ZM2.22807 75.0378C2.24271 74.6238 1.919 74.2764 1.50505 74.2617C1.09109 74.2471 0.743649 74.5708 0.729009 74.9848L2.22807 75.0378ZM1.26931 67.1252C1.22728 67.5373 1.52726 67.9054 1.93933 67.9474C2.35141 67.9894 2.71954 67.6895 2.76157 67.2774L1.26931 67.1252ZM3.79329 59.6037C3.86136 59.1952 3.58533 58.8088 3.17675 58.7407C2.76816 58.6726 2.38176 58.9486 2.31369 59.3572L3.79329 59.6037ZM3.83523 51.6643C3.74293 52.0681 3.99545 52.4703 4.39925 52.5626C4.80305 52.6549 5.20521 52.4024 5.29751 51.9986L3.83523 51.6643ZM7.34124 44.5553C7.48094 44.1653 7.27808 43.736 6.88814 43.5963C6.49819 43.4566 6.06883 43.6594 5.92913 44.0494L7.34124 44.5553ZM9.25595 37.0267C9.0414 37.381 9.15472 37.8422 9.50904 38.0567C9.86337 38.2712 10.3245 38.1579 10.5391 37.8036L9.25595 37.0267ZM15.0709 31.8435C15.3547 31.5418 15.3402 31.0671 15.0385 30.7833C14.7368 30.4995 14.2622 30.514 13.9784 30.8156L15.0709 31.8435ZM19.8444 25.6982C19.5082 25.9401 19.4316 26.4087 19.6735 26.745C19.9154 27.0813 20.3841 27.1578 20.7203 26.9159L19.8444 25.6982ZM27.169 23.0387C27.5391 22.8528 27.6885 22.4021 27.5027 22.0319C27.3168 21.6617 26.866 21.5123 26.4959 21.6982L27.169 23.0387ZM33.6382 18.6701C33.248 18.8091 33.0443 19.238 33.1833 19.6283C33.3222 20.0185 33.7512 20.2222 34.1414 20.0832L33.6382 18.6701ZM41.3896 17.8959C41.7911 17.794 42.034 17.386 41.9322 16.9845C41.8304 16.583 41.4223 16.3401 41.0208 16.4419L41.3896 17.8959ZM48.5667 14.8252C48.159 14.8981 47.8875 15.2877 47.9604 15.6955C48.0333 16.1032 48.423 16.3747 48.8307 16.3018L48.5667 14.8252ZM56.3754 15.1741C56.7865 15.1236 57.0788 14.7493 57.0283 14.3382C56.9778 13.9271 56.6035 13.6348 56.1924 13.6853L56.3754 15.1741ZM63.8355 12.9142C63.4226 12.9476 63.115 13.3093 63.1484 13.7222C63.1817 14.135 63.5435 14.4427 63.9564 14.4093L63.8355 12.9142ZM71.5765 13.9192C71.9902 13.8988 72.309 13.5469 72.2886 13.1332C72.2682 12.7195 71.9163 12.4007 71.5026 12.4211L71.5765 13.9192ZM79.1767 12.1358C78.7626 12.1467 78.4358 12.4912 78.4467 12.9053C78.4576 13.3193 78.8022 13.6462 79.2162 13.6353L79.1767 12.1358ZM86.8632 13.4975C87.2774 13.493 87.6095 13.1536 87.605 12.7394C87.6005 12.3252 87.2611 11.9931 86.8469 11.9976L86.8632 13.4975ZM94.5139 11.9509C94.0997 11.952 93.7648 12.2886 93.7658 12.7028C93.7668 13.117 94.1034 13.452 94.5176 13.4509L94.5139 11.9509ZM102.185 13.4413C102.599 13.4407 102.934 13.1045 102.934 12.6903C102.933 12.2761 102.597 11.9407 102.183 11.9413L102.185 13.4413ZM109.84 11.9097C109.426 11.9132 109.093 12.2518 109.097 12.666C109.1 13.0802 109.439 13.4131 109.853 13.4097L109.84 11.9097ZM117.508 13.2861C117.922 13.2754 118.249 12.9311 118.239 12.517C118.228 12.1029 117.884 11.7759 117.47 11.7866L117.508 13.2861ZM125.12 11.4775C124.707 11.5015 124.391 11.8561 124.415 12.2697C124.439 12.6832 124.794 12.999 125.207 12.975L125.12 11.4775ZM132.871 12.3379C133.282 12.2912 133.578 11.9198 133.531 11.5082C133.485 11.0966 133.113 10.8008 132.702 10.8475L132.871 12.3379ZM140.212 9.66038C139.807 9.74691 139.549 10.1454 139.635 10.5505C139.722 10.9556 140.12 11.2138 140.525 11.1273L140.212 9.66038ZM147.979 8.87458C148.36 8.71389 148.54 8.27414 148.379 7.89237C148.218 7.51059 147.778 7.33136 147.397 7.49204L147.979 8.87458ZM153.537 3.54662C153.246 3.84186 153.25 4.31672 153.546 4.60724C153.841 4.89776 154.316 4.89393 154.606 4.59868L153.537 3.54662ZM44.5001 369C45.1478 368.622 45.1478 368.622 45.1478 368.622C45.1478 368.622 45.1478 368.622 45.1478 368.622C45.1478 368.622 45.1478 368.622 45.1477 368.622C45.1477 368.622 45.1476 368.622 45.1474 368.621C45.1472 368.621 45.1467 368.62 45.1461 368.619C45.1448 368.617 45.1429 368.613 45.1403 368.609C45.1351 368.6 45.1272 368.586 45.1166 368.568C45.0955 368.532 45.0638 368.477 45.0219 368.404C44.938 368.257 44.8133 368.038 44.651 367.75C44.3262 367.172 43.8509 366.316 43.2501 365.202L41.9299 365.914C42.535 367.036 43.0147 367.9 43.3435 368.485C43.508 368.777 43.6347 369 43.7205 369.15C43.7635 369.224 43.7962 369.281 43.8183 369.319C43.8294 369.339 43.8377 369.353 43.8434 369.363C43.8463 369.368 43.8485 369.371 43.85 369.374C43.8507 369.375 43.8513 369.376 43.8517 369.377C43.8519 369.377 43.852 369.378 43.8522 369.378C43.8522 369.378 43.8523 369.378 43.8523 369.378C43.8523 369.378 43.8523 369.378 43.8524 369.378C43.8524 369.378 43.8524 369.378 44.5001 369ZM39.6001 358.154C38.545 356.04 37.3799 353.64 36.1418 350.986L34.7825 351.621C36.0265 354.287 37.1973 356.699 38.258 358.824L39.6001 358.154ZM32.8807 343.763C31.87 341.449 30.8352 339.004 29.7922 336.443L28.403 337.009C29.451 339.582 30.4907 342.038 31.5061 344.364L32.8807 343.763ZM26.8874 329.046C25.9755 326.633 25.0686 324.143 24.1774 321.582L22.7608 322.076C23.6566 324.649 24.568 327.152 25.4843 329.576L26.8874 329.046ZM21.6724 314.055C20.8833 311.568 20.1163 309.029 19.3798 306.445L17.9373 306.857C18.678 309.455 19.4493 312.008 20.2427 314.509L21.6724 314.055ZM17.3237 298.782C16.685 296.24 16.0817 293.663 15.521 291.06L14.0546 291.376C14.6191 293.997 15.2263 296.589 15.8689 299.147L17.3237 298.782ZM13.9923 283.276C13.5332 280.682 13.1218 278.068 12.7649 275.44L11.2785 275.642C11.6382 278.291 12.0528 280.925 12.5153 283.537L13.9923 283.276ZM11.8688 267.565C11.6291 264.936 11.4498 262.3 11.3373 259.661L9.83871 259.725C9.9522 262.389 10.1332 265.05 10.375 267.701L11.8688 267.565ZM11.2076 251.744C11.2358 249.102 11.3378 246.464 11.5202 243.836L10.0238 243.732C9.83925 246.391 9.73617 249.058 9.70769 251.728L11.2076 251.744ZM12.3179 235.969C12.6699 233.354 13.1097 230.754 13.6441 228.177L12.1754 227.872C11.6335 230.486 11.1878 233.12 10.8313 235.769L12.3179 235.969ZM15.5391 220.509C15.9043 219.245 16.2948 217.987 16.7115 216.737L15.2885 216.263C14.8653 217.533 14.4687 218.81 14.098 220.093L15.5391 220.509ZM16.7115 216.737C17.136 215.464 17.5335 214.203 17.9052 212.954L16.4675 212.526C16.1006 213.759 15.7079 215.005 15.2885 216.263L16.7115 216.737ZM19.8848 205.368C20.4738 202.737 20.9481 200.159 21.3184 197.629L19.8342 197.412C19.4694 199.905 19.0019 202.446 18.4211 205.041L19.8848 205.368ZM22.1531 189.803C22.3315 187.137 22.3985 184.522 22.3679 181.95L20.868 181.968C20.8981 184.501 20.8322 187.077 20.6564 189.703L22.1531 189.803ZM21.9742 174.089C21.7434 171.452 21.4193 168.855 21.0188 166.292L19.5367 166.524C19.9325 169.056 20.2522 171.619 20.4799 174.22L21.9742 174.089ZM19.5788 158.573C19.0274 156.008 18.4136 153.469 17.7556 150.946L16.3041 151.325C16.9576 153.83 17.5662 156.348 18.1124 158.888L19.5788 158.573ZM15.6613 143.399C14.9322 140.899 14.1765 138.405 13.4125 135.91L11.9782 136.349C12.7415 138.842 13.495 141.329 14.2213 143.819L15.6613 143.399ZM11.1232 128.443C10.3691 125.965 9.62413 123.476 8.90483 120.967L7.46291 121.38C8.18531 123.901 8.93288 126.398 9.68812 128.88L11.1232 128.443ZM6.86267 113.453C6.22709 110.958 5.63206 108.435 5.0932 105.876L3.62539 106.185C4.16916 108.767 4.7691 111.311 5.40908 113.823L6.86267 113.453ZM3.68537 98.2387C3.28926 95.713 2.95867 93.1464 2.70735 90.5316L1.21423 90.6752C1.4686 93.3216 1.80306 95.9179 2.20348 98.4712L3.68537 98.2387ZM2.21268 82.7927C2.13341 80.2583 2.13479 77.6753 2.22807 75.0378L0.729009 74.9848C0.634525 77.6564 0.633129 80.2728 0.713412 82.8396L2.21268 82.7927ZM2.76157 67.2774C3.01717 64.7715 3.35821 62.2151 3.79329 59.6037L2.31369 59.3572C1.8734 61.9998 1.52813 64.5877 1.26931 67.1252L2.76157 67.2774ZM5.29751 51.9986C5.58492 50.7412 5.89418 49.4711 6.22614 48.1878L4.77395 47.8122C4.43845 49.1091 4.12583 50.393 3.83523 51.6643L5.29751 51.9986ZM6.22614 48.1878C6.55128 46.931 6.92371 45.7207 7.34124 44.5553L5.92913 44.0494C5.4959 45.2586 5.11018 46.5124 4.77395 47.8122L6.22614 48.1878ZM10.5391 37.8036C11.8569 35.6272 13.3745 33.6466 15.0709 31.8435L13.9784 30.8156C12.2117 32.6935 10.6297 34.7579 9.25595 37.0267L10.5391 37.8036ZM20.7203 26.9159C22.722 25.4761 24.878 24.189 27.169 23.0387L26.4959 21.6982C24.1413 22.8804 21.9166 24.2077 19.8444 25.6982L20.7203 26.9159ZM34.1414 20.0832C36.4663 19.2554 38.8876 18.5305 41.3896 17.8959L41.0208 16.4419C38.4788 17.0867 36.0122 17.8249 33.6382 18.6701L34.1414 20.0832ZM48.8307 16.3018C51.2943 15.8613 53.8135 15.4889 56.3754 15.1741L56.1924 13.6853C53.6068 14.0031 51.0603 14.3794 48.5667 14.8252L48.8307 16.3018ZM63.9564 14.4093C66.4736 14.2057 69.0174 14.0455 71.5765 13.9192L71.5026 12.4211C68.9301 12.5479 66.3705 12.7092 63.8355 12.9142L63.9564 14.4093ZM79.2162 13.6353C81.7657 13.5681 84.3184 13.5252 86.8632 13.4975L86.8469 11.9976C84.2962 12.0253 81.7356 12.0684 79.1767 12.1358L79.2162 13.6353ZM94.5176 13.4509C97.0984 13.4446 99.6566 13.4446 102.185 13.4413L102.183 11.9413C99.6575 11.9446 97.0956 11.9446 94.5139 11.9509L94.5176 13.4509ZM109.853 13.4097C112.46 13.3877 115.017 13.3505 117.508 13.2861L117.47 11.7866C114.989 11.8507 112.442 11.8878 109.84 11.9097L109.853 13.4097ZM125.207 12.975C127.872 12.8205 130.434 12.6141 132.871 12.3379L132.702 10.8475C130.299 11.1199 127.765 11.3242 125.12 11.4775L125.207 12.975ZM140.525 11.1273C143.265 10.5421 145.767 9.80528 147.979 8.87458L147.397 7.49204C145.294 8.37703 142.886 9.08913 140.212 9.66038L140.525 11.1273ZM154.606 4.59868C155.562 3.62692 156.362 2.54625 156.986 1.34602L155.655 0.653981C155.104 1.71396 154.395 2.67465 153.537 3.54662L154.606 4.59868Z" fill="#E1E8FC"/>
</svg>
