<svg width="121" height="1135" viewBox="0 0 121 1135" fill="none" xmlns="http://www.w3.org/2000/svg">
<path d="M5.67202 1134.55C5.97781 1134.83 6.4522 1134.81 6.73161 1134.51L11.2849 1129.52C11.5643 1129.22 11.5429 1128.74 11.2371 1128.46C10.9313 1128.18 10.457 1128.21 10.1775 1128.51L6.1302 1132.94L1.70087 1128.89C1.39508 1128.61 0.920691 1128.64 0.641281 1128.94C0.361869 1129.25 0.383246 1129.72 0.689028 1130L5.67202 1134.55ZM119.464 440.524L120.214 440.493L119.464 440.524ZM34.3181 956.459L35.0543 956.602L34.3181 956.459ZM6.79295 1129.9C6.7841 1129.48 6.44121 1129.16 6.02709 1129.17C5.61297 1129.17 5.28444 1129.52 5.29329 1129.93L6.79295 1129.9ZM5.2899 1121.72C5.28195 1122.13 5.61123 1122.47 6.02537 1122.48C6.43951 1122.49 6.78168 1122.16 6.78962 1121.75L5.2899 1121.72ZM7.08724 1113.58C7.10902 1113.17 6.79136 1112.81 6.37772 1112.79C5.96408 1112.77 5.6111 1113.09 5.58932 1113.5L7.08724 1113.58ZM6.13794 1105.31C6.10467 1105.73 6.4124 1106.09 6.82528 1106.12C7.23815 1106.15 7.59982 1105.85 7.63309 1105.43L6.13794 1105.31ZM8.38792 1097.29C8.43085 1096.88 8.13168 1096.51 7.7197 1096.47C7.30772 1096.43 6.93893 1096.73 6.896 1097.14L8.38792 1097.29ZM7.82934 1088.99C7.77823 1089.4 8.07001 1089.77 8.48106 1089.83C8.89211 1089.88 9.26676 1089.58 9.31787 1089.17L7.82934 1088.99ZM10.3983 1081.06C10.4564 1080.65 10.171 1080.27 9.76091 1080.21C9.35078 1080.16 8.97123 1080.44 8.91314 1080.85L10.3983 1081.06ZM10.1229 1072.75C10.0589 1073.15 10.3387 1073.54 10.7479 1073.6C11.1572 1073.67 11.5408 1073.39 11.6049 1072.98L10.1229 1072.75ZM12.9218 1064.9C12.9909 1064.49 12.7159 1064.1 12.3075 1064.03C11.8991 1063.96 11.512 1064.24 11.4429 1064.65L12.9218 1064.9ZM12.8546 1056.57C12.7812 1056.98 13.0521 1057.37 13.4597 1057.45C13.8674 1057.52 14.2574 1057.25 14.3308 1056.84L12.8546 1056.57ZM15.8194 1048.79C15.8966 1048.39 15.6292 1047.99 15.2222 1047.92C14.8152 1047.84 14.4228 1048.11 14.3457 1048.51L15.8194 1048.79ZM15.9035 1040.47C15.8233 1040.87 16.0877 1041.27 16.4941 1041.35C16.9004 1041.43 17.2949 1041.16 17.3751 1040.76L15.9035 1040.47ZM18.9858 1032.73C19.0686 1032.33 18.8066 1031.93 18.4007 1031.85C17.9949 1031.76 17.5988 1032.03 17.5161 1032.43L18.9858 1032.73ZM19.1733 1024.41C19.0885 1024.81 19.3485 1025.21 19.754 1025.29C20.1594 1025.38 20.5568 1025.12 20.6416 1024.71L19.1733 1024.41ZM22.3321 1016.7C22.4183 1016.3 22.1598 1015.9 21.7546 1015.81C21.3495 1015.73 20.9512 1015.99 20.8649 1016.39L22.3321 1016.7ZM22.5817 1008.38C22.4945 1008.78 22.752 1009.18 23.1569 1009.27C23.5618 1009.36 23.9608 1009.1 24.0481 1008.69L22.5817 1008.38ZM25.7779 1000.69C25.8657 1000.29 25.6086 999.889 25.2038 999.801C24.799 999.713 24.3997 999.97 24.312 1000.38L25.7779 1000.69ZM26.0483 992.367C25.9606 992.771 26.2176 993.171 26.6225 993.258C27.0273 993.346 27.4266 993.089 27.5143 992.684L26.0483 992.367ZM29.2435 984.678C29.3306 984.273 29.0729 983.874 28.6679 983.787C28.263 983.7 27.8641 983.958 27.777 984.363L29.2435 984.678ZM29.487 976.356C29.4012 976.761 29.6601 977.159 30.0654 977.245C30.4706 977.331 30.8687 977.072 30.9545 976.667L29.487 976.356ZM32.6343 968.644C32.7181 968.238 32.4572 967.841 32.0515 967.758C31.6459 967.674 31.2491 967.935 31.1653 968.34L32.6343 968.644ZM32.7938 960.321C32.7129 960.727 32.9766 961.122 33.3829 961.203C33.7891 961.283 34.184 961.02 34.2649 960.613L32.7938 960.321ZM35.8156 952.704C35.8953 952.298 35.6305 951.904 35.224 951.824C34.8176 951.744 34.4234 952.009 34.3436 952.415L35.8156 952.704ZM35.8881 944.619C35.8069 945.025 36.0703 945.42 36.4765 945.502C36.8827 945.583 37.2778 945.319 37.359 944.913L35.8881 944.619ZM38.9292 937.128C39.0118 936.722 38.7496 936.326 38.3437 936.243C37.9378 936.161 37.5418 936.423 37.4593 936.829L38.9292 937.128ZM39.0557 929.043C38.9719 929.449 39.2328 929.845 39.6384 929.929C40.044 930.013 40.4408 929.752 40.5247 929.347L39.0557 929.043ZM42.1437 921.571C42.2287 921.166 41.969 920.768 41.5636 920.683C41.1582 920.598 40.7607 920.858 40.6756 921.263L42.1437 921.571ZM42.3179 913.487C42.2317 913.892 42.4904 914.29 42.8955 914.376C43.3007 914.463 43.6989 914.204 43.7851 913.799L42.3179 913.487ZM45.4467 906.032C45.5339 905.628 45.2763 905.229 44.8714 905.141C44.4664 905.054 44.0675 905.312 43.9803 905.717L45.4467 906.032ZM45.6623 897.949C45.5741 898.354 45.8308 898.753 46.2355 898.841C46.6402 898.929 47.0398 898.673 47.1279 898.268L45.6623 897.949ZM48.826 890.51C48.915 890.105 48.6592 889.705 48.2547 889.616C47.8502 889.527 47.4501 889.783 47.3611 890.187L48.826 890.51ZM49.0766 882.427C48.9868 882.831 49.2418 883.232 49.6462 883.321C50.0505 883.411 50.4511 883.156 50.5409 882.752L49.0766 882.427ZM52.2695 875C52.3601 874.596 52.1057 874.195 51.7015 874.104C51.2973 874.014 50.8963 874.268 50.8058 874.672L52.2695 875ZM52.5486 866.918C52.4575 867.322 52.7111 867.723 53.1152 867.814C53.5193 867.906 53.9207 867.652 54.0118 867.248L52.5486 866.918ZM55.7649 859.501C55.8566 859.097 55.6035 858.695 55.1996 858.604C54.7956 858.512 54.3939 858.765 54.3022 859.169L55.7649 859.501ZM56.0661 851.42C55.9739 851.824 56.2266 852.226 56.6304 852.318C57.0342 852.41 57.4363 852.158 57.5285 851.754L56.0661 851.42ZM59.3 844.01C59.3926 843.607 59.1403 843.204 58.7366 843.112C58.3328 843.019 57.9305 843.271 57.8379 843.675L59.3 844.01ZM59.6169 835.931C59.524 836.334 59.7759 836.737 60.1796 836.83C60.5833 836.923 60.9858 836.671 61.0787 836.267L59.6169 835.931ZM62.8625 828.525C62.9556 828.122 62.7039 827.719 62.3003 827.626C61.8967 827.533 61.494 827.784 61.4009 828.188L62.8625 828.525ZM63.1886 820.447C63.0953 820.85 63.3468 821.253 63.7504 821.346C64.154 821.44 64.5568 821.188 64.65 820.785L63.1886 820.447ZM66.4401 813.043C66.5334 812.64 66.2819 812.237 65.8784 812.143C65.4748 812.05 65.072 812.301 64.9787 812.705L66.4401 813.043ZM66.7688 804.966C66.6755 805.369 66.927 805.772 67.3305 805.866C67.7341 805.959 68.1369 805.707 68.2303 805.304L66.7688 804.966ZM70.0203 797.561C70.1136 797.157 69.862 796.755 69.4584 796.661C69.0548 796.568 68.6521 796.82 68.5588 797.223L70.0203 797.561ZM70.3452 789.485C70.2521 789.889 70.5039 790.291 70.9075 790.384C71.3111 790.477 71.7138 790.226 71.8068 789.822L70.3452 789.485ZM73.5907 782.076C73.6835 781.672 73.4315 781.27 73.0278 781.177C72.6242 781.084 72.2217 781.336 72.1288 781.74L73.5907 782.076ZM73.905 774.001C73.8125 774.405 74.0649 774.807 74.4686 774.9C74.8724 774.992 75.2747 774.74 75.3672 774.336L73.905 774.001ZM77.1384 766.585C77.2305 766.181 76.9777 765.779 76.5739 765.687C76.17 765.595 75.768 765.848 75.6759 766.252L77.1384 766.585ZM77.4356 758.511C77.344 758.915 77.5973 759.316 78.0013 759.408C78.4052 759.5 78.8069 759.246 78.8985 758.842L77.4356 758.511ZM80.6506 751.086C80.7415 750.682 80.4877 750.28 80.0836 750.19C79.6795 750.099 79.2781 750.352 79.1872 750.756L80.6506 751.086ZM80.9242 743.01C80.8339 743.414 81.0884 743.815 81.4927 743.905C81.8969 743.996 82.2978 743.741 82.3881 743.337L80.9242 743.01ZM84.1139 735.575C84.2034 735.171 83.9481 734.77 83.5437 734.681C83.1393 734.591 82.7389 734.846 82.6493 735.251L84.1139 735.575ZM84.357 727.497C84.2683 727.902 84.5245 728.302 84.9291 728.391C85.3337 728.479 85.7336 728.223 85.8222 727.818L84.357 727.497ZM87.515 720.05C87.6027 719.645 87.3456 719.246 86.9408 719.158C86.5359 719.07 86.1367 719.328 86.049 719.732L87.515 720.05ZM87.7204 711.97C87.6337 712.375 87.8918 712.774 88.2969 712.861C88.7019 712.947 89.1005 712.689 89.1872 712.284L87.7204 711.97ZM90.8399 704.508C90.9254 704.102 90.6662 703.705 90.2609 703.619C89.8556 703.534 89.4578 703.793 89.3722 704.198L90.8399 704.508ZM91.0004 696.426C90.9161 696.832 91.1765 697.229 91.582 697.313C91.9876 697.397 92.3847 697.137 92.469 696.731L91.0004 696.426ZM94.0745 688.946C94.1575 688.54 93.8958 688.144 93.49 688.061C93.0842 687.978 92.6879 688.24 92.6049 688.645L94.0745 688.946ZM94.1826 680.863C94.101 681.269 94.3641 681.664 94.7702 681.746C95.1763 681.827 95.5716 681.564 95.6532 681.158L94.1826 680.863ZM97.2041 673.362C97.2842 672.956 97.0196 672.561 96.6132 672.481C96.2068 672.401 95.8125 672.666 95.7324 673.072L97.2041 673.362ZM97.2521 665.277C97.1736 665.684 97.4398 666.077 97.8465 666.156C98.2532 666.234 98.6465 665.968 98.7249 665.561L97.2521 665.277ZM100.214 657.754C100.29 657.347 100.023 656.955 99.6157 656.878C99.2086 656.801 98.8164 657.069 98.7397 657.476L100.214 657.754ZM100.194 649.668C100.119 650.075 100.388 650.466 100.796 650.541C101.203 650.616 101.594 650.347 101.669 649.939L100.194 649.668ZM103.088 642.12C103.161 641.712 102.889 641.322 102.482 641.249C102.074 641.176 101.684 641.448 101.611 641.855L103.088 642.12ZM102.991 634.033C102.92 634.441 103.194 634.83 103.602 634.901C104.01 634.972 104.398 634.698 104.469 634.29L102.991 634.033ZM105.81 626.457C105.879 626.049 105.604 625.662 105.195 625.593C104.787 625.524 104.4 625.8 104.331 626.208L105.81 626.457ZM105.629 618.372C105.563 618.781 105.84 619.166 106.249 619.232C106.658 619.299 107.043 619.022 107.11 618.613L105.629 618.372ZM108.364 610.766C108.428 610.357 108.149 609.973 107.739 609.909C107.33 609.845 106.946 610.124 106.882 610.534L108.364 610.766ZM108.09 602.682C108.028 603.092 108.31 603.474 108.72 603.536C109.129 603.597 109.511 603.315 109.573 602.906L108.09 602.682ZM110.732 595.045C110.792 594.635 110.507 594.254 110.097 594.195C109.687 594.136 109.307 594.421 109.248 594.831L110.732 595.045ZM110.356 586.965C110.3 587.375 110.586 587.753 110.997 587.81C111.407 587.866 111.786 587.579 111.842 587.169L110.356 586.965ZM112.897 579.293C112.951 578.882 112.662 578.506 112.251 578.452C111.84 578.399 111.464 578.688 111.41 579.099L112.897 579.293ZM112.41 571.219C112.359 571.63 112.651 572.004 113.062 572.055C113.473 572.105 113.848 571.813 113.898 571.402L112.41 571.219ZM114.841 563.512C114.888 563.1 114.593 562.728 114.182 562.681C113.77 562.633 113.398 562.928 113.351 563.339L114.841 563.512ZM114.232 555.445C114.188 555.857 114.486 556.227 114.898 556.272C115.309 556.316 115.679 556.018 115.724 555.606L114.232 555.445ZM116.543 547.702C116.584 547.289 116.283 546.922 115.871 546.881C115.459 546.84 115.092 547.141 115.051 547.553L116.543 547.702ZM115.805 539.646C115.767 540.059 116.071 540.424 116.484 540.461C116.896 540.499 117.261 540.195 117.299 539.782L115.805 539.646ZM117.986 531.865C118.02 531.452 117.713 531.09 117.3 531.056C116.887 531.022 116.525 531.329 116.491 531.742L117.986 531.865ZM117.107 523.824C117.077 524.237 117.387 524.596 117.8 524.627C118.213 524.657 118.573 524.347 118.603 523.933L117.107 523.824ZM119.148 516.004C119.174 515.59 118.861 515.234 118.447 515.207C118.034 515.181 117.677 515.495 117.651 515.908L119.148 516.004ZM118.12 507.981C118.097 508.395 118.415 508.748 118.828 508.771C119.242 508.793 119.595 508.476 119.618 508.062L118.12 507.981ZM120.01 500.123C120.028 499.709 119.707 499.359 119.294 499.34C118.88 499.322 118.529 499.642 118.511 500.056L120.01 500.123ZM118.822 492.123C118.808 492.537 119.132 492.884 119.546 492.898C119.96 492.912 120.307 492.588 120.321 492.174L118.822 492.123ZM120.55 484.227C120.56 483.812 120.232 483.469 119.818 483.459C119.404 483.449 119.06 483.777 119.051 484.191L120.55 484.227ZM119.194 476.254C119.189 476.668 119.52 477.008 119.935 477.014C120.349 477.019 120.689 476.687 120.694 476.273L119.194 476.254ZM120.749 468.322C120.75 467.907 120.415 467.571 120 467.571C119.586 467.57 119.25 467.905 119.249 468.32L120.749 468.322ZM119.214 460.383C119.219 460.797 119.558 461.129 119.972 461.125C120.386 461.121 120.719 460.781 120.714 460.367L119.214 460.383ZM120.586 452.415C120.577 452.001 120.234 451.673 119.82 451.682C119.406 451.691 119.077 452.034 119.086 452.449L120.586 452.415ZM118.863 444.516C118.877 444.93 119.224 445.254 119.638 445.24C120.052 445.225 120.376 444.878 120.362 444.464L118.863 444.516ZM120.05 436.458C120.033 436.044 119.684 435.722 119.27 435.739C118.856 435.756 118.534 436.105 118.551 436.519L120.05 436.458ZM118.221 428.464C118.238 428.878 118.588 429.199 119.002 429.182C119.415 429.165 119.737 428.816 119.72 428.402L118.221 428.464ZM119.387 420.357C119.369 419.944 119.02 419.622 118.606 419.639C118.192 419.657 117.871 420.006 117.888 420.42L119.387 420.357ZM117.549 412.358C117.566 412.772 117.916 413.094 118.33 413.076C118.744 413.058 119.065 412.709 119.047 412.295L117.549 412.358ZM118.703 404.258C118.685 403.844 118.335 403.523 117.921 403.541C117.508 403.559 117.187 403.909 117.205 404.323L118.703 404.258ZM116.852 396.256C116.871 396.67 117.221 396.99 117.635 396.972C118.049 396.954 118.369 396.604 118.351 396.19L116.852 396.256ZM117.992 388.148C117.974 387.734 117.623 387.414 117.209 387.433C116.796 387.451 116.475 387.802 116.494 388.216L117.992 388.148ZM116.126 380.157C116.145 380.571 116.496 380.891 116.91 380.872C117.324 380.853 117.644 380.502 117.625 380.088L116.126 380.157ZM117.248 372.04C117.229 371.626 116.877 371.307 116.463 371.327C116.05 371.346 115.73 371.698 115.75 372.111L117.248 372.04ZM115.363 364.063C115.383 364.476 115.735 364.795 116.149 364.775C116.562 364.755 116.881 364.403 116.861 363.99L115.363 364.063ZM116.463 355.935C116.442 355.521 116.09 355.203 115.676 355.224C115.262 355.244 114.944 355.596 114.965 356.01L116.463 355.935ZM114.555 347.973C114.576 348.386 114.929 348.704 115.343 348.683C115.756 348.661 116.074 348.309 116.053 347.895L114.555 347.973ZM115.628 339.833C115.606 339.419 115.253 339.102 114.839 339.124C114.426 339.146 114.109 339.5 114.131 339.913L115.628 339.833ZM113.694 331.888C113.717 332.301 114.071 332.618 114.484 332.595C114.898 332.572 115.214 332.218 115.192 331.805L113.694 331.888ZM114.737 323.735C114.713 323.322 114.359 323.006 113.945 323.029C113.532 323.053 113.216 323.407 113.239 323.821L114.737 323.735ZM112.771 315.802C112.795 316.215 113.15 316.53 113.564 316.506C113.977 316.481 114.293 316.126 114.268 315.712L112.771 315.802ZM113.779 307.642C113.753 307.228 113.397 306.914 112.984 306.939C112.57 306.965 112.256 307.321 112.281 307.734L113.779 307.642ZM111.776 299.712C111.802 300.126 112.159 300.439 112.572 300.413C112.986 300.386 113.299 300.029 113.273 299.616L111.776 299.712ZM112.744 291.553C112.716 291.14 112.359 290.827 111.945 290.855C111.532 290.883 111.219 291.24 111.247 291.654L112.744 291.553ZM110.699 283.63C110.728 284.043 111.086 284.355 111.499 284.326C111.912 284.297 112.224 283.939 112.195 283.526L110.699 283.63ZM111.621 275.471C111.591 275.058 111.232 274.747 110.819 274.777C110.405 274.807 110.095 275.166 110.125 275.58L111.621 275.471ZM109.528 267.556C109.56 267.969 109.92 268.279 110.333 268.247C110.746 268.216 111.055 267.855 111.024 267.442L109.528 267.556ZM110.398 259.395C110.366 258.982 110.004 258.674 109.591 258.706C109.178 258.739 108.87 259.101 108.903 259.513L110.398 259.395ZM108.251 251.492C108.285 251.905 108.648 252.212 109.061 252.178C109.473 252.143 109.78 251.781 109.746 251.368L108.251 251.492ZM109.062 243.326C109.026 242.914 108.662 242.608 108.25 242.644C107.837 242.68 107.531 243.044 107.567 243.457L109.062 243.326ZM106.853 235.441C106.891 235.853 107.255 236.157 107.668 236.119C108.08 236.082 108.384 235.717 108.347 235.304L106.853 235.441ZM107.596 227.268C107.556 226.855 107.19 226.553 106.778 226.593C106.365 226.632 106.063 226.998 106.103 227.411L107.596 227.268ZM105.317 219.404C105.359 219.816 105.726 220.117 106.139 220.076C106.551 220.034 106.851 219.666 106.81 219.254L105.317 219.404ZM105.982 211.221C105.939 210.809 105.57 210.511 105.158 210.554C104.746 210.597 104.447 210.967 104.491 211.379L105.982 211.221ZM103.626 203.387C103.671 203.799 104.042 204.096 104.454 204.05C104.865 204.004 105.162 203.633 105.116 203.222L103.626 203.387ZM104.202 195.19C104.154 194.779 103.781 194.484 103.37 194.532C102.958 194.581 102.664 194.953 102.712 195.364L104.202 195.19ZM101.756 187.395C101.807 187.806 102.181 188.099 102.592 188.048C103.003 187.998 103.295 187.623 103.245 187.212L101.756 187.395ZM102.23 179.181C102.176 178.77 101.8 178.481 101.389 178.534C100.979 178.587 100.689 178.963 100.742 179.374L102.23 179.181ZM99.6835 171.434C99.7397 171.844 100.118 172.132 100.528 172.075C100.939 172.019 101.226 171.641 101.17 171.23L99.6835 171.434ZM100.039 163.201C99.9799 162.791 99.5995 162.507 99.1896 162.566C98.7796 162.626 98.4954 163.006 98.5547 163.416L100.039 163.201ZM97.373 155.475C97.4356 155.885 97.8183 156.166 98.2278 156.103C98.6372 156.041 98.9184 155.658 98.8557 155.249L97.373 155.475ZM97.5981 147.263C97.5318 146.854 97.1466 146.576 96.7378 146.642C96.3289 146.709 96.0511 147.094 96.1174 147.503L97.5981 147.263ZM94.7924 139.561C94.8625 139.97 95.2503 140.244 95.6585 140.174C96.0668 140.103 96.3409 139.716 96.2707 139.307L94.7924 139.561ZM94.868 131.382C94.7937 130.974 94.4032 130.704 93.9957 130.779C93.5882 130.853 93.3181 131.243 93.3924 131.651L94.868 131.382ZM91.8997 123.712C91.9785 124.118 92.3721 124.384 92.7787 124.305C93.1854 124.226 93.4511 123.833 93.3723 123.426L91.8997 123.712ZM91.7968 115.549C91.7131 115.143 91.3164 114.882 90.9107 114.966C90.505 115.05 90.244 115.446 90.3277 115.852L91.7968 115.549ZM88.6445 107.954C88.7335 108.359 89.1336 108.614 89.5382 108.525C89.9427 108.436 90.1984 108.036 90.1094 107.632L88.6445 107.954ZM88.3177 99.758C88.2229 99.3548 87.8191 99.1048 87.4159 99.1997C87.0127 99.2945 86.7627 99.6983 86.8576 100.102L88.3177 99.758ZM84.966 92.3292C85.0671 92.7309 85.4747 92.9745 85.8764 92.8734C86.2781 92.7722 86.5217 92.3646 86.4206 91.9629L84.966 92.3292ZM84.3707 84.1069C84.2625 83.707 83.8507 83.4706 83.4509 83.5787C83.051 83.6868 82.8145 84.0986 82.9227 84.4985L84.3707 84.1069ZM80.7493 76.7513C80.8651 77.149 81.2813 77.3776 81.679 77.2618C82.0767 77.146 82.3053 76.7298 82.1895 76.3321L80.7493 76.7513ZM79.864 68.6408C79.7398 68.2456 79.3189 68.0259 78.9237 68.15C78.5285 68.2741 78.3088 68.6951 78.4329 69.0903L79.864 68.6408ZM75.9252 61.4211C76.0587 61.8132 76.4848 62.0229 76.8769 61.8894C77.269 61.7559 77.4787 61.3298 77.3452 60.9377L75.9252 61.4211ZM74.6367 53.3091C74.4929 52.9207 74.0613 52.7224 73.6729 52.8663C73.2845 53.0101 73.0862 53.4416 73.2301 53.8301L74.6367 53.3091ZM70.3328 46.3454C70.4882 46.7294 70.9254 46.9147 71.3094 46.7593C71.6933 46.6039 71.8786 46.1667 71.7232 45.7827L70.3328 46.3454ZM68.5787 38.3678C68.4104 37.9893 67.9672 37.8189 67.5887 37.9871C67.2102 38.1554 67.0398 38.5987 67.208 38.9771L68.5787 38.3678ZM63.8056 31.6974C63.9884 32.0691 64.4379 32.2223 64.8096 32.0395C65.1813 31.8568 65.3345 31.4073 65.1517 31.0356L63.8056 31.6974ZM61.4159 23.836C61.2168 23.4728 60.7609 23.3397 60.3977 23.5388C60.0345 23.7379 59.9014 24.1937 60.1005 24.557L61.4159 23.836ZM56.0679 17.616C56.2853 17.9686 56.7474 18.0782 57.0999 17.8608C57.4525 17.6434 57.5621 17.1814 57.3447 16.8288L56.0679 17.616ZM52.8948 10.0571C52.6569 9.71802 52.1892 9.63595 51.8501 9.87381C51.511 10.1117 51.4289 10.5794 51.6668 10.9185L52.8948 10.0571ZM46.8539 4.52389C47.1145 4.84587 47.5868 4.89564 47.9087 4.63505C48.2307 4.37447 48.2805 3.90221 48.0199 3.58023L46.8539 4.52389ZM6.92718 1133.97C6.86683 1132.63 6.82228 1131.27 6.79295 1129.9L5.29329 1129.93C5.32287 1131.31 5.3678 1132.68 5.4287 1134.03L6.92718 1133.97ZM6.78962 1121.75C6.84094 1119.07 6.94144 1116.35 7.08724 1113.58L5.58932 1113.5C5.44271 1116.28 5.34156 1119.03 5.2899 1121.72L6.78962 1121.75ZM7.63309 1105.43C7.84908 1102.75 8.10177 1100.04 8.38792 1097.29L6.896 1097.14C6.60873 1099.89 6.35493 1102.62 6.13794 1105.31L7.63309 1105.43ZM9.31787 1089.17C9.65127 1086.49 10.0124 1083.79 10.3983 1081.06L8.91314 1080.85C8.52609 1083.58 8.16385 1086.3 7.82934 1088.99L9.31787 1089.17ZM11.6049 1072.98C12.024 1070.3 12.4639 1067.6 12.9218 1064.9L11.4429 1064.65C10.9839 1067.36 10.5431 1070.06 10.1229 1072.75L11.6049 1072.98ZM14.3308 1056.84C14.8129 1054.17 15.31 1051.48 15.8194 1048.79L14.3457 1048.51C13.8354 1051.21 13.3376 1053.89 12.8546 1056.57L14.3308 1056.84ZM17.3751 1040.76C17.903 1038.08 18.4407 1035.41 18.9858 1032.73L17.5161 1032.43C16.9704 1035.11 16.4321 1037.79 15.9035 1040.47L17.3751 1040.76ZM20.6416 1024.71C21.2009 1022.04 21.7652 1019.37 22.3321 1016.7L20.8649 1016.39C20.2978 1019.05 19.7331 1021.73 19.1733 1024.41L20.6416 1024.71ZM24.0481 1008.69C24.6255 1006.01 25.203 1003.35 25.7779 1000.69L24.312 1000.38C23.737 1003.03 23.1594 1005.7 22.5817 1008.38L24.0481 1008.69ZM27.5143 992.684C28.097 989.994 28.6744 987.324 29.2435 984.678L27.777 984.363C27.2081 987.008 26.631 989.677 26.0483 992.367L27.5143 992.684ZM30.9545 976.667C31.5275 973.961 32.0885 971.285 32.6343 968.644L31.1653 968.34C30.6201 970.979 30.0597 973.652 29.487 976.356L30.9545 976.667ZM34.2649 960.613C34.5333 959.265 34.7966 957.928 35.0543 956.602L33.5819 956.316C33.3246 957.64 33.0617 958.975 32.7938 960.321L34.2649 960.613ZM35.0543 956.602C35.3069 955.302 35.5606 954.003 35.8156 952.704L34.3436 952.415C34.0885 953.715 33.8346 955.015 33.5819 956.316L35.0543 956.602ZM37.359 944.913C37.878 942.317 38.4015 939.722 38.9292 937.128L37.4593 936.829C36.9313 939.424 36.4075 942.021 35.8881 944.619L37.359 944.913ZM40.5247 929.347C41.0605 926.754 41.6003 924.162 42.1437 921.571L40.6756 921.263C40.132 923.855 39.5919 926.449 39.0557 929.043L40.5247 929.347ZM43.7851 913.799C44.3357 911.209 44.8897 908.62 45.4467 906.032L43.9803 905.717C43.423 908.306 42.8688 910.896 42.3179 913.487L43.7851 913.799ZM47.1279 898.268C47.6912 895.681 48.2574 893.095 48.826 890.51L47.3611 890.187C46.7922 892.773 46.2258 895.361 45.6623 897.949L47.1279 898.268ZM50.5409 882.752C51.1149 880.167 51.6912 877.583 52.2695 875L50.8058 874.672C50.2273 877.256 49.6508 879.841 49.0766 882.427L50.5409 882.752ZM54.0118 867.248C54.5946 864.664 55.179 862.082 55.7649 859.501L54.3022 859.169C53.7161 861.751 53.1315 864.334 52.5486 866.918L54.0118 867.248ZM57.5285 851.754C58.1179 849.171 58.7085 846.59 59.3 844.01L57.8379 843.675C57.2463 846.255 56.6556 848.837 56.0661 851.42L57.5285 851.754ZM61.0787 836.267C61.6727 833.685 62.2674 831.105 62.8625 828.525L61.4009 828.188C60.8058 830.768 60.211 833.349 59.6169 835.931L61.0787 836.267ZM64.65 820.785C65.2467 818.203 65.8435 815.622 66.4401 813.043L64.9787 812.705C64.3821 815.284 63.7853 817.865 63.1886 820.447L64.65 820.785ZM68.2303 805.304C68.8275 802.722 69.4243 800.141 70.0203 797.561L68.5588 797.223C67.9628 799.803 67.3661 802.384 66.7688 804.966L68.2303 805.304ZM71.8068 789.822C72.4026 787.239 72.9973 784.657 73.5907 782.076L72.1288 781.74C71.5355 784.32 70.9409 786.902 70.3452 789.485L71.8068 789.822ZM75.3672 774.336C75.9593 771.751 76.5498 769.167 77.1384 766.585L75.6759 766.252C75.0874 768.834 74.497 771.417 73.905 774.001L75.3672 774.336ZM78.8985 758.842C79.4848 756.255 80.0689 753.67 80.6506 751.086L79.1872 750.756C78.6057 753.34 78.0217 755.925 77.4356 758.511L78.8985 758.842ZM82.3881 743.337C82.9662 740.748 83.5416 738.161 84.1139 735.575L82.6493 735.251C82.0772 737.836 81.5021 740.422 80.9242 743.01L82.3881 743.337ZM85.8222 727.818C86.3899 725.227 86.9542 722.638 87.515 720.05L86.049 719.732C85.4885 722.319 84.9244 724.908 84.357 727.497L85.8222 727.818ZM89.1872 712.284C89.7421 709.691 90.2931 707.098 90.8399 704.508L89.3722 704.198C88.8258 706.787 88.275 709.378 87.7204 711.97L89.1872 712.284ZM92.469 696.731C93.0088 694.135 93.5441 691.54 94.0745 688.946L92.6049 688.645C92.0748 691.237 91.5399 693.831 91.0004 696.426L92.469 696.731ZM95.6532 681.158C96.1755 678.558 96.6925 675.959 97.2041 673.362L95.7324 673.072C95.2212 675.667 94.7045 678.264 94.1826 680.863L95.6532 681.158ZM98.7249 665.561C99.2271 662.957 99.7235 660.355 100.214 657.754L98.7397 657.476C98.2499 660.075 97.7539 662.675 97.2521 665.277L98.7249 665.561ZM101.669 649.939C102.148 647.331 102.622 644.725 103.088 642.12L101.611 641.855C101.145 644.458 100.673 647.062 100.194 649.668L101.669 649.939ZM104.469 634.29C104.923 631.678 105.371 629.067 105.81 626.457L104.331 626.208C103.892 628.815 103.445 631.423 102.991 634.033L104.469 634.29ZM107.11 618.613C107.536 615.996 107.954 613.38 108.364 610.766L106.882 610.534C106.473 613.145 106.055 615.757 105.629 618.372L107.11 618.613ZM109.573 602.906C109.968 600.284 110.355 597.663 110.732 595.045L109.248 594.831C108.871 597.446 108.484 600.063 108.09 602.682L109.573 602.906ZM111.842 587.169C112.203 584.542 112.555 581.917 112.897 579.293L111.41 579.099C111.068 581.719 110.717 584.341 110.356 586.965L111.842 587.169ZM113.898 571.402C114.223 568.77 114.537 566.14 114.841 563.512L113.351 563.339C113.047 565.964 112.733 568.591 112.41 571.219L113.898 571.402ZM115.724 555.606C116.008 552.969 116.281 550.335 116.543 547.702L115.051 547.553C114.789 550.182 114.516 552.813 114.232 555.445L115.724 555.606ZM117.299 539.782C117.539 537.141 117.768 534.502 117.986 531.865L116.491 531.742C116.274 534.375 116.045 537.009 115.805 539.646L117.299 539.782ZM118.603 523.933C118.797 521.288 118.979 518.645 119.148 516.004L117.651 515.908C117.482 518.545 117.301 521.183 117.107 523.824L118.603 523.933ZM119.618 508.062C119.762 505.414 119.892 502.767 120.01 500.123L118.511 500.056C118.394 502.696 118.263 505.337 118.12 507.981L119.618 508.062ZM120.321 492.174C120.412 489.523 120.488 486.874 120.55 484.227L119.051 484.191C118.989 486.833 118.912 489.477 118.822 492.123L120.321 492.174ZM120.694 476.273C120.727 473.621 120.746 470.97 120.749 468.322L119.249 468.32C119.246 470.962 119.227 473.607 119.194 476.254L120.694 476.273ZM120.714 460.367C120.687 457.715 120.645 455.064 120.586 452.415L119.086 452.449C119.145 455.091 119.187 457.736 119.214 460.383L120.714 460.367ZM120.362 444.464C120.317 443.14 120.267 441.816 120.214 440.493L118.715 440.554C118.768 441.874 118.818 443.195 118.863 444.516L120.362 444.464ZM120.214 440.493C120.159 439.147 120.105 437.802 120.05 436.458L118.551 436.519C118.606 437.863 118.66 439.208 118.715 440.554L120.214 440.493ZM119.72 428.402C119.61 425.717 119.498 423.035 119.387 420.357L117.888 420.42C118 423.097 118.111 425.779 118.221 428.464L119.72 428.402ZM119.047 412.295C118.933 409.612 118.819 406.933 118.703 404.258L117.205 404.323C117.32 406.997 117.435 409.676 117.549 412.358L119.047 412.295ZM118.351 396.19C118.233 393.504 118.113 390.824 117.992 388.148L116.494 388.216C116.615 390.891 116.734 393.571 116.852 396.256L118.351 396.19ZM117.625 380.088C117.501 377.4 117.375 374.717 117.248 372.04L115.75 372.111C115.877 374.788 116.002 377.47 116.126 380.157L117.625 380.088ZM116.861 363.99C116.73 361.298 116.597 358.614 116.463 355.935L114.965 356.01C115.099 358.688 115.232 361.372 115.363 364.063L116.861 363.99ZM116.053 347.895C115.913 345.201 115.772 342.513 115.628 339.833L114.131 339.913C114.274 342.593 114.415 345.279 114.555 347.973L116.053 347.895ZM115.192 331.805C115.042 329.107 114.891 326.417 114.737 323.735L113.239 323.821C113.393 326.502 113.545 329.191 113.694 331.888L115.192 331.805ZM114.268 315.712C114.108 313.014 113.944 310.323 113.779 307.642L112.281 307.734C112.447 310.415 112.61 313.104 112.771 315.802L114.268 315.712ZM113.273 299.616C113.099 296.919 112.923 294.232 112.744 291.553L111.247 291.654C111.426 294.33 111.602 297.017 111.776 299.712L113.273 299.616ZM112.195 283.526C112.007 280.831 111.816 278.145 111.621 275.471L110.125 275.58C110.32 278.253 110.511 280.936 110.699 283.63L112.195 283.526ZM111.024 267.442C110.819 264.749 110.611 262.066 110.398 259.395L108.903 259.513C109.115 262.183 109.324 264.864 109.528 267.556L111.024 267.442ZM109.746 251.368C109.522 248.675 109.294 245.995 109.062 243.326L107.567 243.457C107.8 246.123 108.027 248.801 108.251 251.492L109.746 251.368ZM108.347 235.304C108.101 232.612 107.851 229.933 107.596 227.268L106.103 227.411C106.357 230.074 106.607 232.75 106.853 235.441L108.347 235.304ZM106.81 219.254C106.539 216.562 106.264 213.884 105.982 211.221L104.491 211.379C104.772 214.039 105.047 216.714 105.317 219.404L106.81 219.254ZM105.116 203.222C104.817 200.528 104.513 197.851 104.202 195.19L102.712 195.364C103.022 198.022 103.327 200.697 103.626 203.387L105.116 203.222ZM103.245 187.212C102.913 184.517 102.575 181.84 102.23 179.181L100.742 179.374C101.087 182.03 101.425 184.703 101.756 187.395L103.245 187.212ZM101.17 171.23C100.8 168.534 100.424 165.857 100.039 163.201L98.5547 163.416C98.9386 166.068 99.3148 168.741 99.6835 171.434L101.17 171.23ZM98.8557 155.249C98.4449 152.564 98.0258 149.902 97.5981 147.263L96.1174 147.503C96.5444 150.138 96.9628 152.795 97.373 155.475L98.8557 155.249ZM96.2707 139.307C95.8126 136.641 95.3452 133.999 94.868 131.382L93.3924 131.651C93.8686 134.263 94.3351 136.9 94.7924 139.561L96.2707 139.307ZM93.3723 123.426C92.8579 120.773 92.3328 118.147 91.7968 115.549L90.3277 115.852C90.8625 118.444 91.3864 121.064 91.8997 123.712L93.3723 123.426ZM90.1094 107.632C89.5247 104.975 88.9276 102.35 88.3177 99.758L86.8576 100.102C87.4657 102.687 88.0612 105.304 88.6445 107.954L90.1094 107.632ZM86.4206 91.9629C85.7519 89.3073 85.0687 86.6884 84.3707 84.1069L82.9227 84.4985C83.6184 87.0712 84.2993 89.6817 84.966 92.3292L86.4206 91.9629ZM82.1895 76.3321C81.4311 73.7264 80.6561 71.1623 79.864 68.6408L78.4329 69.0903C79.2217 71.6014 79.9937 74.1554 80.7493 76.7513L82.1895 76.3321ZM77.3452 60.9377C76.4626 58.345 75.5599 55.8017 74.6367 53.3091L73.2301 53.8301C74.1485 56.3096 75.0467 58.8404 75.9252 61.4211L77.3452 60.9377ZM71.7232 45.7827C70.6991 43.2523 69.6512 40.7802 68.5787 38.3678L67.208 38.9771C68.2733 41.3734 69.3147 43.8299 70.3328 46.3454L71.7232 45.7827ZM65.1517 31.0356C63.9363 28.5636 62.6913 26.1631 61.4159 23.836L60.1005 24.557C61.3647 26.8636 62.5995 29.2443 63.8056 31.6974L65.1517 31.0356ZM57.3447 16.8288C55.8985 14.4832 54.4156 12.2251 52.8948 10.0571L51.6668 10.9185C53.1697 13.061 54.6364 15.2942 56.0679 17.616L57.3447 16.8288ZM48.0199 3.58023C47.1695 2.52942 46.308 1.50468 45.4352 0.506376L44.3059 1.49362C45.1658 2.47725 46.0151 3.48744 46.8539 4.52389L48.0199 3.58023Z" fill="#E1E8FC"/>
</svg>
