<svg width="945" height="678" viewBox="0 0 945 678" fill="none" xmlns="http://www.w3.org/2000/svg">
<g filter="url(#filter0_f_185_1929)">
<path d="M520.379 2.07896C520.612 1.73618 521.078 1.6468 521.421 1.87933C521.764 2.11186 521.853 2.57825 521.621 2.92104L520.379 2.07896ZM257.037 77.0233C256.748 77.32 256.273 77.3263 255.977 77.0372C255.68 76.7482 255.674 76.2734 255.963 75.9767L257.037 77.0233ZM541.03 676.53C540.738 676.823 540.263 676.823 539.97 676.53L535.197 671.757C534.904 671.464 534.904 670.99 535.197 670.697C535.49 670.404 535.965 670.404 536.257 670.697L540.5 674.939L544.743 670.697C545.036 670.404 545.511 670.404 545.803 670.697C546.096 670.99 546.096 671.464 545.803 671.757L541.03 676.53ZM3 227.5L2.25348 227.572L3 227.5ZM306.5 227.5L306.416 228.245L306.5 227.5ZM618 227.5L617.741 226.796L618 227.5ZM195.173 130.325C195.545 130.144 195.994 130.3 196.175 130.673C196.356 131.045 196.2 131.494 195.827 131.675L195.173 130.325ZM519.205 6.33368C518.958 6.66675 518.489 6.73715 518.156 6.49091C517.823 6.24467 517.752 5.77504 517.999 5.44197L519.205 6.33368ZM512.966 11.6577C513.241 11.3483 513.715 11.3208 514.025 11.5962C514.334 11.8717 514.362 12.3457 514.086 12.6551L512.966 11.6577ZM508.353 18.4509C508.046 18.7288 507.571 18.7051 507.294 18.3979C507.016 18.0908 507.039 17.6165 507.347 17.3386L508.353 18.4509ZM501.112 22.3243C501.451 22.0866 501.919 22.1689 502.156 22.5081C502.394 22.8473 502.312 23.315 501.973 23.5527L501.112 22.3243ZM494.978 27.7853C494.61 27.9751 494.158 27.8305 493.968 27.4624C493.778 27.0942 493.923 26.6419 494.291 26.4521L494.978 27.7853ZM486.974 29.611C487.364 29.4729 487.793 29.6776 487.931 30.0681C488.069 30.4586 487.864 30.8871 487.474 31.0252L486.974 29.611ZM479.609 33.2473C479.205 33.335 478.805 33.0779 478.718 32.6731C478.63 32.2683 478.887 31.869 479.292 31.7813L479.609 33.2473ZM471.383 33.0366C471.795 32.9932 472.164 33.292 472.207 33.7039C472.25 34.1159 471.952 34.485 471.54 34.5283L471.383 33.0366ZM463.403 35.0129C462.988 35.0202 462.647 34.6904 462.64 34.2763C462.632 33.8621 462.962 33.5205 463.376 33.5132L463.403 35.0129ZM455.345 33.3745C455.759 33.3947 456.078 33.7465 456.057 34.1602C456.037 34.5739 455.685 34.8929 455.272 34.8727L455.345 33.3745ZM447.171 34.2687C446.759 34.2286 446.457 33.8618 446.498 33.4495C446.538 33.0373 446.905 32.7356 447.317 32.7758L447.171 34.2687ZM439.305 31.8531C439.715 31.9067 440.005 32.2832 439.951 32.6939C439.898 33.1046 439.521 33.3941 439.11 33.3405L439.305 31.8531ZM431.084 32.2056C430.674 32.1441 430.392 31.7621 430.454 31.3525C430.515 30.9429 430.897 30.6607 431.307 30.7223L431.084 32.2056ZM423.316 29.4815C423.725 29.5463 424.004 29.9305 423.939 30.3397C423.874 30.7488 423.49 31.0279 423.081 30.963L423.316 29.4815ZM415.088 29.6976C414.679 29.6336 414.399 29.2499 414.463 28.8406C414.528 28.4314 414.911 28.1516 415.32 28.2157L415.088 29.6976ZM407.31 26.9997C407.72 27.0594 408.004 27.44 407.944 27.8499C407.885 28.2598 407.504 28.5437 407.094 28.484L407.31 26.9997ZM399.089 27.3892C398.678 27.3372 398.387 26.9619 398.439 26.551C398.491 26.1401 398.866 25.8491 399.277 25.9011L399.089 27.3892ZM391.215 24.9826C391.627 25.0238 391.928 25.3914 391.887 25.8036C391.845 26.2157 391.478 26.5164 391.066 26.4751L391.215 24.9826ZM383.023 25.799C382.61 25.7713 382.297 25.4139 382.325 25.0006C382.353 24.5873 382.71 24.2747 383.124 24.3023L383.023 25.799ZM375.012 23.9152C375.426 23.9266 375.753 24.2715 375.741 24.6855C375.73 25.0996 375.385 25.426 374.971 25.4146L375.012 23.9152ZM366.92 25.37C366.506 25.3772 366.165 25.0474 366.157 24.6332C366.15 24.2191 366.48 23.8775 366.894 23.8703L366.92 25.37ZM358.781 24.2112C359.194 24.1833 359.551 24.4958 359.579 24.909C359.607 25.3223 359.295 25.6799 358.882 25.7078L358.781 24.2112ZM350.875 26.4634C350.463 26.5136 350.089 26.221 350.039 25.8098C349.989 25.3986 350.282 25.0246 350.693 24.9745L350.875 26.4634ZM342.656 26.1879C343.064 26.1142 343.454 26.385 343.527 26.7926C343.601 27.2002 343.33 27.5904 342.923 27.664L342.656 26.1879ZM335.048 29.3275C334.645 29.4252 334.24 29.178 334.142 28.7755C334.045 28.3729 334.292 27.9675 334.694 27.8698L335.048 29.3275ZM326.83 30.03C327.226 29.9083 327.645 30.1307 327.767 30.5266C327.889 30.9225 327.666 31.3421 327.27 31.4638L326.83 30.03ZM319.667 34.0524C319.279 34.1975 318.847 34.0006 318.702 33.6127C318.557 33.2247 318.753 32.7925 319.141 32.6474L319.667 34.0524ZM311.639 35.7069C312.018 35.5394 312.461 35.7108 312.628 36.0897C312.796 36.4685 312.624 36.9114 312.245 37.0788L311.639 35.7069ZM304.983 40.5387C304.615 40.7272 304.163 40.5811 303.974 40.2123C303.786 39.8435 303.932 39.3916 304.301 39.2031L304.983 40.5387ZM297.117 43.1263C297.475 42.9181 297.935 43.0396 298.143 43.3976C298.351 43.7557 298.229 44.2148 297.871 44.423L297.117 43.1263ZM291.064 48.6166C290.716 48.8425 290.252 48.7443 290.026 48.3971C289.8 48.0499 289.898 47.5853 290.245 47.3594L291.064 48.6166ZM283.559 51.9423C283.895 51.7002 284.364 51.7764 284.606 52.1124C284.848 52.4485 284.772 52.9173 284.436 53.1594L283.559 51.9423ZM277.93 58.0726C277.605 58.3295 277.133 58.2742 276.877 57.9493C276.62 57.6243 276.675 57.1527 277 56.8958L277.93 58.0726ZM270.819 61.9894C271.133 61.7197 271.606 61.7559 271.876 62.0703C272.146 62.3846 272.11 62.8581 271.795 63.1278L270.819 61.9894ZM265.748 68.5214C265.444 68.8028 264.969 68.7846 264.688 68.4807C264.406 68.1768 264.425 67.7022 264.729 67.4208L265.748 68.5214ZM258.893 73.0182C259.187 72.7264 259.662 72.7282 259.954 73.0222C260.246 73.3162 260.244 73.791 259.95 74.0828L258.893 73.0182ZM539.804 671.864C539.814 671.45 540.159 671.123 540.573 671.134C540.987 671.145 541.314 671.489 541.303 671.903L539.804 671.864ZM541.722 663.988C541.689 664.401 541.327 664.708 540.914 664.675C540.501 664.641 540.194 664.28 540.227 663.867L541.722 663.988ZM541.079 656.118C541.136 655.708 541.515 655.422 541.925 655.479C542.336 655.537 542.622 655.916 542.564 656.326L541.079 656.118ZM543.932 648.454C543.847 648.859 543.45 649.119 543.044 649.035C542.639 648.95 542.379 648.553 542.463 648.147L543.932 648.454ZM544.317 640.573C544.43 640.175 544.844 639.943 545.243 640.055C545.642 640.168 545.874 640.582 545.761 640.981L544.317 640.573ZM548.219 633.398C548.076 633.787 547.645 633.986 547.256 633.843C546.868 633.7 546.668 633.269 546.811 632.88L548.219 633.398ZM549.812 625.614C549.985 625.237 550.43 625.073 550.807 625.246C551.183 625.419 551.348 625.864 551.175 626.24L549.812 625.614ZM554.775 619.197C554.571 619.557 554.114 619.685 553.753 619.481C553.393 619.277 553.265 618.82 553.469 618.459L554.775 619.197ZM557.644 611.726C557.877 611.383 558.343 611.294 558.686 611.527C559.029 611.759 559.118 612.226 558.886 612.568L557.644 611.726ZM563.559 606.249C563.3 606.572 562.828 606.623 562.505 606.363C562.182 606.104 562.131 605.632 562.39 605.309L563.559 606.249ZM567.611 599.309C567.895 599.007 568.369 598.992 568.671 599.276C568.973 599.559 568.988 600.034 568.704 600.336L567.611 599.309ZM574.282 594.82C573.977 595.101 573.502 595.081 573.222 594.776C572.941 594.472 572.961 593.997 573.266 593.717L574.282 594.82ZM579.3 588.528C579.623 588.268 580.095 588.319 580.355 588.642C580.614 588.965 580.563 589.437 580.24 589.696L579.3 588.528ZM586.509 584.965C586.171 585.205 585.703 585.125 585.463 584.787C585.223 584.449 585.303 583.981 585.641 583.742L586.509 584.965ZM592.252 579.322C592.603 579.101 593.066 579.206 593.287 579.557C593.508 579.907 593.403 580.37 593.052 580.591L592.252 579.322ZM599.808 576.56C599.447 576.764 598.99 576.637 598.786 576.276C598.582 575.916 598.709 575.458 599.07 575.254L599.808 576.56ZM606.074 571.496C606.443 571.307 606.895 571.454 607.083 571.823C607.271 572.192 607.125 572.644 606.756 572.832L606.074 571.496ZM613.835 569.391C613.459 569.565 613.013 569.402 612.839 569.026C612.665 568.65 612.828 568.204 613.204 568.03L613.835 569.391ZM620.477 564.806C620.858 564.645 621.298 564.823 621.46 565.204C621.622 565.585 621.444 566.026 621.062 566.187L620.477 564.806ZM628.347 563.223C627.961 563.374 627.527 563.184 627.376 562.798C627.225 562.412 627.416 561.977 627.802 561.826L628.347 563.223ZM635.264 559.022C635.654 558.881 636.084 559.082 636.225 559.472C636.365 559.861 636.164 560.291 635.774 560.432L635.264 559.022ZM643.187 557.842C642.794 557.975 642.369 557.764 642.236 557.372C642.104 556.979 642.315 556.554 642.707 556.421L643.187 557.842ZM650.305 553.938C650.7 553.812 651.122 554.031 651.247 554.426C651.372 554.821 651.153 555.242 650.758 555.368L650.305 553.938ZM658.249 553.062C657.852 553.181 657.434 552.955 657.316 552.558C657.197 552.162 657.422 551.744 657.819 551.625L658.249 553.062ZM665.459 549.396C665.858 549.283 666.272 549.514 666.386 549.912C666.499 550.31 666.268 550.725 665.87 550.839L665.459 549.396ZM673.462 548.726C673.063 548.834 672.651 548.599 672.542 548.199C672.433 547.799 672.669 547.387 673.068 547.278L673.462 548.726ZM680.723 545.232C681.124 545.127 681.534 545.367 681.639 545.767C681.744 546.168 681.504 546.578 681.104 546.683L680.723 545.232ZM688.774 544.701C688.373 544.803 687.964 544.56 687.862 544.159C687.76 543.758 688.002 543.349 688.404 543.247L688.774 544.701ZM696.063 541.32C696.465 541.22 696.872 541.464 696.972 541.866C697.072 542.268 696.827 542.675 696.425 542.775L696.063 541.32ZM704.14 540.872C703.738 540.971 703.332 540.724 703.233 540.322C703.135 539.92 703.381 539.514 703.784 539.415L704.14 540.872ZM711.446 537.55C711.848 537.452 712.254 537.699 712.351 538.102C712.449 538.504 712.202 538.91 711.799 539.008L711.446 537.55ZM719.498 537.144C719.095 537.242 718.69 536.994 718.593 536.592C718.495 536.189 718.743 535.784 719.145 535.686L719.498 537.144ZM726.838 533.824C727.24 533.726 727.646 533.973 727.743 534.376C727.841 534.779 727.594 535.184 727.191 535.282L726.838 533.824ZM734.877 533.408C734.475 533.506 734.068 533.26 733.97 532.858C733.871 532.456 734.117 532.049 734.52 531.951L734.877 533.408ZM742.207 530.051C742.609 529.951 743.016 530.195 743.116 530.597C743.216 530.999 742.972 531.406 742.57 531.506L742.207 530.051ZM750.244 529.572C749.843 529.675 749.435 529.432 749.332 529.031C749.23 528.63 749.472 528.221 749.874 528.119L750.244 529.572ZM757.528 526.14C757.929 526.035 758.339 526.275 758.444 526.676C758.549 527.076 758.309 527.486 757.909 527.591L757.528 526.14ZM765.566 525.55C765.166 525.659 764.754 525.422 764.646 525.023C764.538 524.623 764.774 524.211 765.174 524.102L765.566 525.55ZM772.793 521.997C773.192 521.884 773.606 522.116 773.719 522.515C773.831 522.914 773.599 523.328 773.2 523.44L772.793 521.997ZM780.806 521.25C780.408 521.367 779.992 521.14 779.875 520.743C779.758 520.345 779.985 519.928 780.382 519.812L780.806 521.25ZM787.962 517.527C788.358 517.405 788.778 517.627 788.9 518.023C789.022 518.419 788.801 518.838 788.405 518.961L787.962 517.527ZM795.943 516.573C795.549 516.701 795.126 516.486 794.997 516.092C794.869 515.698 795.085 515.275 795.479 515.147L795.943 516.573ZM802.987 512.637C803.379 512.502 803.806 512.71 803.94 513.102C804.075 513.494 803.867 513.921 803.475 514.055L802.987 512.637ZM810.943 511.411C810.554 511.553 810.123 511.352 809.981 510.963C809.839 510.574 810.04 510.144 810.429 510.002L810.943 511.411ZM817.813 507.222C818.199 507.072 818.634 507.263 818.784 507.65C818.934 508.036 818.742 508.47 818.356 508.62L817.813 507.222ZM825.728 505.66C825.346 505.819 824.907 505.637 824.748 505.255C824.589 504.872 824.771 504.433 825.153 504.275L825.728 505.66ZM832.373 501.173C832.751 501.004 833.194 501.175 833.363 501.553C833.531 501.932 833.361 502.375 832.982 502.543L832.373 501.173ZM840.218 499.206C839.844 499.385 839.396 499.227 839.217 498.853C839.039 498.48 839.197 498.032 839.57 497.853L840.218 499.206ZM846.62 494.352C846.988 494.162 847.44 494.307 847.63 494.675C847.82 495.043 847.675 495.495 847.307 495.685L846.62 494.352ZM854.309 491.93C853.947 492.132 853.491 492.002 853.289 491.641C853.087 491.279 853.217 490.822 853.578 490.62L854.309 491.93ZM860.396 486.661C860.75 486.446 861.211 486.56 861.426 486.914C861.64 487.269 861.526 487.73 861.172 487.944L860.396 486.661ZM867.877 483.714C867.531 483.942 867.066 483.846 866.838 483.5C866.611 483.154 866.707 482.689 867.053 482.461L867.877 483.714ZM873.554 477.993C873.891 477.751 874.359 477.828 874.601 478.165C874.842 478.501 874.765 478.97 874.429 479.211L873.554 477.993ZM880.768 474.451C880.442 474.707 879.971 474.65 879.715 474.325C879.459 473.999 879.515 473.527 879.841 473.271L880.768 474.451ZM885.924 468.264C886.238 467.994 886.712 468.029 886.982 468.342C887.253 468.656 887.218 469.129 886.904 469.4L885.924 468.264ZM892.797 464.066C892.496 464.352 892.022 464.34 891.736 464.039C891.451 463.739 891.463 463.264 891.763 462.979L892.797 464.066ZM897.321 457.43C897.606 457.13 898.081 457.118 898.381 457.404C898.681 457.689 898.693 458.164 898.407 458.464L897.321 457.43ZM903.745 452.562C903.475 452.877 903.002 452.913 902.687 452.643C902.373 452.373 902.337 451.9 902.607 451.585L903.745 452.562ZM907.562 445.497C907.815 445.169 908.286 445.108 908.614 445.361C908.942 445.614 909.003 446.085 908.75 446.413L907.562 445.497ZM913.431 439.998C913.195 440.339 912.728 440.425 912.387 440.189C912.046 439.954 911.961 439.487 912.196 439.146L913.431 439.998ZM916.502 432.53C916.719 432.177 917.181 432.066 917.534 432.283C917.887 432.5 917.997 432.962 917.781 433.315L916.502 432.53ZM921.728 426.487C921.53 426.851 921.075 426.985 920.711 426.787C920.347 426.589 920.212 426.134 920.41 425.77L921.728 426.487ZM924.026 418.687C924.204 418.313 924.652 418.155 925.026 418.334C925.399 418.512 925.557 418.96 925.379 419.334L924.026 418.687ZM928.586 412.172C928.426 412.554 927.987 412.734 927.605 412.575C927.223 412.415 927.043 411.975 927.203 411.593L928.586 412.172ZM930.071 404.244C930.212 403.855 930.642 403.654 931.031 403.795C931.421 403.936 931.622 404.366 931.481 404.756L930.071 404.244ZM934.029 397.184C933.906 397.58 933.485 397.8 933.09 397.677C932.694 397.554 932.473 397.134 932.596 396.739L934.029 397.184ZM934.74 389.275C934.845 388.875 935.256 388.636 935.656 388.741C936.057 388.847 936.296 389.258 936.19 389.658L934.74 389.275ZM938.077 381.838C937.989 382.243 937.589 382.499 937.184 382.41C936.78 382.321 936.524 381.921 936.612 381.517L938.077 381.838ZM938.138 373.845C938.211 373.438 938.6 373.166 939.008 373.239C939.416 373.312 939.687 373.702 939.614 374.109L938.138 373.845ZM940.855 366.349C940.797 366.759 940.417 367.045 940.007 366.987C939.597 366.929 939.312 366.549 939.369 366.139L940.855 366.349ZM940.352 358.163C940.395 357.751 940.764 357.452 941.176 357.496C941.588 357.539 941.887 357.909 941.844 358.32L940.352 358.163ZM942.539 350.516C942.509 350.929 942.15 351.24 941.736 351.209C941.323 351.179 941.013 350.82 941.043 350.407L942.539 350.516ZM941.494 342.624C941.512 342.211 941.862 341.889 942.275 341.907C942.689 341.925 943.01 342.275 942.993 342.689L941.494 342.624ZM943.221 334.623C943.215 335.038 942.875 335.369 942.461 335.363C942.047 335.357 941.716 335.016 941.721 334.602L943.221 334.623ZM941.73 326.354C941.726 325.94 942.058 325.601 942.472 325.597C942.887 325.593 943.226 325.925 943.23 326.339L941.73 326.354ZM943.068 318.212C943.08 318.626 942.755 318.971 942.341 318.984C941.927 318.996 941.581 318.671 941.569 318.257L943.068 318.212ZM941.249 310.416C941.227 310.002 941.545 309.649 941.959 309.628C942.373 309.607 942.725 309.925 942.747 310.338L941.249 310.416ZM942.25 302.453C942.281 302.866 941.971 303.225 941.558 303.256C941.145 303.287 940.785 302.977 940.754 302.564L942.25 302.453ZM940.046 294.48C940.004 294.068 940.305 293.7 940.717 293.658C941.129 293.617 941.497 293.917 941.538 294.329L940.046 294.48ZM940.644 286.504C940.696 286.915 940.406 287.291 939.995 287.343C939.584 287.396 939.209 287.106 939.156 286.695L940.644 286.504ZM938.031 278.842C937.966 278.433 938.245 278.049 938.654 277.984C939.063 277.919 939.447 278.198 939.512 278.607L938.031 278.842ZM938.113 270.637C938.191 271.044 937.925 271.437 937.519 271.516C937.112 271.594 936.719 271.328 936.64 270.921L938.113 270.637ZM935.043 263.349C934.951 262.945 935.203 262.543 935.607 262.45C936.01 262.358 936.413 262.61 936.505 263.014L935.043 263.349ZM934.522 255.09C934.63 255.49 934.394 255.902 933.995 256.011C933.595 256.119 933.183 255.884 933.074 255.484L934.522 255.09ZM930.848 247.936C930.722 247.541 930.94 247.119 931.335 246.993C931.729 246.867 932.151 247.085 932.277 247.48L930.848 247.936ZM929.667 239.908C929.811 240.296 929.614 240.728 929.225 240.872C928.837 241.017 928.405 240.819 928.261 240.431L929.667 239.908ZM925.301 233.06C925.137 232.68 925.312 232.238 925.692 232.074C926.072 231.909 926.514 232.084 926.678 232.464L925.301 233.06ZM923.314 225.249C923.5 225.619 923.35 226.07 922.98 226.256C922.61 226.442 922.159 226.292 921.973 225.922L923.314 225.249ZM918.189 218.927C917.98 218.569 918.101 218.11 918.459 217.901C918.817 217.693 919.276 217.814 919.484 218.172L918.189 218.927ZM915.239 211.414C915.471 211.757 915.381 212.223 915.038 212.455C914.695 212.687 914.229 212.598 913.997 212.255L915.239 211.414ZM909.328 205.862C909.072 205.537 909.128 205.065 909.453 204.809C909.778 204.553 910.25 204.608 910.506 204.934L909.328 205.862ZM905.303 198.826C905.584 199.131 905.564 199.605 905.26 199.886C904.955 200.167 904.48 200.147 904.2 199.842L905.303 198.826ZM898.646 194.273C898.341 193.992 898.323 193.517 898.604 193.213C898.886 192.909 899.36 192.891 899.664 193.172L898.646 194.273ZM893.531 187.948C893.857 188.203 893.914 188.675 893.659 189.001C893.404 189.327 892.932 189.384 892.606 189.129L893.531 187.948ZM886.213 184.536C885.867 184.309 885.771 183.844 885.999 183.498C886.226 183.152 886.691 183.056 887.038 183.283L886.213 184.536ZM880.145 179.143C880.509 179.342 880.642 179.798 880.444 180.161C880.245 180.525 879.789 180.658 879.426 180.459L880.145 179.143ZM872.352 176.948C871.974 176.779 871.805 176.335 871.975 175.957C872.145 175.579 872.588 175.41 872.966 175.58L872.352 176.948ZM865.522 172.572C865.912 172.713 866.114 173.143 865.973 173.533C865.832 173.922 865.402 174.124 865.012 173.983L865.522 172.572ZM857.492 171.561C857.093 171.448 856.862 171.033 856.975 170.635C857.088 170.237 857.503 170.005 857.902 170.119L857.492 171.561ZM850.114 168.18C850.519 168.267 850.777 168.666 850.69 169.071C850.602 169.476 850.204 169.734 849.799 169.647L850.114 168.18ZM842.011 168.217C841.601 168.154 841.32 167.772 841.383 167.362C841.446 166.953 841.829 166.672 842.238 166.735L842.011 168.217ZM834.296 165.741C834.708 165.782 835.01 166.149 834.97 166.561C834.929 166.973 834.562 167.275 834.15 167.234L834.296 165.741ZM826.217 166.661C825.803 166.641 825.483 166.29 825.503 165.876C825.523 165.462 825.874 165.143 826.288 165.163L826.217 166.661ZM818.311 164.967C818.725 164.968 819.06 165.304 819.059 165.718C819.058 166.133 818.722 166.468 818.308 166.467L818.311 164.967ZM810.345 166.616C809.931 166.632 809.583 166.309 809.566 165.896C809.55 165.482 809.873 165.133 810.286 165.117L810.345 166.616ZM802.32 165.581C802.733 165.549 803.094 165.858 803.126 166.271C803.157 166.684 802.848 167.045 802.435 167.076L802.32 165.581ZM794.515 167.824C794.104 167.87 793.733 167.573 793.687 167.161C793.641 166.75 793.937 166.379 794.349 166.333L794.515 167.824ZM786.421 167.345C786.831 167.286 787.211 167.571 787.27 167.981C787.328 168.391 787.044 168.771 786.634 168.83L786.421 167.345ZM778.781 170.073C778.372 170.144 777.984 169.87 777.914 169.462C777.843 169.054 778.117 168.666 778.525 168.595L778.781 170.073ZM770.664 170.063C771.07 169.982 771.466 170.245 771.547 170.651C771.628 171.057 771.365 171.452 770.959 171.534L770.664 170.063ZM763.181 173.191C762.777 173.283 762.376 173.029 762.284 172.625C762.193 172.221 762.447 171.819 762.851 171.728L763.181 173.191ZM755.077 173.576C755.479 173.476 755.886 173.72 755.986 174.122C756.086 174.524 755.842 174.931 755.44 175.032L755.077 173.576ZM747.736 177.04C747.337 177.148 746.924 176.912 746.816 176.513C746.707 176.113 746.943 175.701 747.343 175.592L747.736 177.04ZM739.662 177.76C740.06 177.643 740.476 177.871 740.593 178.269C740.709 178.666 740.481 179.083 740.083 179.199L739.662 177.76ZM732.453 181.506C732.058 181.629 731.637 181.409 731.514 181.013C731.391 180.618 731.611 180.197 732.007 180.074L732.453 181.506ZM724.409 182.515C724.802 182.385 725.226 182.598 725.356 182.992C725.486 183.385 725.273 183.809 724.88 183.939L724.409 182.515ZM717.335 186.497C716.943 186.633 716.516 186.426 716.38 186.035C716.244 185.644 716.451 185.216 716.842 185.08L717.335 186.497ZM709.313 187.759C709.702 187.618 710.132 187.818 710.274 188.208C710.416 188.597 710.215 189.027 709.826 189.169L709.313 187.759ZM702.381 191.935C701.993 192.081 701.56 191.886 701.414 191.499C701.267 191.112 701.462 190.679 701.849 190.532L702.381 191.935ZM694.369 193.421C694.755 193.27 695.19 193.459 695.342 193.845C695.493 194.23 695.304 194.665 694.918 194.817L694.369 193.421ZM687.571 197.756C687.187 197.912 686.75 197.728 686.594 197.344C686.438 196.96 686.622 196.523 687.006 196.367L687.571 197.756ZM679.583 199.432C679.965 199.271 680.404 199.451 680.564 199.833C680.725 200.215 680.545 200.655 680.163 200.815L679.583 199.432ZM672.825 203.931C672.445 204.095 672.003 203.919 671.84 203.539C671.676 203.158 671.852 202.717 672.232 202.553L672.825 203.931ZM664.981 205.71C665.36 205.543 665.803 205.715 665.97 206.094C666.137 206.473 665.965 206.916 665.585 207.083L664.981 205.71ZM658.23 210.354C657.852 210.523 657.409 210.354 657.239 209.977C657.069 209.599 657.238 209.155 657.616 208.985L658.23 210.354ZM650.332 212.28C650.709 212.109 651.154 212.275 651.326 212.652C651.498 213.029 651.331 213.474 650.954 213.646L650.332 212.28ZM643.744 216.946C643.368 217.119 642.922 216.954 642.749 216.578C642.577 216.201 642.742 215.756 643.118 215.583L643.744 216.946ZM635.932 218.886C636.308 218.713 636.753 218.878 636.926 219.255C637.099 219.631 636.933 220.076 636.557 220.249L635.932 218.886ZM629.305 223.548C628.927 223.718 628.483 223.549 628.313 223.171C628.144 222.793 628.313 222.349 628.69 222.18L629.305 223.548ZM621.288 225.4C621.671 225.241 622.109 225.423 622.268 225.806C622.426 226.189 622.244 226.627 621.861 226.786L621.288 225.4ZM614.553 229.466C614.158 229.591 613.737 229.372 613.612 228.977C613.487 228.582 613.706 228.161 614.101 228.036L614.553 229.466ZM606.623 230.111C607.025 230.013 607.431 230.259 607.529 230.662C607.628 231.064 607.381 231.47 606.979 231.568L606.623 230.111ZM599.303 233.247C598.897 233.326 598.503 233.061 598.423 232.655C598.344 232.248 598.609 231.854 599.015 231.775L599.303 233.247ZM591.311 233.139C591.72 233.073 592.105 233.352 592.17 233.761C592.236 234.17 591.957 234.555 591.548 234.62L591.311 233.139ZM583.762 235.755C583.351 235.809 582.974 235.52 582.92 235.109C582.865 234.699 583.154 234.322 583.565 234.267L583.762 235.755ZM575.824 235.203C576.236 235.158 576.606 235.455 576.652 235.867C576.697 236.278 576.4 236.649 575.988 236.694L575.824 235.203ZM568.19 237.479C567.778 237.517 567.413 237.213 567.375 236.8C567.337 236.388 567.641 236.023 568.053 235.985L568.19 237.479ZM560.261 236.636C560.674 236.605 561.035 236.914 561.066 237.327C561.097 237.74 560.788 238.1 560.375 238.132L560.261 236.636ZM552.554 238.67C552.141 238.696 551.785 238.381 551.759 237.968C551.734 237.554 552.048 237.198 552.461 237.173L552.554 238.67ZM544.672 237.609C545.086 237.588 545.438 237.907 545.459 238.32C545.48 238.734 545.161 239.086 544.747 239.107L544.672 237.609ZM536.934 239.455C536.521 239.472 536.172 239.149 536.155 238.735C536.139 238.322 536.462 237.973 536.875 237.957L536.934 239.455ZM529.068 238.225C529.482 238.213 529.828 238.539 529.84 238.953C529.852 239.367 529.527 239.712 529.113 239.724L529.068 238.225ZM521.281 239.921C520.866 239.93 520.524 239.601 520.515 239.187C520.507 238.773 520.835 238.43 521.249 238.422L521.281 239.921ZM513.418 238.552C513.832 238.547 514.172 238.878 514.177 239.293C514.183 239.707 513.851 240.047 513.437 240.052L513.418 238.552ZM505.589 240.121C505.175 240.123 504.838 239.789 504.836 239.375C504.833 238.961 505.168 238.623 505.582 238.621L505.589 240.121ZM497.783 238.634C498.198 238.634 498.533 238.971 498.532 239.385C498.531 239.799 498.195 240.134 497.781 240.134L497.783 238.634ZM489.956 240.093C489.542 240.089 489.209 239.751 489.212 239.337C489.216 238.922 489.554 238.59 489.969 238.593L489.956 240.093ZM482.137 238.503C482.552 238.509 482.882 238.849 482.876 239.263C482.87 239.678 482.53 240.008 482.115 240.002L482.137 238.503ZM474.274 239.865C473.86 239.856 473.531 239.514 473.539 239.1C473.548 238.685 473.89 238.357 474.304 238.365L474.274 239.865ZM466.504 238.184C466.918 238.194 467.245 238.539 467.234 238.953C467.223 239.367 466.879 239.694 466.465 239.683L466.504 238.184ZM458.638 239.459C458.224 239.446 457.898 239.1 457.911 238.686C457.924 238.272 458.271 237.946 458.685 237.959L458.638 239.459ZM450.849 237.694C451.263 237.709 451.587 238.057 451.572 238.471C451.556 238.885 451.209 239.208 450.795 239.193L450.849 237.694ZM442.985 238.89C442.571 238.873 442.249 238.523 442.266 238.109C442.284 237.695 442.633 237.374 443.047 237.391L442.985 238.89ZM435.236 237.05C435.649 237.069 435.969 237.42 435.95 237.834C435.931 238.247 435.581 238.567 435.167 238.548L435.236 237.05ZM427.333 238.17C426.919 238.149 426.601 237.797 426.622 237.383C426.643 236.97 426.995 236.651 427.409 236.672L427.333 238.17ZM419.605 236.26C420.019 236.283 420.336 236.637 420.313 237.05C420.29 237.464 419.937 237.781 419.523 237.758L419.605 236.26ZM411.71 237.311C411.297 237.287 410.982 236.932 411.006 236.518C411.031 236.105 411.386 235.79 411.799 235.814L411.71 237.311ZM403.979 235.334C404.393 235.36 404.706 235.716 404.68 236.13C404.654 236.543 404.297 236.857 403.884 236.831L403.979 235.334ZM396.081 236.319C395.667 236.291 395.355 235.933 395.383 235.52C395.411 235.107 395.769 234.794 396.182 234.822L396.081 236.319ZM388.379 234.279C388.792 234.308 389.103 234.667 389.074 235.081C389.044 235.494 388.685 235.805 388.272 235.775L388.379 234.279ZM380.453 235.199C380.04 235.168 379.73 234.807 379.762 234.394C379.793 233.981 380.153 233.672 380.566 233.703L380.453 235.199ZM372.777 233.098C373.19 233.131 373.498 233.493 373.465 233.906C373.432 234.319 373.071 234.627 372.658 234.594L372.777 233.098ZM364.854 233.957C364.441 233.923 364.134 233.56 364.169 233.148C364.203 232.735 364.566 232.428 364.979 232.463L364.854 233.957ZM357.179 231.797C357.592 231.833 357.897 232.196 357.861 232.609C357.825 233.022 357.461 233.327 357.049 233.291L357.179 231.797ZM349.257 232.596C348.844 232.558 348.54 232.193 348.578 231.781C348.615 231.368 348.98 231.064 349.393 231.102L349.257 232.596ZM341.6 230.377C342.013 230.416 342.315 230.782 342.276 231.194C342.237 231.607 341.871 231.909 341.458 231.87L341.6 230.377ZM333.667 231.116C333.255 231.075 332.953 230.708 332.994 230.296C333.035 229.883 333.402 229.582 333.814 229.623L333.667 231.116ZM326.031 228.84C326.444 228.882 326.743 229.25 326.701 229.663C326.659 230.075 326.291 230.374 325.879 230.332L326.031 228.84ZM318.09 229.519C317.678 229.475 317.379 229.106 317.423 228.694C317.467 228.282 317.836 227.984 318.248 228.028L318.09 229.519ZM310.472 227.186C310.884 227.232 311.181 227.602 311.136 228.014C311.09 228.426 310.72 228.723 310.308 228.677L310.472 227.186ZM302.523 227.859C302.11 227.824 301.804 227.46 301.84 227.048C301.876 226.635 302.239 226.329 302.652 226.365L302.523 227.859ZM294.738 225.875C295.151 225.891 295.474 226.239 295.459 226.653C295.443 227.067 295.094 227.39 294.681 227.374L294.738 225.875ZM286.845 227.252C286.431 227.255 286.093 226.921 286.09 226.507C286.088 226.093 286.421 225.755 286.836 225.752L286.845 227.252ZM278.921 225.966C279.335 225.947 279.686 226.266 279.706 226.68C279.725 227.094 279.405 227.445 278.992 227.465L278.921 225.966ZM271.148 227.984C270.736 228.019 270.373 227.713 270.338 227.3C270.303 226.888 270.609 226.525 271.022 226.49L271.148 227.984ZM263.163 227.294C263.574 227.244 263.948 227.538 263.997 227.949C264.046 228.361 263.752 228.734 263.341 228.783L263.163 227.294ZM255.539 229.839C255.13 229.9 254.748 229.618 254.686 229.209C254.624 228.799 254.906 228.417 255.316 228.355L255.539 229.839ZM247.524 229.645C247.931 229.572 248.321 229.843 248.394 230.251C248.468 230.659 248.197 231.049 247.789 231.122L247.524 229.645ZM240.066 232.614C239.661 232.697 239.264 232.436 239.18 232.031C239.097 231.625 239.358 231.228 239.764 231.145L240.066 232.614ZM232.035 232.832C232.439 232.739 232.841 232.991 232.934 233.395C233.027 233.799 232.775 234.201 232.372 234.294L232.035 232.832ZM224.729 236.138C224.328 236.239 223.92 235.995 223.819 235.594C223.718 235.192 223.961 234.784 224.363 234.683L224.729 236.138ZM216.717 236.686C217.117 236.577 217.529 236.813 217.637 237.213C217.746 237.613 217.51 238.025 217.11 238.133L216.717 236.686ZM209.531 240.258C209.134 240.373 208.718 240.144 208.603 239.746C208.488 239.348 208.717 238.932 209.115 238.817L209.531 240.258ZM201.544 241.066C201.94 240.945 202.359 241.168 202.48 241.565C202.6 241.961 202.377 242.38 201.981 242.501L201.544 241.066ZM194.464 244.842C194.069 244.968 193.647 244.749 193.522 244.355C193.396 243.96 193.614 243.538 194.009 243.413L194.464 244.842ZM186.495 245.848C186.888 245.718 187.312 245.932 187.442 246.325C187.572 246.718 187.358 247.142 186.965 247.272L186.495 245.848ZM179.495 249.772C179.103 249.905 178.677 249.695 178.544 249.303C178.411 248.911 178.621 248.485 179.013 248.352L179.495 249.772ZM171.55 250.915C171.941 250.779 172.368 250.986 172.504 251.377C172.64 251.769 172.433 252.196 172.042 252.332L171.55 250.915ZM164.595 254.939C164.205 255.076 163.776 254.872 163.638 254.481C163.501 254.09 163.706 253.662 164.096 253.524L164.595 254.939ZM156.683 256.154C157.074 256.015 157.503 256.218 157.642 256.609C157.781 256.999 157.577 257.428 157.187 257.567L156.683 256.154ZM149.739 260.228C149.349 260.368 148.92 260.165 148.78 259.775C148.641 259.385 148.844 258.956 149.233 258.816L149.739 260.228ZM141.811 261.47C142.201 261.331 142.63 261.535 142.769 261.925C142.909 262.315 142.705 262.744 142.315 262.883L141.811 261.47ZM134.899 265.52C134.508 265.658 134.08 265.453 133.942 265.062C133.804 264.672 134.008 264.243 134.399 264.105L134.899 265.52ZM126.935 266.723C127.327 266.587 127.754 266.794 127.89 267.185C128.026 267.576 127.819 268.004 127.427 268.14L126.935 266.723ZM119.974 270.696C119.581 270.829 119.156 270.618 119.023 270.226C118.891 269.833 119.101 269.408 119.494 269.275L119.974 270.696ZM112.033 271.751C112.427 271.623 112.85 271.839 112.978 272.233C113.106 272.626 112.891 273.05 112.497 273.178L112.033 271.751ZM104.937 275.574C104.541 275.696 104.122 275.474 104 275.079C103.878 274.683 104.1 274.263 104.495 274.141L104.937 275.574ZM96.9563 276.385C97.3546 276.271 97.7698 276.501 97.8838 276.9C97.9978 277.298 97.7674 277.713 97.3691 277.827L96.9563 276.385ZM89.7863 279.897C89.3853 280.001 88.9761 279.76 88.8724 279.359C88.7686 278.958 89.0096 278.549 89.4106 278.445L89.7863 279.897ZM81.7431 280.299C82.1473 280.209 82.5483 280.463 82.6387 280.867C82.7291 281.272 82.4747 281.673 82.0704 281.763L81.7431 280.299ZM74.2868 283.337C73.8791 283.41 73.4893 283.139 73.4163 282.731C73.3432 282.323 73.6145 281.934 74.0222 281.861L74.2868 283.337ZM66.2646 283.041C66.6757 282.991 67.0499 283.283 67.1005 283.694C67.151 284.105 66.8587 284.479 66.4476 284.53L66.2646 283.041ZM58.5486 285.227C58.1349 285.248 57.7826 284.93 57.7616 284.516C57.7407 284.102 58.059 283.75 58.4727 283.729L58.5486 285.227ZM50.6708 283.773C51.0847 283.792 51.4055 284.142 51.3875 284.555C51.3694 284.969 51.0193 285.29 50.6055 285.272L50.6708 283.773ZM42.682 284.455C42.2736 284.386 41.9985 283.999 42.0675 283.59C42.1365 283.182 42.5236 282.907 42.9319 282.976L42.682 284.455ZM35.4131 281.105C35.8054 281.238 36.0159 281.664 35.8831 282.056C35.7503 282.449 35.3246 282.659 34.9323 282.526L35.4131 281.105ZM27.6292 279.267C27.2692 279.062 27.1435 278.604 27.3484 278.244C27.5534 277.884 28.0114 277.758 28.3713 277.963L27.6292 279.267ZM22.1124 273.492C22.4229 273.766 22.4524 274.24 22.1782 274.551C21.9041 274.861 21.4302 274.891 21.1196 274.617L22.1124 273.492ZM15.678 268.762C15.4259 268.434 15.488 267.963 15.8167 267.711C16.1454 267.459 16.6161 267.521 16.8682 267.85L15.678 268.762ZM12.6979 261.345C12.8935 261.71 12.756 262.164 12.3909 262.36C12.0258 262.556 11.5713 262.418 11.3757 262.053L12.6979 261.345ZM8.09863 254.811C7.95148 254.424 8.146 253.991 8.5332 253.843C8.92035 253.696 9.35358 253.891 9.50073 254.278L8.09863 254.811ZM7.10822 246.835C7.21594 247.235 6.979 247.646 6.57904 247.754C6.17908 247.862 5.76752 247.625 5.65979 247.225L7.10822 246.835ZM3.88568 239.36C3.80994 238.953 4.07867 238.561 4.4859 238.486C4.89313 238.41 5.28467 238.679 5.36041 239.086L3.88568 239.36ZM4.19318 231.492C4.24414 231.903 3.95227 232.278 3.5412 232.329C3.13013 232.38 2.75555 232.088 2.70459 231.677L4.19318 231.492ZM1.92041 223.454C1.89368 223.041 2.20703 222.684 2.62036 222.657C3.03375 222.63 3.3905 222.944 3.4173 223.357L1.92041 223.454ZM3.18518 215.425C3.18127 215.839 2.84235 216.171 2.42816 216.167C2.01398 216.164 1.68134 215.825 1.68524 215.41L3.18518 215.425ZM2.13281 207.36C2.17664 206.948 2.54608 206.65 2.95795 206.694C3.36987 206.737 3.66821 207.107 3.62439 207.519L2.13281 207.36ZM4.93005 199.75C4.83453 200.153 4.43036 200.403 4.02728 200.307C3.62427 200.212 3.375 199.807 3.47052 199.404L4.93005 199.75ZM5.9433 191.714C6.10291 191.331 6.54211 191.151 6.92438 191.311C7.30658 191.47 7.48706 191.909 7.32751 192.292L5.9433 191.714ZM11.0386 185.362C10.8075 185.706 10.3414 185.797 9.99774 185.566C9.65405 185.335 9.56281 184.869 9.79401 184.525L11.0386 185.362ZM15.0024 178.285C15.299 177.996 15.7738 178.002 16.063 178.299C16.3521 178.595 16.3461 179.07 16.0496 179.359L15.0024 178.285ZM22.1593 174.445C21.8146 174.674 21.349 174.581 21.1193 174.236C20.8896 173.892 20.9828 173.426 21.3275 173.196L22.1593 174.445ZM28.4154 169.223C28.79 169.046 29.2369 169.206 29.4137 169.581C29.5905 169.956 29.4301 170.403 29.0555 170.579L28.4154 169.223ZM36.37 167.622C35.9786 167.758 35.5514 167.55 35.4158 167.159C35.2803 166.767 35.4876 166.34 35.879 166.205L36.37 167.622ZM43.5974 163.878C43.998 163.773 44.408 164.013 44.5131 164.413C44.6182 164.814 44.3786 165.224 43.978 165.329L43.5974 163.878ZM51.7535 163.526C51.3478 163.609 50.9514 163.348 50.868 162.942C50.7846 162.536 51.046 162.14 51.4517 162.056L51.7535 163.526ZM59.3506 160.595C59.7591 160.526 60.1457 160.802 60.2141 161.211C60.2824 161.619 60.0067 162.006 59.5981 162.074L59.3506 160.595ZM67.4797 160.86C67.0697 160.919 66.6899 160.634 66.6314 160.224C66.5729 159.814 66.8579 159.434 67.268 159.375L67.4797 160.86ZM75.2069 158.307C75.6177 158.255 75.9934 158.545 76.046 158.956C76.0985 159.367 75.808 159.743 75.3972 159.795L75.2069 158.307ZM83.3345 158.812C82.9233 158.862 82.5496 158.569 82.4999 158.158C82.4501 157.747 82.7432 157.373 83.1544 157.323L83.3345 158.812ZM91.1025 156.368C91.5138 156.318 91.8873 156.612 91.9368 157.023C91.9863 157.434 91.6931 157.808 91.2818 157.857L91.1025 156.368ZM99.2323 156.884C98.8213 156.936 98.4464 156.644 98.395 156.233C98.3435 155.822 98.635 155.447 99.046 155.396L99.2323 156.884ZM106.98 154.369C107.391 154.314 107.768 154.602 107.824 155.012C107.879 155.423 107.591 155.8 107.18 155.856L106.98 154.369ZM115.121 154.737C114.711 154.798 114.329 154.515 114.269 154.105C114.208 153.695 114.491 153.314 114.901 153.253L115.121 154.737ZM122.803 152.019C123.212 151.952 123.598 152.229 123.665 152.637C123.733 153.046 123.456 153.432 123.047 153.499L122.803 152.019ZM130.942 152.118C130.534 152.193 130.143 151.925 130.068 151.517C129.992 151.11 130.261 150.719 130.668 150.643L130.942 152.118ZM138.497 149.099C138.902 149.014 139.299 149.274 139.384 149.68C139.469 150.085 139.209 150.483 138.804 150.567L138.497 149.099ZM146.63 148.825C146.227 148.921 145.823 148.671 145.728 148.268C145.633 147.865 145.882 147.461 146.285 147.366L146.63 148.825ZM154.025 145.422C154.426 145.316 154.836 145.554 154.943 145.954C155.05 146.354 154.812 146.765 154.411 146.872L154.025 145.422ZM162.136 144.689C161.74 144.808 161.322 144.582 161.203 144.185C161.084 143.789 161.309 143.371 161.706 143.252L162.136 144.689ZM169.317 140.838C169.71 140.706 170.135 140.918 170.266 141.311C170.398 141.703 170.187 142.129 169.794 142.26L169.317 140.838ZM177.373 139.572C176.985 139.717 176.553 139.521 176.407 139.133C176.262 138.745 176.459 138.313 176.847 138.167L177.373 139.572ZM184.252 135.241C184.635 135.081 185.074 135.262 185.233 135.645C185.392 136.027 185.211 136.466 184.829 136.625L184.252 135.241ZM192.175 133.403C191.799 133.577 191.353 133.412 191.18 133.036C191.006 132.66 191.17 132.215 191.547 132.041L192.175 133.403ZM521.621 2.92104C520.822 4.09787 520.017 5.23504 519.205 6.33368L517.999 5.44197C518.798 4.36009 519.592 3.23949 520.379 2.07896L521.621 2.92104ZM514.086 12.6551C512.209 14.7634 510.298 16.6911 508.353 18.4509L507.347 17.3386C509.25 15.6166 511.123 13.7274 512.966 11.6577L514.086 12.6551ZM501.973 23.5527C499.683 25.1572 497.351 26.5618 494.978 27.7853L494.291 26.4521C496.603 25.2596 498.877 23.89 501.112 22.3243L501.973 23.5527ZM487.474 31.0252C484.894 31.9371 482.272 32.6703 479.609 33.2473L479.292 31.7813C481.897 31.2168 484.457 30.5005 486.974 29.611L487.474 31.0252ZM471.54 34.5283C468.865 34.8099 466.152 34.9644 463.403 35.0129L463.376 33.5132C466.087 33.4653 468.756 33.3131 471.383 33.0366L471.54 34.5283ZM455.272 34.8727C452.604 34.7421 449.903 34.5349 447.171 34.2687L447.317 32.7758C450.029 33.0401 452.705 33.2453 455.345 33.3745L455.272 34.8727ZM439.11 33.3405C436.463 32.9951 433.787 32.6118 431.084 32.2056L431.307 30.7223C434.004 31.1275 436.67 31.5093 439.305 31.8531L439.11 33.3405ZM423.081 30.963C420.441 30.5446 417.778 30.1188 415.088 29.6976L415.32 28.2157C418.012 28.6371 420.679 29.0636 423.316 29.4815L423.081 30.963ZM407.094 28.484C404.448 28.0986 401.78 27.7299 399.089 27.3892L399.277 25.9011C401.979 26.2432 404.657 26.6133 407.31 26.9997L407.094 28.484ZM391.066 26.4751C388.406 26.2087 385.725 25.9798 383.023 25.799L383.124 24.3023C385.843 24.4844 388.54 24.7147 391.215 24.9826L391.066 26.4751ZM374.971 25.4146C372.306 25.3411 369.623 25.323 366.92 25.37L366.894 23.8703C369.621 23.8228 372.327 23.8411 375.012 23.9152L374.971 25.4146ZM358.882 25.7078C356.23 25.8867 353.561 26.1356 350.875 26.4634L350.693 24.9745C353.407 24.6432 356.103 24.3918 358.781 24.2112L358.882 25.7078ZM342.923 27.664C340.313 28.1352 337.688 28.6871 335.048 29.3275L334.694 27.8698C337.364 27.2222 340.018 26.6642 342.656 26.1879L342.923 27.664ZM327.27 31.4638C324.75 32.2387 322.215 33.0993 319.667 34.0524L319.141 32.6474C321.718 31.6838 324.281 30.8136 326.83 30.03L327.27 31.4638ZM312.245 37.0788C309.836 38.1437 307.416 39.2951 304.983 40.5387L304.301 39.2031C306.758 37.9468 309.204 36.7832 311.639 35.7069L312.245 37.0788ZM297.871 44.423C295.612 45.7369 293.343 47.1333 291.064 48.6166L290.245 47.3594C292.545 45.8626 294.836 44.4529 297.117 43.1263L297.871 44.423ZM284.436 53.1594C282.276 54.7155 280.107 56.352 277.93 58.0726L277 56.8958C279.194 55.1616 281.381 53.5116 283.559 51.9423L284.436 53.1594ZM271.795 63.1278C269.786 64.8514 267.77 66.6483 265.748 68.5214L264.729 67.4208C266.765 65.5351 268.795 63.7256 270.819 61.9894L271.795 63.1278ZM259.95 74.0828C258.981 75.0451 258.01 76.0251 257.037 77.0233L255.963 75.9767C256.941 74.9725 257.918 73.9865 258.893 73.0182L259.95 74.0828ZM539.75 676C539.75 674.606 539.768 673.227 539.804 671.864L541.303 671.903C541.268 673.253 541.25 674.619 541.25 676H539.75ZM540.227 663.867C540.441 661.223 540.725 658.641 541.079 656.118L542.564 656.326C542.215 658.819 541.934 661.372 541.722 663.988L540.227 663.867ZM542.463 648.147C543.004 645.556 543.623 643.032 544.317 640.573L545.761 640.981C545.076 643.406 544.465 645.896 543.932 648.454L542.463 648.147ZM546.811 632.88C547.728 630.387 548.73 627.966 549.812 625.614L551.175 626.24C550.109 628.557 549.123 630.941 548.219 633.398L546.811 632.88ZM553.469 618.459C554.777 616.143 556.17 613.9 557.644 611.726L558.886 612.568C557.434 614.708 556.062 616.917 554.775 619.197L553.469 618.459ZM562.39 605.309C564.052 603.242 565.793 601.243 567.611 599.309L568.704 600.336C566.912 602.243 565.196 604.213 563.559 606.249L562.39 605.309ZM573.266 593.717C575.208 591.929 577.221 590.2 579.3 588.528L580.24 589.696C578.186 591.349 576.198 593.056 574.282 594.82L573.266 593.717ZM585.641 583.742C587.786 582.22 589.991 580.748 592.252 579.322L593.052 580.591C590.813 582.003 588.631 583.46 586.509 584.965L585.641 583.742ZM599.07 575.254C601.356 573.962 603.692 572.71 606.074 571.496L606.756 572.832C604.392 574.037 602.075 575.279 599.808 576.56L599.07 575.254ZM613.204 568.03C615.589 566.924 618.014 565.851 620.477 564.806L621.062 566.187C618.614 567.226 616.204 568.293 613.835 569.391L613.204 568.03ZM627.802 561.826C630.257 560.867 632.745 559.933 635.264 559.022L635.774 560.432C633.267 561.34 630.79 562.269 628.347 563.223L627.802 561.826ZM642.707 556.421C645.214 555.575 647.747 554.748 650.305 553.938L650.758 555.368C648.208 556.175 645.684 556.999 643.187 557.842L642.707 556.421ZM657.819 551.625C660.345 550.869 662.893 550.126 665.459 549.396L665.87 550.839C663.309 551.567 660.768 552.308 658.249 553.062L657.819 551.625ZM673.068 547.278C675.604 546.587 678.156 545.906 680.723 545.232L681.104 546.683C678.541 547.356 675.994 548.036 673.462 548.726L673.068 547.278ZM688.404 543.247C690.946 542.6 693.499 541.958 696.063 541.32L696.425 542.775C693.864 543.413 691.313 544.054 688.774 544.701L688.404 543.247ZM703.784 539.415C706.33 538.792 708.885 538.171 711.446 537.55L711.799 539.008C709.239 539.628 706.685 540.249 704.14 540.872L703.784 539.415ZM719.145 535.686C721.705 535.067 724.27 534.447 726.838 533.824L727.191 535.282C724.623 535.905 722.058 536.525 719.498 537.144L719.145 535.686ZM734.52 531.951C737.081 531.323 739.644 530.69 742.207 530.051L742.57 531.506C740.005 532.146 737.44 532.779 734.877 533.408L734.52 531.951ZM749.874 528.119C752.428 527.468 754.98 526.809 757.528 526.14L757.909 527.591C755.357 528.261 752.801 528.92 750.244 529.572L749.874 528.119ZM765.174 524.102C767.719 523.412 770.26 522.711 772.793 521.997L773.2 523.44C770.662 524.156 768.116 524.859 765.566 525.55L765.174 524.102ZM780.382 519.812C782.918 519.065 785.446 518.304 787.962 517.527L788.405 518.961C785.881 519.74 783.348 520.502 780.806 521.25L780.382 519.812ZM795.479 515.147C797.995 514.329 800.498 513.493 802.987 512.637L803.475 514.055C800.977 514.914 798.466 515.753 795.943 516.573L795.479 515.147ZM810.429 510.002C812.907 509.098 815.369 508.172 817.813 507.222L818.356 508.62C815.902 509.574 813.43 510.503 810.943 511.411L810.429 510.002ZM825.153 504.275C827.581 503.267 829.988 502.234 832.373 501.173L832.982 502.543C830.585 503.609 828.167 504.648 825.728 505.66L825.153 504.275ZM839.57 497.853C841.945 496.717 844.296 495.551 846.62 494.352L847.307 495.685C844.97 496.891 842.606 498.064 840.218 499.206L839.57 497.853ZM853.578 490.62C855.881 489.336 858.154 488.017 860.396 486.661L861.172 487.944C858.915 489.31 856.626 490.638 854.309 491.93L853.578 490.62ZM867.053 482.461C869.255 481.012 871.423 479.523 873.554 477.993L874.429 479.211C872.28 480.754 870.096 482.254 867.877 483.714L867.053 482.461ZM879.841 473.271C881.908 471.647 883.937 469.979 885.924 468.264L886.904 469.4C884.899 471.13 882.853 472.813 880.768 474.451L879.841 473.271ZM891.763 462.979C893.659 461.178 895.512 459.329 897.321 457.43L898.407 458.464C896.581 460.382 894.71 462.248 892.797 464.066L891.763 462.979ZM902.607 451.585C904.305 449.607 905.957 447.579 907.562 445.497L908.75 446.413C907.129 448.516 905.46 450.565 903.745 452.562L902.607 451.585ZM912.196 439.146C913.68 436.994 915.116 434.79 916.502 432.53L917.781 433.315C916.38 435.597 914.93 437.824 913.431 439.998L912.196 439.146ZM920.41 425.77C921.665 423.464 922.87 421.103 924.026 418.687L925.379 419.334C924.212 421.773 922.995 424.157 921.728 426.487L920.41 425.77ZM927.203 411.593C928.206 409.196 929.163 406.747 930.071 404.244L931.481 404.756C930.565 407.281 929.599 409.752 928.586 412.172L927.203 411.593ZM932.596 396.739C933.355 394.299 934.07 391.812 934.74 389.275L936.19 389.658C935.515 392.215 934.794 394.724 934.029 397.184L932.596 396.739ZM936.612 381.517C937.163 379.006 937.672 376.449 938.138 373.845L939.614 374.109C939.145 376.732 938.633 379.308 938.077 381.838L936.612 381.517ZM939.369 366.139C939.739 363.526 940.067 360.867 940.352 358.163L941.844 358.32C941.557 361.042 941.227 363.718 940.855 366.349L939.369 366.139ZM941.043 350.407C941.23 347.852 941.381 345.258 941.494 342.624L942.993 342.689C942.879 345.337 942.727 347.946 942.539 350.516L941.043 350.407ZM941.721 334.602C941.741 333.245 941.75 331.878 941.75 330.5H943.25C943.25 331.885 943.24 333.259 943.221 334.623L941.721 334.602ZM941.75 330.5C941.75 329.107 941.743 327.725 941.73 326.354L943.23 326.339C943.243 327.715 943.25 329.102 943.25 330.5H941.75ZM941.569 318.257C941.488 315.601 941.381 312.987 941.249 310.416L942.747 310.338C942.88 312.921 942.987 315.545 943.068 318.212L941.569 318.257ZM940.754 302.564C940.549 299.819 940.312 297.124 940.046 294.48L941.538 294.329C941.806 296.987 942.044 299.695 942.25 302.453L940.754 302.564ZM939.156 286.695C938.813 284.023 938.438 281.406 938.031 278.842L939.512 278.607C939.922 281.186 940.299 283.818 940.644 286.504L939.156 286.695ZM936.64 270.921C936.142 268.34 935.609 265.816 935.043 263.349L936.505 263.014C937.075 265.498 937.612 268.039 938.113 270.637L936.64 270.921ZM933.074 255.484C932.371 252.9 931.629 250.385 930.848 247.936L932.277 247.48C933.064 249.95 933.813 252.486 934.522 255.09L933.074 255.484ZM928.261 240.431C927.318 237.896 926.331 235.44 925.301 233.06L926.678 232.464C927.719 234.869 928.715 237.35 929.667 239.908L928.261 240.431ZM921.973 225.922C920.76 223.503 919.497 221.172 918.189 218.927L919.484 218.172C920.809 220.445 922.087 222.803 923.314 225.249L921.973 225.922ZM913.997 212.255C912.491 210.029 910.934 207.9 909.328 205.862L910.506 204.934C912.135 207 913.713 209.159 915.239 211.414L913.997 212.255ZM904.2 199.842C902.399 197.887 900.547 196.032 898.646 194.273L899.664 193.172C901.595 194.958 903.475 196.842 905.303 198.826L904.2 199.842ZM892.606 189.129C890.524 187.499 888.392 185.969 886.213 184.536L887.038 183.283C889.25 184.739 891.416 186.292 893.531 187.948L892.606 189.129ZM879.426 180.459C877.112 179.194 874.753 178.025 872.352 176.948L872.966 175.58C875.402 176.672 877.796 177.859 880.145 179.143L879.426 180.459ZM865.012 173.983C862.542 173.09 860.034 172.284 857.492 171.561L857.902 170.119C860.477 170.85 863.018 171.667 865.522 172.572L865.012 173.983ZM849.799 169.647C847.232 169.095 844.635 168.619 842.011 168.217L842.238 166.735C844.89 167.141 847.517 167.622 850.114 168.18L849.799 169.647ZM834.15 167.234C831.527 166.978 828.882 166.788 826.217 166.661L826.288 165.163C828.977 165.291 831.647 165.482 834.296 165.741L834.15 167.234ZM818.308 166.467C815.668 166.46 813.013 166.511 810.345 166.616L810.286 165.117C812.974 165.012 815.65 164.96 818.311 164.967L818.308 166.467ZM802.435 167.076C799.804 167.278 797.163 167.529 794.515 167.824L794.349 166.333C797.013 166.036 799.671 165.784 802.32 165.581L802.435 167.076ZM786.634 168.83C784.019 169.205 781.4 169.62 778.781 170.073L778.525 168.595C781.158 168.14 783.791 167.722 786.421 167.345L786.634 168.83ZM770.959 171.534C768.364 172.053 765.77 172.607 763.181 173.191L762.851 171.728C765.451 171.141 768.057 170.585 770.664 170.063L770.959 171.534ZM755.44 175.032C752.864 175.674 750.295 176.345 747.736 177.04L747.343 175.592C749.912 174.894 752.491 174.221 755.077 173.576L755.44 175.032ZM740.083 179.199C737.527 179.947 734.983 180.717 732.453 181.506L732.007 180.074C734.544 179.282 737.097 178.51 739.662 177.76L740.083 179.199ZM724.88 183.939C722.345 184.776 719.829 185.63 717.335 186.497L716.842 185.08C719.344 184.211 721.867 183.355 724.409 182.515L724.88 183.939ZM709.826 189.169C707.318 190.081 704.835 191.004 702.381 191.935L701.849 190.532C704.31 189.599 706.799 188.674 709.313 187.759L709.826 189.169ZM694.918 194.817C692.435 195.794 689.984 196.775 687.571 197.756L687.006 196.367C689.425 195.383 691.88 194.4 694.369 193.421L694.918 194.817ZM680.163 200.815C677.67 201.859 675.223 202.9 672.825 203.931L672.232 202.553C674.634 201.52 677.085 200.478 679.583 199.432L680.163 200.815ZM665.585 207.083C663.067 208.192 660.614 209.284 658.23 210.354L657.616 208.985C660.002 207.914 662.459 206.82 664.981 205.71L665.585 207.083ZM650.954 213.646C648.453 214.785 646.047 215.888 643.744 216.946L643.118 215.583C645.422 214.525 647.829 213.421 650.332 212.28L650.954 213.646ZM636.557 220.249C633.96 221.44 631.537 222.546 629.305 223.548L628.69 222.18C630.917 221.18 633.336 220.076 635.932 218.886L636.557 220.249ZM621.861 226.786C620.541 227.332 619.337 227.807 618.259 228.204L617.741 226.796C618.796 226.408 619.98 225.941 621.288 225.4L621.861 226.786ZM618.259 228.204C617.079 228.637 615.844 229.058 614.553 229.466L614.101 228.036C615.371 227.634 616.585 227.221 617.741 226.796L618.259 228.204ZM606.979 231.568C604.558 232.16 601.997 232.719 599.303 233.247L599.015 231.775C601.689 231.251 604.227 230.697 606.623 230.111L606.979 231.568ZM591.548 234.62C589.045 235.021 586.448 235.399 583.762 235.755L583.565 234.267C586.238 233.913 588.822 233.537 591.311 233.139L591.548 234.62ZM575.988 236.694C573.456 236.973 570.855 237.235 568.19 237.479L568.053 235.985C570.71 235.742 573.301 235.481 575.824 235.203L575.988 236.694ZM560.375 238.132C557.82 238.325 555.212 238.505 552.554 238.67L552.461 237.173C555.113 237.008 557.713 236.829 560.261 236.636L560.375 238.132ZM544.747 239.107C542.184 239.235 539.579 239.351 536.934 239.455L536.875 237.957C539.515 237.853 542.115 237.737 544.672 237.609L544.747 239.107ZM529.113 239.724C526.536 239.801 523.925 239.866 521.281 239.921L521.249 238.422C523.889 238.367 526.496 238.301 529.068 238.225L529.113 239.724ZM513.437 240.052C510.85 240.085 508.233 240.108 505.589 240.121L505.582 238.621C508.222 238.608 510.834 238.585 513.418 238.552L513.437 240.052ZM497.781 240.134C495.196 240.129 492.588 240.115 489.956 240.093L489.969 238.593C492.597 238.615 495.202 238.629 497.783 238.634L497.781 240.134ZM482.115 240.002C479.522 239.965 476.908 239.919 474.274 239.865L474.304 238.365C476.935 238.419 479.547 238.465 482.137 238.503L482.115 240.002ZM466.465 239.683C463.873 239.616 461.264 239.541 458.638 239.459L458.685 237.959C461.308 238.042 463.915 238.116 466.504 238.184L466.465 239.683ZM450.795 239.193C448.206 239.099 445.603 238.998 442.985 238.89L443.047 237.391C445.662 237.499 448.263 237.6 450.849 237.694L450.795 239.193ZM435.167 238.548C432.568 238.429 429.956 238.303 427.333 238.17L427.409 236.672C430.03 236.805 432.639 236.931 435.236 237.05L435.167 238.548ZM419.523 237.758C416.929 237.615 414.325 237.466 411.71 237.311L411.799 235.814C414.411 235.969 417.014 236.118 419.605 236.26L419.523 237.758ZM403.884 236.831C401.292 236.666 398.69 236.495 396.081 236.319L396.182 234.822C398.789 234.999 401.389 235.169 403.979 235.334L403.884 236.831ZM388.272 235.775C385.673 235.589 383.066 235.397 380.453 235.199L380.566 233.703C383.177 233.901 385.782 234.093 388.379 234.279L388.272 235.775ZM372.658 234.594C370.062 234.387 367.461 234.175 364.854 233.957L364.979 232.463C367.583 232.68 370.183 232.892 372.777 233.098L372.658 234.594ZM357.049 233.291C354.455 233.064 351.858 232.833 349.257 232.596L349.393 231.102C351.992 231.339 354.588 231.57 357.179 231.797L357.049 233.291ZM341.458 231.87C338.864 231.624 336.266 231.372 333.667 231.116L333.814 229.623C336.412 229.879 339.008 230.131 341.6 230.377L341.458 231.87ZM325.879 230.332C323.284 230.066 320.687 229.795 318.09 229.519L318.248 228.028C320.844 228.303 323.438 228.574 326.031 228.84L325.879 230.332ZM310.308 228.677C309.011 228.535 307.714 228.391 306.416 228.245L306.583 226.755C307.88 226.9 309.176 227.044 310.472 227.186L310.308 228.677ZM306.416 228.245C305.122 228.1 303.824 227.972 302.523 227.859L302.652 226.365C303.965 226.479 305.276 226.608 306.583 226.755L306.416 228.245ZM294.681 227.374C292.079 227.275 289.467 227.236 286.845 227.252L286.836 225.752C289.479 225.735 292.113 225.775 294.738 225.875L294.681 227.374ZM278.992 227.465C276.385 227.588 273.77 227.762 271.148 227.984L271.022 226.49C273.661 226.266 276.294 226.09 278.921 225.966L278.992 227.465ZM263.341 228.783C260.745 229.093 258.144 229.446 255.539 229.839L255.316 228.355C257.935 227.96 260.551 227.605 263.163 227.294L263.341 228.783ZM247.789 231.122C245.217 231.584 242.642 232.083 240.066 232.614L239.764 231.145C242.351 230.611 244.938 230.11 247.524 229.645L247.789 231.122ZM232.372 234.294C229.824 234.881 227.276 235.496 224.729 236.138L224.363 234.683C226.919 234.039 229.477 233.421 232.035 232.832L232.372 234.294ZM217.11 238.133C214.581 238.82 212.054 239.529 209.531 240.258L209.115 238.817C211.645 238.086 214.179 237.375 216.717 236.686L217.11 238.133ZM201.981 242.501C199.469 243.265 196.963 244.047 194.464 244.842L194.009 243.413C196.514 242.616 199.026 241.832 201.544 241.066L201.981 242.501ZM186.965 247.272C184.467 248.096 181.976 248.93 179.495 249.772L179.013 248.352C181.498 247.508 183.992 246.673 186.495 245.848L186.965 247.272ZM172.042 252.332C169.549 253.197 167.066 254.067 164.595 254.939L164.096 253.524C166.569 252.652 169.054 251.781 171.55 250.915L172.042 252.332ZM157.187 257.567C154.69 258.457 152.207 259.345 149.739 260.228L149.233 258.816C151.702 257.933 154.186 257.044 156.683 256.154L157.187 257.567ZM142.315 262.883C139.826 263.772 137.353 264.652 134.899 265.52L134.399 264.105C136.851 263.238 139.322 262.359 141.811 261.47L142.315 262.883ZM127.427 268.14C124.921 269.01 122.436 269.864 119.974 270.696L119.494 269.275C121.951 268.444 124.432 267.592 126.935 266.723L127.427 268.14ZM112.497 273.178C109.949 274.006 107.429 274.807 104.937 275.574L104.495 274.141C106.979 273.376 109.492 272.578 112.033 271.751L112.497 273.178ZM97.3691 277.827C94.8068 278.561 92.2784 279.253 89.7863 279.897L89.4106 278.445C91.889 277.804 94.4049 277.115 96.9563 276.385L97.3691 277.827ZM82.0704 281.763C79.4291 282.354 76.8336 282.881 74.2868 283.337L74.0222 281.861C76.5458 281.408 79.1204 280.886 81.7431 280.299L82.0704 281.763ZM66.4476 284.53C63.7509 284.861 61.1165 285.097 58.5486 285.227L58.4727 283.729C61.0011 283.601 63.5995 283.369 66.2646 283.041L66.4476 284.53ZM50.6055 285.272C47.8736 285.153 45.2303 284.885 42.682 284.455L42.9319 282.976C45.4131 283.395 47.9943 283.657 50.6708 283.773L50.6055 285.272ZM34.9323 282.526C32.3729 281.66 29.9357 280.58 27.6292 279.267L28.3713 277.963C30.5898 279.226 32.939 280.268 35.4131 281.105L34.9323 282.526ZM21.1196 274.617C19.1727 272.898 17.3568 270.951 15.678 268.762L16.8682 267.85C18.4901 269.964 20.2402 271.839 22.1124 273.492L21.1196 274.617ZM11.3757 262.053C10.1806 259.822 9.08722 257.411 8.09863 254.811L9.50073 254.278C10.4683 256.823 11.5355 259.175 12.6979 261.345L11.3757 262.053ZM5.65979 247.225C4.992 244.745 4.39996 242.125 3.88568 239.36L5.36041 239.086C5.86798 241.815 6.45148 244.396 7.10822 246.835L5.65979 247.225ZM2.70459 231.677C2.53864 230.338 2.38818 228.97 2.25348 227.572L3.74652 227.428C3.88 228.813 4.02893 230.168 4.19318 231.492L2.70459 231.677ZM2.25348 227.572C2.11829 226.169 2.00745 224.797 1.92041 223.454L3.4173 223.357C3.50323 224.684 3.61285 226.041 3.74652 227.428L2.25348 227.572ZM1.68524 215.41C1.71179 212.582 1.8623 209.901 2.13281 207.36L3.62439 207.519C3.35938 210.008 3.2113 212.64 3.18518 215.425L1.68524 215.41ZM3.47052 199.404C4.12317 196.651 4.94989 194.093 5.9433 191.714L7.32751 192.292C6.36749 194.591 5.56519 197.071 4.93005 199.75L3.47052 199.404ZM9.79401 184.525C11.3317 182.239 13.0724 180.167 15.0024 178.285L16.0496 179.359C14.1915 181.171 12.5175 183.164 11.0386 185.362L9.79401 184.525ZM21.3275 173.196C23.5342 171.726 25.9012 170.409 28.4154 169.223L29.0555 170.579C26.5999 171.738 24.298 173.019 22.1593 174.445L21.3275 173.196ZM35.879 166.205C38.3466 165.35 40.9222 164.58 43.5974 163.878L43.978 165.329C41.3344 166.022 38.7961 166.782 36.37 167.622L35.879 166.205ZM51.4517 162.056C54.0118 161.53 56.6469 161.047 59.3506 160.595L59.5981 162.074C56.9092 162.524 54.2927 163.004 51.7535 163.526L51.4517 162.056ZM67.268 159.375C69.8619 159.005 72.5098 158.652 75.2069 158.307L75.3972 159.795C72.7051 160.139 70.0647 160.492 67.4797 160.86L67.268 159.375ZM83.1544 157.323C85.7643 157.007 88.4166 156.691 91.1025 156.368L91.2818 157.857C88.593 158.181 85.9445 158.497 83.3345 158.812L83.1544 157.323ZM99.046 155.396C101.662 155.069 104.308 154.728 106.98 154.369L107.18 155.856C104.502 156.216 101.852 156.557 99.2323 156.884L99.046 155.396ZM114.901 153.253C117.514 152.867 120.149 152.457 122.803 152.019L123.047 153.499C120.384 153.939 117.741 154.35 115.121 154.737L114.901 153.253ZM130.668 150.643C133.263 150.161 135.873 149.648 138.497 149.099L138.804 150.567C136.169 151.119 133.547 151.634 130.942 152.118L130.668 150.643ZM146.285 147.366C148.856 146.758 151.437 146.112 154.025 145.422L154.411 146.872C151.809 147.565 149.214 148.215 146.63 148.825L146.285 147.366ZM161.706 143.252C164.238 142.494 166.776 141.69 169.317 140.838L169.794 142.26C167.237 143.118 164.684 143.926 162.136 144.689L161.706 143.252ZM176.847 138.167C179.315 137.243 181.784 136.269 184.252 135.241L184.829 136.625C182.343 137.661 179.857 138.641 177.373 139.572L176.847 138.167ZM191.547 132.041C192.756 131.483 193.965 130.911 195.173 130.325L195.827 131.675C194.611 132.265 193.393 132.841 192.175 133.403L191.547 132.041Z" fill="#CDDAFC"/>
</g>
<defs>
<filter id="filter0_f_185_1929" x="0.685211" y="0.749878" width="943.565" height="677" filterUnits="userSpaceOnUse" color-interpolation-filters="sRGB">
<feFlood flood-opacity="0" result="BackgroundImageFix"/>
<feBlend mode="normal" in="SourceGraphic" in2="BackgroundImageFix" result="shape"/>
<feGaussianBlur stdDeviation="0.5" result="effect1_foregroundBlur_185_1929"/>
</filter>
</defs>
</svg>
