<svg xmlns="http://www.w3.org/2000/svg" width="24" height="24" fill="none"><path fill="#000" d="M7.96509 6.202c-.18585-.02722-.37542.0102-.537.106h-.014c-.375.22-.713.497-1.001.823-.24.277-.37.557-.404.827-.02.16-.006.322.041.475l.018.01c.27.793.622 1.556 1.052 2.274.5547 1.0083 1.23698 1.941 2.03 2.775l.024.034.038.028.023.027.028.024c.83701.7953 1.77181 1.4808 2.78201 2.04 1.155.629 1.856.926 2.277 1.05v.006c.123.038.235.055.348.055.3587-.0257.6983-.1716.964-.414.325-.288.6-.627.814-1.004v-.007c.201-.38.133-.738-.157-.981-.582-.5096-1.212-.9617-1.881-1.35-.448-.243-.903-.096-1.087.15l-.393.496c-.202.246-.568.212-.568.212l-.01.006c-2.73101-.697-3.46001-3.462-3.46001-3.462s-.034-.376.219-.568l.492-.396c.236-.192.40001-.646.147-1.094-.38742-.66857-.83851-1.29816-1.347-1.88-.11122-.13662-.26699-.22973-.44-.263M12.5801 5c-.1326 0-.2598.05268-.3536.14645-.0937.09376-.1464.22094-.1464.35355 0 .13261.0527.25979.1464.35355.0938.09377.221.14645.3536.14645 1.264 0 2.314.413 3.145 1.205.427.433.76.946.978 1.508.219.563.319 1.164.293 1.766-.0056.1326.0418.262.1316.3597.0898.0977.2148.1557.3474.1613.1326.0056.262-.0418.3597-.1316.0977-.0898.1557-.2148.1613-.3474.0298-.74044-.0931-1.4791-.361-2.17-.2692-.69442-.6791-1.32564-1.204-1.854l-.01-.01C15.3901 5.502 14.0861 5 12.5801 5Z"/><path fill="#000" d="M12.5449 6.64394c-.1326 0-.2598.05268-.3535.14645-.0938.09377-.1465.22095-.1465.35355 0 .13261.0527.25979.1465.35356.0937.09377.2209.14644.3535.14644h.017c.912.065 1.576.369 2.041.868.477.514.724 1.153.705 1.94296-.003.1327.0467.261.1383.357.0916.0959.2176.1515.3502.1545.1326.0031.261-.0467.3569-.1383.096-.0916.1516-.2175.1546-.3502.024-1.03696-.31-1.93196-.972-2.64596v-.002c-.677-.726-1.606-1.11-2.724-1.185l-.017-.002-.05.001Z"/><path fill="#000" d="M12.5259 8.31895c-.0669-.0059-.1344.00174-.1982.02246-.0639.02073-.123.05412-.1737.09818-.0507.04406-.092.09788-.1215.15826-.0294.06038-.0464.12607-.0499.19315-.0035.06708.0066.13418.0296.19729s.0585.12094.1043.17003c.0459.04909.1012.08843.1626.11569.0614.02726.1276.04186.1948.04294.418.022.685.148.853.317.169.17.295.44305.318.87005.0012.0671.016.1332.0433.1945.0274.0613.0668.1164.1159.1621.0492.0458.107.0811.1701.104.063.0229.1301.0329.1971.0294.067-.0036.1326-.0206.1929-.0501.0603-.0294.1141-.0707.1581-.1214.044-.0507.0774-.1097.0981-.1735.0207-.0638.0283-.1312.0225-.198-.032-.60005-.22-1.13005-.605-1.52005-.387-.39-.914-.58-1.512-.612Z"/><path fill="#000" fill-rule="evenodd" d="M7.06711 2.38406c3.18209-.7113 6.48189-.7113 9.66399 0l.339.075c.93.20848 1.784.67043 2.4675 1.33464.6834.66422 1.1696 1.50473 1.4045 2.42836.8085 3.18279.8085 6.51724 0 9.70004-.2349.9236-.7211 1.7641-1.4045 2.4283-.6835.6642-1.5375 1.1262-2.4675 1.3347l-.34.075c-1.9931.445-4.038.6129-6.077.499l-2.65299 2.374c-.10002.0895-.22225.1506-.35392.1768s-.26796.0166-.39464-.0279c-.12668-.0444-.23911-.1221-.32556-.2248-.08644-.1027-.14373-.2267-.16588-.3591l-.439-2.622c-.84159-.2624-1.60193-.736-2.20851-1.3757-.60657-.6396-1.03916-1.424-1.25649-2.2783-.80847-3.1828-.80847-6.51725 0-9.70004.23494-.92363.72108-1.76414 1.40453-2.42836.68346-.66421 1.53751-1.12616 2.46747-1.33464l.339-.075Zm9.33699 1.463c-2.9667-.6632-6.0433-.6632-9.00999 0l-.34.076c-.65904.14818-1.26422.47586-1.74853.94675-.4843.47089-.82884 1.06663-.99547 1.72125-.74701 2.94063-.74701 6.02134 0 8.96204.16671.6547.5114 1.2505.99589 1.7214.4845.4709 1.08988.7985 1.74911.9466l.09.02c.14559.0325.27816.1078.38077.2161.1026.1083.17058.2447.19523.3919l.294 1.758 1.872-1.675c.07475-.0671.16219-.1185.25719-.1512.095-.0326.1956-.0458.2958-.0388 1.9991.1411 4.008-.0088 5.964-.445l.339-.076c.6592-.1481 1.2646-.4757 1.7491-.9466.4845-.4709.8292-1.0667.9959-1.7214.746-2.94.746-6.02104 0-8.96204-.1667-.65475-.5114-1.25057-.9959-1.72147-.4845-.47091-1.0899-.79851-1.7491-.94653l-.339-.076Z" clip-rule="evenodd"/></svg>